<svg width="366" height="366" viewBox="0 0 366 366" fill="none" xmlns="http://www.w3.org/2000/svg">
    <path d="M366 279.917H0V280.1H366V279.917Z" fill="#EBEBEB" />
    <path d="M81.735 286.058H57.4912V286.241H81.735V286.058Z" fill="#EBEBEB" />
    <path d="M119.682 291.336H97.5977V291.519H119.682V291.336Z" fill="#EBEBEB" />
    <path d="M69.6133 292.851H41.6143V293.034H69.6133V292.851Z" fill="#EBEBEB" />
    <path d="M329.327 292.456H317.688V292.639H329.327V292.456Z" fill="#EBEBEB" />
    <path d="M315.338 292.456H286.556V292.639H315.338V292.456Z" fill="#EBEBEB" />
    <path d="M205.202 285.963H183V286.146H205.202V285.963Z" fill="#EBEBEB" />
    <path d="M261.156 285.963H208.378V286.146H261.156V285.963Z" fill="#EBEBEB" />
    <path d="M173.484 247.269H32.1421C31.0349 247.267 29.9736 246.826 29.1913 246.043C28.4091 245.259 27.9697 244.197 27.9697 243.09V44.4029C27.9794 43.302 28.423 42.2493 29.2042 41.4736C29.9854 40.6978 31.0412 40.2617 32.1421 40.2598H173.484C174.593 40.2598 175.656 40.7001 176.44 41.484C177.223 42.2678 177.664 43.331 177.664 44.4395V243.09C177.664 244.198 177.223 245.261 176.44 246.045C175.656 246.829 174.593 247.269 173.484 247.269ZM32.1421 40.4062C31.0834 40.4081 30.0687 40.83 29.3208 41.5794C28.5728 42.3287 28.1527 43.3442 28.1527 44.4029V243.09C28.1527 244.148 28.5728 245.164 29.3208 245.913C30.0687 246.662 31.0834 247.084 32.1421 247.086H173.484C174.543 247.084 175.559 246.663 176.308 245.914C177.057 245.165 177.479 244.149 177.481 243.09V44.4029C177.479 43.3435 177.057 42.328 176.308 41.5789C175.559 40.8298 174.543 40.4081 173.484 40.4062H32.1421Z" fill="#EBEBEB" />
    <path d="M331.823 247.269H190.474C189.366 247.267 188.304 246.826 187.52 246.043C186.737 245.26 186.296 244.198 186.294 243.09V44.4029C186.305 43.3013 186.751 42.2487 187.533 41.4731C188.316 40.6976 189.372 40.2616 190.474 40.2598H331.823C332.923 40.2636 333.976 40.7006 334.756 41.4762C335.536 42.2517 335.978 43.3032 335.988 44.4029V243.09C335.988 244.196 335.55 245.257 334.769 246.04C333.988 246.823 332.929 247.265 331.823 247.269ZM190.474 40.4062C189.414 40.4081 188.399 40.8298 187.65 41.5789C186.901 42.328 186.479 43.3435 186.477 44.4029V243.09C186.479 244.149 186.901 245.165 187.65 245.914C188.399 246.663 189.414 247.084 190.474 247.086H331.823C332.882 247.084 333.898 246.663 334.647 245.914C335.396 245.165 335.818 244.149 335.82 243.09V44.4029C335.818 43.3435 335.396 42.328 334.647 41.5789C333.898 40.8298 332.882 40.4081 331.823 40.4062H190.474Z" fill="#EBEBEB" />
    <path d="M314.232 172.832L303.015 161.616L199.666 264.965L210.882 276.182L314.232 172.832Z" fill="#EBEBEB" />
    <path d="M264.932 222.125L253.718 210.904L238.427 226.195L248.711 242.599L264.932 222.125Z" fill="#E0E0E0" />
    <path d="M210.88 276.181L214.617 279.918L317.967 176.569L314.23 172.832L210.88 276.181Z" fill="#E0E0E0" />
    <path d="M210.884 165.348L199.667 176.564L303.017 279.914L314.234 268.698L210.884 165.348Z" fill="#EBEBEB" />
    <path d="M314.233 268.699L317.97 264.962L214.62 161.613L210.883 165.35L314.233 268.699Z" fill="#E0E0E0" />
    <path d="M128.98 196.578L120.248 187.846L39.8127 268.281L48.5446 277.013L128.98 196.578Z" fill="#EBEBEB" />
    <path d="M90.6068 234.935L81.874 226.21L69.979 238.112L77.9798 250.871L90.6068 234.935Z" fill="#E0E0E0" />
    <path d="M48.5383 277.011L51.4473 279.919L131.883 199.484L128.974 196.575L48.5383 277.011Z" fill="#E0E0E0" />
    <path d="M48.5484 190.753L39.8164 199.485L120.252 279.921L128.984 271.189L48.5484 190.753Z" fill="#EBEBEB" />
    <path d="M128.969 271.184L131.878 268.275L51.4431 187.84L48.5341 190.748L128.969 271.184Z" fill="#E0E0E0" />
    <path d="M233.413 201.38H220.522V279.909H233.413V201.38Z" fill="#F5F5F5" />
    <path d="M233.413 234.013H220.522V243.434L233.413 240.652V234.013Z" fill="#EBEBEB" />
    <path d="M233.406 279.917H237.703V201.388H233.406V279.917Z" fill="#EBEBEB" />
    <path d="M98.3807 201.38H85.4902V279.909H98.3807V201.38Z" fill="#F5F5F5" />
    <path d="M98.3734 234.013H85.4902V243.434L98.3734 240.652V234.013Z" fill="#EBEBEB" />
    <path d="M98.3736 279.917H102.67L102.67 201.388H98.3736L98.3736 279.917Z" fill="#EBEBEB" />
    <path d="M240.177 212.895H75.6597V237.066H240.177V212.895Z" fill="#F5F5F5" />
    <path d="M240.176 237.058H242.592V212.887H240.176V237.058Z" fill="#EBEBEB" />
    <path d="M177.678 188.249H145.514L122.771 210.992V243.156L145.514 265.899H177.678L200.422 243.156V210.992L177.678 188.249Z" fill="#FAFAFA" />
    <path d="M176.207 191.799H146.986L126.321 212.463V241.685L146.986 262.349H176.207L196.871 241.685V212.463L176.207 191.799Z" fill="#E0E0E0" />
    <path d="M133.363 230.448L137.477 230.082C137.511 230.843 137.695 231.589 138.019 232.278C138.188 232.642 138.458 232.948 138.797 233.162C139.136 233.376 139.529 233.489 139.929 233.486C140.205 233.508 140.481 233.464 140.736 233.357C140.991 233.25 141.216 233.084 141.393 232.871C141.734 232.461 141.913 231.941 141.898 231.407C141.902 230.902 141.732 230.411 141.415 230.017C140.798 229.444 140.041 229.044 139.219 228.86C137.662 228.465 136.253 227.626 135.164 226.444C134.313 225.347 133.879 223.982 133.942 222.594C133.932 221.584 134.144 220.585 134.564 219.666C134.963 218.779 135.618 218.032 136.445 217.521C137.496 216.944 138.688 216.673 139.885 216.738C140.628 216.687 141.373 216.787 142.076 217.031C142.779 217.275 143.426 217.658 143.977 218.158C144.914 219.102 145.441 220.61 145.654 222.675L141.576 223.019C141.538 222.314 141.302 221.634 140.896 221.057C140.714 220.851 140.487 220.689 140.234 220.584C139.98 220.479 139.706 220.433 139.432 220.449C139.221 220.435 139.009 220.469 138.813 220.547C138.616 220.626 138.44 220.747 138.297 220.903C138.04 221.213 137.905 221.606 137.916 222.009C137.913 222.323 138.025 222.628 138.231 222.865C138.642 223.24 139.149 223.493 139.695 223.597C141.132 223.97 142.502 224.562 143.758 225.354C144.544 225.907 145.162 226.667 145.544 227.55C145.924 228.478 146.113 229.474 146.1 230.478C146.117 231.693 145.867 232.898 145.368 234.006C144.932 235.014 144.205 235.87 143.282 236.466C142.261 237.057 141.093 237.346 139.915 237.3C137.538 237.3 135.891 236.646 134.974 235.338C133.991 233.891 133.433 232.197 133.363 230.448Z" fill="white" />
    <path d="M147.256 217.111H160.432V222.038H156.04V237.036H151.714V222.038H147.322L147.256 217.111Z" fill="white" />
    <path d="M161.142 227.088C161.142 223.838 161.779 221.305 163.053 219.49C163.669 218.652 164.473 217.969 165.4 217.498C166.328 217.026 167.353 216.778 168.393 216.774C169.433 216.77 170.46 217.009 171.391 217.473C172.322 217.937 173.132 218.613 173.755 219.446C175.038 221.227 175.68 223.718 175.68 226.92C175.741 228.864 175.461 230.804 174.853 232.651C174.396 234.01 173.57 235.214 172.467 236.128C171.354 236.981 169.98 237.421 168.58 237.373C167.194 237.428 165.826 237.052 164.663 236.297C163.513 235.432 162.638 234.252 162.145 232.9C161.436 231.047 161.095 229.072 161.142 227.088ZM165.469 227.088C165.469 229.104 165.732 230.548 166.259 231.422C166.464 231.814 166.773 232.143 167.151 232.373C167.53 232.603 167.965 232.724 168.408 232.724C168.851 232.724 169.285 232.603 169.664 232.373C170.043 232.143 170.351 231.814 170.556 231.422C171.068 230.558 171.288 229.013 171.288 226.788C171.386 225.371 171.113 223.954 170.497 222.674C170.285 222.278 169.968 221.947 169.581 221.718C169.194 221.49 168.751 221.372 168.301 221.378C167.864 221.384 167.436 221.509 167.066 221.742C166.695 221.974 166.396 222.305 166.201 222.696C165.713 223.614 165.469 225.087 165.469 227.117V227.088Z" fill="white" />
    <path d="M177.957 217.111H185.145C185.818 217.066 186.491 217.189 187.106 217.467C187.72 217.745 188.256 218.171 188.666 218.707C189.523 220.054 189.93 221.637 189.83 223.231C189.928 224.899 189.481 226.553 188.556 227.945C188.095 228.523 187.5 228.98 186.823 229.276C186.146 229.572 185.406 229.698 184.669 229.643H182.268V237.036H177.927L177.957 217.111ZM182.268 225.61H183.329C183.65 225.645 183.975 225.607 184.279 225.499C184.583 225.392 184.859 225.217 185.086 224.987C185.437 224.537 185.616 223.977 185.591 223.406C185.627 222.842 185.489 222.28 185.196 221.796C184.999 221.557 184.744 221.372 184.456 221.259C184.168 221.145 183.856 221.105 183.549 221.144H182.268V225.61Z" fill="white" />
    <path d="M301.108 75.2131C300.344 75.2165 299.582 75.3073 298.839 75.4839C297.873 73.2879 295.728 71.9191 292.836 71.9191C290.623 71.9733 288.473 72.6729 286.651 73.9321C285.421 69.8036 281.739 67.0439 276.601 67.0439C269.281 67.0439 261.631 72.6364 258.864 79.7807C258.188 79.6221 257.495 79.5435 256.8 79.5465H256.112C249.81 79.9711 250.256 89.4871 256.602 89.4871H301.584C302.363 89.4897 303.131 89.3088 303.826 88.959C304.522 88.6093 305.126 88.1006 305.588 87.4741C306.364 86.4201 306.956 85.2419 307.337 83.9897C308.728 79.1439 305.976 75.2131 301.108 75.2131Z" fill="#F0F0F0" />
    <path d="M125.436 33.0351C124.455 26.535 119.272 22.0039 111.696 22.0039C105.489 22.0039 99.0909 25.0417 94.3256 29.7192C92.9356 28.514 91.1429 27.8763 89.304 27.9331C84.0483 27.9331 78.5363 32.1933 76.9845 37.4491C76.7542 38.2248 76.6239 39.0267 76.5965 39.8354L76.4867 39.9086C72.1386 42.8366 74.2907 49.7101 79.5904 49.7101H125.904C126.788 49.7173 127.659 49.5033 128.439 49.0878C129.219 48.6724 129.882 48.0685 130.369 47.3311C131.093 46.2269 131.653 45.0237 132.031 43.7589C133.649 38.1665 130.743 33.5622 125.436 33.0351Z" fill="#F0F0F0" />
    <path d="M180.716 105.627C179.369 96.6898 172.247 90.4604 161.83 90.4604C153.288 90.4604 144.497 94.6402 137.953 101.067C136.047 99.4057 133.584 98.527 131.057 98.6076C123.84 98.6076 116.249 104.464 114.119 111.688C113.802 112.754 113.622 113.856 113.584 114.968L113.438 115.063C107.443 119.14 110.415 128.539 117.662 128.539H178.608C181.079 128.557 183.491 127.779 185.486 126.321C187.482 124.864 188.956 122.803 189.69 120.443V120.355C192.018 112.677 188.014 106.345 180.716 105.627Z" fill="#F5F5F5" />
    <path d="M183 312.974C261.385 312.974 324.928 309.264 324.928 304.688C324.928 300.111 261.385 296.401 183 296.401C104.616 296.401 41.0728 300.111 41.0728 304.688C41.0728 309.264 104.616 312.974 183 312.974Z" fill="#F5F5F5" />
    <path d="M94.2376 94.3696H57.4912V77.7824L94.2376 34.104H111.806V78.756H120.919V94.4062H111.82V107.977H94.2522L94.2376 94.3696ZM94.2376 78.7194V55.8737L74.825 78.7194H94.2376Z" fill="#263238" />
    <path d="M267.114 34.104V107.941H246.684V59.5556C243.704 61.8705 240.518 63.909 237.168 65.6459C233.426 67.451 229.54 68.9421 225.551 70.1038V53.5679C232.417 51.3475 237.749 48.6879 241.545 45.5891C245.346 42.483 248.395 38.5564 250.461 34.104H267.114Z" fill="#263238" />
    <path d="M228.252 126.775C227.93 127.353 227.681 127.77 227.396 128.239C227.111 128.707 226.825 129.147 226.54 129.6C225.961 130.493 225.346 131.357 224.724 132.221C223.469 133.953 222.123 135.617 220.691 137.206C219.233 138.836 217.665 140.365 215.999 141.781C214.267 143.282 212.385 144.602 210.384 145.719C209.754 146.086 209.096 146.402 208.415 146.663C207.703 146.935 206.968 147.14 206.219 147.278C204.883 147.509 203.523 147.573 202.171 147.468C199.832 147.264 197.533 146.732 195.342 145.887C193.319 145.116 191.361 144.186 189.486 143.106C187.642 142.054 185.881 140.864 184.215 139.548C183.744 139.166 183.424 138.628 183.312 138.031C183.2 137.435 183.304 136.818 183.604 136.29C183.905 135.763 184.383 135.36 184.953 135.152C185.524 134.944 186.149 134.946 186.719 135.156L186.851 135.207C190.297 136.586 193.855 137.666 197.486 138.436C199.086 138.769 200.721 138.904 202.354 138.838C202.992 138.811 203.622 138.695 204.228 138.494C204.454 138.42 204.672 138.325 204.88 138.209C205.085 138.092 205.121 138.055 205.538 137.769C208.34 135.71 210.854 133.285 213.012 130.559C214.161 129.154 215.281 127.697 216.343 126.167C216.884 125.435 217.397 124.652 217.917 123.891L218.649 122.749L219.337 121.673L219.454 121.49C220.178 120.382 221.304 119.597 222.594 119.301C223.885 119.004 225.24 119.218 226.376 119.899C227.511 120.58 228.34 121.673 228.687 122.951C229.034 124.229 228.873 125.591 228.238 126.753L228.252 126.775Z" fill="#FF8B7B" />
    <path d="M187.934 135.756L182.319 132.038L179.94 139.504C181.065 140.097 182.329 140.376 183.599 140.311C184.869 140.247 186.099 139.842 187.158 139.138L187.934 135.756Z" fill="#FF8B7B" />
    <path d="M177.144 133.158L176.705 135.537C176.625 135.959 176.667 136.394 176.825 136.794C176.983 137.193 177.251 137.539 177.598 137.791L179.918 139.504L182.297 132.038L180.043 131.379C179.735 131.289 179.412 131.264 179.095 131.306C178.777 131.348 178.471 131.457 178.198 131.624C177.925 131.792 177.69 132.015 177.508 132.279C177.327 132.544 177.203 132.843 177.144 133.158Z" fill="#FF8B7B" />
    <path d="M228.428 114.88C222.711 115.78 216.928 122.492 213.451 128.751C215.734 132.732 219.194 135.908 223.355 137.842C223.355 137.842 230.133 131.43 232.871 126.687C235.609 121.943 233.808 114.023 228.428 114.88Z" fill="#295CD4" />
    <path opacity="0.2" d="M228.428 114.88C222.711 115.78 216.928 122.492 213.451 128.751C215.734 132.732 219.194 135.908 223.355 137.842C223.355 137.842 230.133 131.43 232.871 126.687C235.609 121.943 233.808 114.023 228.428 114.88Z" fill="black" />
    <path d="M213.671 127.316C213.142 127.916 212.727 128.609 212.449 129.359C213.876 131.555 217.265 137.411 223.59 138.655C224.205 138.312 224.675 137.758 224.915 137.096C224.915 137.096 217.639 133.509 213.671 127.316Z" fill="#263238" />
    <path d="M251.464 114.682C244.553 113.525 237.516 113.323 230.551 114.082C225.353 114.748 221.474 119.528 221.51 124.762C221.536 130.222 222.026 135.671 222.974 141.049C221.064 151.114 220.376 164.795 222.389 167.811L258.396 168.316C259.94 164.012 258.001 145.382 260.058 125.933C260.337 123.314 259.601 120.688 258.003 118.595C256.404 116.502 254.064 115.102 251.464 114.682Z" fill="#295CD4" />
    <path opacity="0.2" d="M237.9 167.855C235.843 151.656 237.9 124.564 237.9 124.286L238.632 124.345C238.632 124.616 236.59 151.634 238.632 167.76L237.9 167.855Z" fill="black" />
    <path d="M233.984 114.587C235.221 114.126 234.76 113.438 234.76 113.438C234.76 113.438 229.138 113.437 225.244 114.484C224.651 115.114 225.288 115.948 225.288 115.948C225.288 115.948 230.302 115.963 233.984 114.587Z" fill="#263238" />
    <path opacity="0.2" d="M236.282 113.46C236.282 113.46 233.962 117.749 237.065 121.651C234.606 121.651 233.017 125.845 233.017 125.845C233.017 125.845 228.216 119.169 234.357 113.833C234.701 113.299 236.282 113.46 236.282 113.46Z" fill="black" />
    <path d="M233.801 115.539C233.201 118.159 238.478 123.1 238.478 123.1C238.478 123.1 247.812 118.591 248.404 116.007L233.801 115.539Z" fill="white" />
    <path opacity="0.2" d="M254.868 130.874C253.872 132.792 255.197 141.122 259.04 144.643C259.084 141.203 259.187 137.55 259.406 133.795L254.868 130.874Z" fill="black" />
    <path d="M246.457 100.467L236.824 106.791C237.966 109.588 238.5 112.501 235.206 113.848C234.783 114.018 234.421 114.31 234.166 114.688C233.91 115.066 233.774 115.511 233.774 115.967C233.774 116.423 233.91 116.868 234.166 117.246C234.421 117.623 234.783 117.916 235.206 118.086C236.177 118.439 237.192 118.653 238.222 118.723C241.318 119.023 244.44 118.519 247.284 117.259C247.584 117.109 247.847 116.896 248.056 116.634C248.265 116.372 248.414 116.068 248.494 115.743C248.573 115.418 248.581 115.079 248.516 114.75C248.451 114.422 248.316 114.111 248.119 113.84C245.593 110.268 245.901 104.061 246.457 100.467Z" fill="#FF8B7B" />
    <path opacity="0.2" d="M242.534 103.043L236.832 106.784C237.152 107.549 237.397 108.343 237.564 109.156C239.84 109.024 242.812 107.223 242.871 105.342C242.927 104.56 242.812 103.776 242.534 103.043Z" fill="black" />
    <path d="M235.763 88.4034C238.215 88.3522 238.881 91.8731 237.959 93.0662C239.818 93.4688 240.718 95.6429 240.155 96.7263C239.591 97.8096 237.439 99.0321 235.521 98.5489C232.235 97.7291 231.671 94.9987 232.593 93.7543C230.836 92.305 231.73 87.8398 235.763 88.4034Z" fill="#263238" />
    <path opacity="0.2" d="M235.763 88.4034C238.215 88.3522 238.881 91.8731 237.959 93.0662C239.818 93.4688 240.718 95.6429 240.155 96.7263C239.591 97.8096 237.439 99.0321 235.521 98.5489C232.235 97.7291 231.671 94.9987 232.593 93.7543C230.836 92.305 231.73 87.8398 235.763 88.4034Z" fill="white" />
    <path d="M249.612 94.2081C248.88 99.9836 248.741 103.402 245.615 106.169C240.909 110.319 233.903 107.128 232.908 101.228C232 95.921 233.354 87.3639 239.188 85.4753C240.481 85.064 241.857 84.9859 243.187 85.2482C244.518 85.5106 245.761 86.1049 246.801 86.976C247.841 87.8471 248.644 88.9668 249.135 90.2311C249.627 91.4955 249.791 92.8634 249.612 94.2081Z" fill="#FF8B7B" />
    <path d="M248.917 98.6221C246.465 98.6221 245.923 95.05 246.86 93.8934C245.015 93.4176 244.196 91.2143 244.766 90.1309C245.337 89.0476 247.555 87.9349 249.459 88.4693C252.716 89.4063 253.192 92.1293 252.248 93.3664C254.004 94.9036 252.928 99.3102 248.917 98.6221Z" fill="#263238" />
    <path opacity="0.2" d="M248.917 98.6221C246.465 98.6221 245.923 95.05 246.86 93.8934C245.015 93.4176 244.196 91.2143 244.766 90.1309C245.337 89.0476 247.555 87.9349 249.459 88.4693C252.716 89.4063 253.192 92.1293 252.248 93.3664C254.004 94.9036 252.928 99.3102 248.917 98.6221Z" fill="white" />
    <path opacity="0.2" d="M243.024 95.1599C243.318 95.0798 243.626 95.0586 243.929 95.0976C244.231 95.1365 244.523 95.2348 244.788 95.3868C244.191 95.4248 243.592 95.3478 243.024 95.1599Z" fill="black" />
    <path opacity="0.2" d="M243.024 95.5548C243.303 95.5391 243.582 95.5847 243.841 95.6884C244.1 95.7921 244.333 95.9514 244.525 96.155C243.988 96.0625 243.476 95.858 243.024 95.5548Z" fill="black" />
    <path opacity="0.2" d="M233.852 94.7133C233.785 94.6735 233.71 94.6478 233.633 94.6377C233.555 94.6276 233.476 94.6333 233.401 94.6545C233.326 94.6757 233.255 94.712 233.195 94.7611C233.134 94.8102 233.084 94.8711 233.047 94.9402C233.335 94.9738 233.624 94.8922 233.852 94.7133Z" fill="black" />
    <path opacity="0.2" d="M233.859 95.1595C233.859 95.1595 233.413 95.0936 233.179 95.7598C233.459 95.6294 233.695 95.421 233.859 95.1595Z" fill="black" />
    <path d="M251.354 100.094C250.683 101.302 249.579 102.212 248.265 102.641C246.596 103.124 245.93 101.455 246.53 99.7129C247.079 98.1537 248.595 96.0163 250.19 96.3018C251.786 96.5872 252.233 98.549 251.354 100.094Z" fill="#FF8B7B" />
    <path d="M241.853 95.1596C241.853 95.6281 241.553 95.9941 241.238 95.9721C240.923 95.9502 240.704 95.5476 240.74 95.0718C240.777 94.596 241.04 94.2373 241.355 94.2593C241.67 94.2812 241.89 94.6985 241.853 95.1596Z" fill="#263238" />
    <path d="M239.511 103.76C238.91 103.877 238.361 103.643 238.288 103.248C238.215 102.853 238.654 102.443 239.255 102.326C239.855 102.209 240.404 102.443 240.477 102.838C240.55 103.233 240.096 103.651 239.511 103.76Z" fill="#263238" />
    <path d="M235.448 94.6547C235.448 95.1232 235.14 95.4892 234.833 95.4672C234.526 95.4453 234.291 95.0427 234.328 94.5669C234.365 94.0911 234.635 93.7324 234.943 93.7544C235.25 93.7763 235.477 94.1789 235.448 94.6547Z" fill="#263238" />
    <path d="M236.905 99.3689C233.479 99.6031 232.82 101.272 233.42 102.004C234.021 102.736 235.485 102.004 235.485 102.004C235.485 102.004 238.259 102.597 239.071 101.711C240.382 102.268 242.38 101.228 241.816 100.438C241.253 99.6471 239.84 99.1639 236.905 99.3689Z" fill="#263238" />
    <path opacity="0.2" d="M236.905 99.3689C233.479 99.6031 232.82 101.272 233.42 102.004C234.021 102.736 235.485 102.004 235.485 102.004C235.485 102.004 238.259 102.597 239.071 101.711C240.382 102.268 242.38 101.228 241.816 100.438C241.253 99.6471 239.84 99.1639 236.905 99.3689Z" fill="white" />
    <path d="M237.007 95.1597C236.349 96.5612 235.499 97.8645 234.482 99.032C234.789 99.2862 235.148 99.4709 235.533 99.5733C235.919 99.6756 236.322 99.6932 236.715 99.6249L237.007 95.1597Z" fill="#FF5652" />
    <path d="M242.885 92.7002C242.931 92.6944 242.976 92.6795 243.017 92.6562C243.048 92.6362 243.074 92.6103 243.095 92.5799C243.116 92.5495 243.131 92.5152 243.138 92.4791C243.146 92.443 243.146 92.4058 243.139 92.3696C243.132 92.3334 243.118 92.299 243.097 92.2683C242.864 91.8893 242.542 91.5723 242.16 91.3442C241.777 91.1161 241.346 90.9836 240.901 90.958C240.827 90.958 240.757 90.9873 240.705 91.0395C240.652 91.0916 240.623 91.1624 240.623 91.2362C240.623 91.3099 240.652 91.3807 240.705 91.4329C240.757 91.485 240.827 91.5143 240.901 91.5143C241.251 91.5397 241.59 91.6487 241.89 91.8321C242.189 92.0155 242.44 92.268 242.621 92.5684C242.649 92.6128 242.688 92.6487 242.734 92.672C242.781 92.6953 242.833 92.7051 242.885 92.7002Z" fill="#263238" />
    <path d="M233.347 92.1514C233.393 92.1505 233.439 92.1388 233.479 92.1172C233.52 92.0956 233.555 92.0646 233.582 92.0269C233.769 91.7337 234.023 91.4893 234.324 91.3136C234.624 91.138 234.962 91.0363 235.309 91.0168C235.383 91.0168 235.454 90.9875 235.506 90.9353C235.558 90.8831 235.587 90.8124 235.587 90.7386C235.587 90.6648 235.558 90.5941 235.506 90.5419C235.454 90.4898 235.383 90.4604 235.309 90.4604C234.869 90.4781 234.439 90.6017 234.057 90.8209C233.675 91.0401 233.351 91.3484 233.113 91.7195C233.093 91.7496 233.079 91.7835 233.072 91.8191C233.065 91.8547 233.065 91.8914 233.073 91.9269C233.08 91.9624 233.095 91.996 233.116 92.0258C233.136 92.0555 233.163 92.0808 233.194 92.1001C233.237 92.1344 233.292 92.1525 233.347 92.1514Z" fill="#263238" />
    <path d="M242.797 227.505C244.437 201.095 244.071 173.996 241.223 168.096L222.375 167.811C222.375 167.811 224.724 211.965 225.456 229.555C226.225 247.855 227.865 295.435 227.865 295.435L238.771 295.566C238.771 295.566 245.169 247.935 242.797 227.505Z" fill="#263238" />
    <path opacity="0.2" d="M243.609 187.135C237.175 194.162 240.184 213.619 242.987 224.336C243.756 210.933 243.961 197.588 243.609 187.135Z" fill="black" />
    <path d="M238.632 296.943L229.043 296.818C228.436 296.787 227.836 296.966 227.345 297.323C224.563 299.519 222.447 299.585 219.293 300.149C215.508 300.83 217.382 304.636 220.171 304.68C224.783 304.753 224.395 304.585 228.333 304.643L231.056 304.68L232.286 303.428L233.376 304.68H238.412C238.543 304.683 238.673 304.658 238.793 304.607C238.914 304.555 239.022 304.479 239.11 304.383C239.199 304.287 239.266 304.173 239.307 304.048C239.349 303.924 239.363 303.793 239.349 303.663L238.632 296.943Z" fill="#263238" />
    <path d="M239.364 297.923C239.196 297.923 226.781 297.528 226.781 297.528L226.276 293.07L240.045 293.378L239.364 297.923Z" fill="#295CD4" />
    <path d="M264.933 227.505C262.912 201.095 262.056 174.216 258.396 168.316L235.667 168.023C235.667 168.023 244.708 211.943 247.885 229.555C251.186 247.855 260.072 295.435 260.072 295.435L271.001 295.567C271.001 295.567 270.108 247.935 264.933 227.505Z" fill="#263238" />
    <path d="M271.521 296.943L261.924 296.818C261.319 296.788 260.723 296.967 260.233 297.323C257.452 299.519 258.725 299.585 255.571 300.149C251.786 300.83 253.653 304.636 256.442 304.68C261.053 304.753 260.673 304.585 264.603 304.643L268.878 304.68L269.442 303.428L270.174 304.68H271.301C271.43 304.679 271.558 304.652 271.675 304.599C271.793 304.547 271.898 304.47 271.985 304.374C272.071 304.278 272.136 304.165 272.176 304.043C272.216 303.92 272.229 303.791 272.216 303.662L271.521 296.943Z" fill="#263238" />
    <path d="M272.245 297.924C272.07 297.924 259.604 297.528 259.604 297.528L258.396 293.041L272.209 293.348L272.245 297.924Z" fill="#295CD4" />
    <path d="M236.663 112.94C236.663 112.94 233.962 117.749 237.066 121.651C234.606 121.651 232.996 124.315 232.996 124.315C232.996 124.315 229.724 117.727 234.562 113.335C234.899 112.837 236.663 112.94 236.663 112.94Z" fill="#295CD4" />
    <path d="M259.37 170.322C246.508 170.856 231.759 171.017 222.535 170.322C222.485 170.32 222.436 170.306 222.391 170.282C222.347 170.258 222.308 170.224 222.279 170.183C221.674 169.158 221.396 167.973 221.481 166.786C221.489 166.699 221.529 166.617 221.595 166.559C221.66 166.5 221.745 166.469 221.833 166.471C234.006 166.801 246.106 166.786 258.828 166.471C258.898 166.47 258.966 166.489 259.025 166.527C259.084 166.565 259.13 166.619 259.157 166.684C259.583 167.737 259.768 168.873 259.699 170.007C259.694 170.091 259.657 170.17 259.596 170.228C259.535 170.287 259.454 170.32 259.37 170.322Z" fill="#263238" />
    <path opacity="0.2" d="M259.37 170.322C246.508 170.856 231.759 171.017 222.535 170.322C222.485 170.32 222.436 170.306 222.391 170.282C222.347 170.258 222.308 170.224 222.279 170.183C221.674 169.158 221.396 167.973 221.481 166.786C221.489 166.699 221.529 166.617 221.595 166.559C221.66 166.5 221.745 166.469 221.833 166.471C234.006 166.801 246.106 166.786 258.828 166.471C258.898 166.47 258.966 166.489 259.025 166.527C259.084 166.565 259.13 166.619 259.157 166.684C259.583 167.737 259.768 168.873 259.699 170.007C259.694 170.091 259.657 170.17 259.596 170.228C259.535 170.287 259.454 170.32 259.37 170.322Z" fill="black" />
    <path d="M234.24 166.266C234.088 167.884 234.219 169.517 234.628 171.09C237.417 171.522 243.141 171.2 243.141 171.2C243.224 169.578 243.165 167.951 242.966 166.339C238.574 166.164 234.24 166.266 234.24 166.266Z" fill="white" />
    <path d="M259.955 122.039L260.372 122.412L260.702 122.72L261.324 123.32C261.727 123.715 262.093 124.111 262.466 124.513C263.198 125.311 263.893 126.138 264.552 126.973C265.868 128.625 267.09 130.351 268.212 132.141C270.398 135.677 272.243 139.412 273.724 143.296C273.922 143.816 274.075 144.131 274.354 145.016C274.574 145.733 274.731 146.468 274.822 147.212C274.957 148.515 274.94 149.83 274.771 151.129C274.456 153.367 273.866 155.557 273.014 157.651C272.235 159.594 271.32 161.48 270.276 163.295C269.254 165.078 268.112 166.79 266.858 168.419C266.485 168.897 265.955 169.227 265.361 169.351C264.768 169.475 264.15 169.384 263.617 169.096C263.084 168.807 262.67 168.338 262.45 167.773C262.23 167.208 262.218 166.584 262.415 166.01L262.459 165.886C263.728 162.449 264.763 158.93 265.555 155.352C265.914 153.754 266.101 152.122 266.111 150.485C266.113 149.85 266.034 149.218 265.877 148.603C265.697 148.046 265.452 147.513 265.145 147.015C263.531 143.779 261.699 140.655 259.662 137.667C258.66 136.203 257.591 134.739 256.493 133.407C255.944 132.719 255.373 132.067 254.809 131.423L253.96 130.494L253.55 130.062L253.36 129.864L253.236 129.747C252.209 128.855 251.58 127.592 251.485 126.235C251.39 124.879 251.838 123.541 252.73 122.515C253.622 121.489 254.886 120.859 256.242 120.764C257.598 120.67 258.937 121.118 259.963 122.01L259.955 122.039Z" fill="#FF8B7B" />
    <path d="M253.645 115.7C259.348 116.688 265.028 123.481 268.417 129.791C266.08 133.735 262.579 136.86 258.396 138.736C258.396 138.736 251.706 132.221 249.034 127.448C246.362 122.676 248.28 114.77 253.645 115.7Z" fill="#295CD4" />
    <path d="M268.22 128.349C268.738 128.959 269.143 129.659 269.413 130.413C267.949 132.609 264.479 138.414 258.133 139.548C257.525 139.194 257.065 138.633 256.837 137.967C256.837 137.967 264.164 134.483 268.22 128.349Z" fill="#263238" />
    <path d="M249.517 115.187C248.339 114.682 248.785 114.016 248.785 114.016C248.785 114.016 254.209 114.206 257.921 115.385C258.47 116.036 257.825 116.849 257.825 116.849C257.825 116.849 253.016 116.688 249.517 115.187Z" fill="#263238" />
    <path opacity="0.2" d="M248.097 113.87C248.097 113.87 246.867 118.159 241.245 121.658C243.705 121.658 245.352 126.145 245.352 126.145C245.352 126.145 250.476 120.128 249.29 114.192C248.946 113.665 248.097 113.87 248.097 113.87Z" fill="black" />
    <path d="M247.936 113.094C247.936 113.094 246.472 117.735 241.245 121.658C243.705 121.658 245.41 124.315 245.41 124.315C245.41 124.315 250.446 120.128 249.29 114.192C248.907 113.748 248.448 113.377 247.936 113.094Z" fill="#295CD4" />
    <path d="M253.206 130.713C252.87 137.037 248.865 138.545 248.302 138.545C247.738 138.545 243.91 137.037 244.247 130.713L248.822 128.912L253.206 130.713Z" fill="white" />
    <path d="M263.059 165.505L258.55 169.384L264.53 173.271C264.53 173.271 268.19 169.26 266.375 166.976L263.059 165.505Z" fill="#FF8B7B" />
    <path d="M258.045 175.54L260.365 176.543C260.813 176.738 261.315 176.768 261.783 176.627C262.251 176.486 262.654 176.184 262.92 175.775L264.53 173.271L258.55 169.384L256.991 172.788C256.876 173.038 256.813 173.307 256.804 173.582C256.796 173.856 256.842 174.129 256.94 174.386C257.038 174.642 257.186 174.876 257.376 175.074C257.566 175.273 257.793 175.431 258.045 175.54Z" fill="#FF8B7B" />
    <path d="M232.556 87.2027C228.538 87.7517 229.884 89.0254 238.844 90.1673C247.804 91.3093 250.051 90.4089 250.051 90.4089C250.051 90.4089 239.759 87.1808 232.556 87.2027Z" fill="#263238" />
    <path d="M252.825 92.1513C252.825 92.1513 244.956 88.9524 232.556 87.203C232.403 85.3803 233.903 83.4478 233.903 83.4478C233.903 83.4478 231.136 82.0643 231.993 79.4218C232.849 76.7793 236.809 77.1233 241.428 75.0298C243.119 76.8891 247.767 79.9122 250.944 80.3002C251.727 81.9179 253.777 85.9659 257.1 87.525C257.049 89.2892 253.748 89.721 253.748 89.721C253.763 90.167 253.689 90.6115 253.53 91.0287C253.372 91.4459 253.132 91.8275 252.825 92.1513Z" fill="#295CD4" />
    <path opacity="0.3" d="M253.741 89.7208C250.864 87.1075 240.645 82.3349 233.903 83.4475C233.903 83.4475 232.403 85.3873 232.556 87.2027C244.957 88.9522 252.826 92.151 252.826 92.151C253.131 91.8267 253.37 91.4448 253.527 91.0277C253.684 90.6105 253.756 90.1663 253.741 89.7208Z" fill="black" />
    <path d="M242.614 80.4029C241.728 84.912 238.654 85.7245 238.222 85.6806C237.79 85.6367 235.155 84.3045 236.026 79.8246L239.561 78.8438L242.614 80.4029Z" fill="white" />
    <path d="M184.281 154.291C183.834 154.291 183.402 154.127 183.068 153.83C182.734 153.533 182.519 153.124 182.466 152.68L177.239 110.085C177.18 109.6 177.316 109.111 177.617 108.726C177.919 108.341 178.361 108.091 178.846 108.032C179.331 107.973 179.82 108.109 180.205 108.41C180.59 108.712 180.84 109.154 180.899 109.639L186.096 152.256C186.127 152.494 186.11 152.737 186.047 152.969C185.984 153.201 185.875 153.418 185.727 153.608C185.58 153.798 185.396 153.956 185.187 154.075C184.977 154.193 184.747 154.269 184.508 154.298L184.281 154.291Z" fill="#263238" />
    <path d="M183.117 135.127C182.671 133.487 183.513 133.246 182.7 130.918C182.268 129.681 183.688 128.722 183.864 129.718C184.523 133.341 189.332 135.369 187.663 137.66C185.994 139.951 183.556 136.767 183.117 135.127Z" fill="#FF8B7B" />
    <path d="M215.742 73.7752C217.177 50.8939 199.792 31.1812 176.911 29.7456C154.029 28.3101 134.317 45.6953 132.881 68.5766C131.445 91.4579 148.831 111.171 171.712 112.606C194.593 114.042 214.306 96.6565 215.742 73.7752Z" fill="#295CD4" />
    <path d="M205.902 82.3648C212.086 64.9122 202.95 45.7512 185.498 39.5675C168.045 33.3838 148.884 42.519 142.7 59.9716C136.517 77.4242 145.652 96.5852 163.105 102.769C180.557 108.953 199.718 99.8173 205.902 82.3648Z" fill="white" />
    <path d="M196.081 65.5065C193.329 61.7879 188.029 65.5065 186.44 69.4153C186.009 70.3851 185.725 71.414 185.599 72.4678L183.849 60.5289L182.466 49.2121C182.32 48.241 181.801 47.3651 181.019 46.7708C180.237 46.1765 179.255 45.9107 178.28 46.0299C177.305 46.1491 176.415 46.644 175.8 47.4092C175.185 48.1744 174.892 49.1495 174.985 50.1271L174.641 47.3089C174.58 46.8182 174.423 46.3442 174.18 45.914C173.936 45.4838 173.61 45.1058 173.22 44.8016C172.83 44.4975 172.384 44.273 171.908 44.1412C171.431 44.0094 170.933 43.9727 170.443 44.0332C169.952 44.0938 169.478 44.2504 169.048 44.4942C168.617 44.7379 168.239 45.064 167.935 45.4538C167.631 45.8436 167.407 46.2896 167.275 46.7661C167.143 47.2427 167.106 47.7405 167.167 48.2313L167.65 52.1548C167.584 51.6237 167.406 51.1127 167.128 50.6558C166.85 50.1988 166.477 49.8063 166.036 49.5044C165.594 49.2025 165.093 48.9981 164.566 48.9048C164.039 48.8115 163.498 48.8314 162.98 48.9633C162.092 49.1911 161.317 49.7341 160.8 50.491C160.283 51.2479 160.058 52.1671 160.169 53.0771L160.769 57.9742C160.705 57.4426 160.528 56.931 160.25 56.4734C159.971 56.0158 159.599 55.6228 159.157 55.3207C158.715 55.0186 158.213 54.8143 157.686 54.7215C157.159 54.6288 156.618 54.6496 156.099 54.7827C155.212 55.009 154.438 55.5509 153.922 56.3068C153.406 57.0627 153.183 57.9808 153.295 58.8892L154.496 68.676L155.352 75.6959L156.487 84.9118C157.292 91.4998 159.861 95.2183 163.675 96.8946C169.531 99.4639 180.255 99.4932 185.072 95.5844C189.288 92.1659 191.996 83.9309 192.648 78.8289C193.299 73.7268 197.201 67.0071 196.081 65.5065Z" fill="#263238" />
    <path d="M202.408 42.2683L195.573 36.9268L146.201 100.098L153.035 105.439L202.408 42.2683Z" fill="#295CD4" />
    <path d="M58.8823 131.818V118.496H68.5228V120.048H60.6464V124.132H68.0177V125.699H60.6464V130.23H68.8082V131.804L58.8823 131.818Z" fill="#263238" />
    <path d="M71.0405 131.819V122.163H72.5045V123.627C72.7512 123.108 73.1055 122.646 73.544 122.273C73.8499 122.057 74.216 121.942 74.5907 121.944C75.1909 121.96 75.7744 122.146 76.2743 122.478L75.7107 123.993C75.3499 123.769 74.9349 123.648 74.5102 123.642C74.1631 123.636 73.8246 123.75 73.5513 123.964C73.2573 124.19 73.0421 124.502 72.9364 124.857C72.7522 125.477 72.6609 126.121 72.6656 126.768V131.819H71.0405Z" fill="#263238" />
    <path d="M77.2407 131.819V122.163H78.7047V123.627C78.9606 123.093 79.3304 122.621 79.7881 122.244C80.0945 122.028 80.4602 121.913 80.8349 121.915C81.4351 121.931 82.0185 122.116 82.5185 122.449L81.9548 123.964C81.5941 123.74 81.179 123.619 80.7543 123.613C80.4072 123.607 80.0687 123.721 79.7954 123.935C79.5014 124.16 79.2862 124.473 79.1805 124.828C78.9963 125.448 78.9051 126.092 78.9097 126.738V131.789L77.2407 131.819Z" fill="#263238" />
    <path d="M82.8476 126.995C82.8476 125.209 83.3356 123.884 84.3116 123.02C85.1531 122.298 86.2333 121.914 87.3421 121.944C87.9465 121.923 88.5486 122.028 89.1097 122.254C89.6708 122.48 90.1783 122.82 90.5995 123.254C91.0375 123.742 91.3749 124.311 91.5922 124.929C91.8096 125.547 91.9025 126.202 91.8658 126.856C91.9112 127.863 91.7181 128.866 91.3022 129.784C90.9388 130.486 90.3726 131.062 89.6772 131.438C88.9633 131.835 88.1587 132.039 87.3421 132.031C86.7365 132.056 86.1324 131.953 85.5689 131.73C85.0053 131.507 84.4948 131.168 84.07 130.735C83.188 129.697 82.7491 128.354 82.8476 126.995ZM84.5312 126.995C84.4568 127.986 84.7427 128.972 85.3364 129.769C85.5899 130.058 85.9023 130.29 86.2526 130.449C86.6029 130.608 86.9831 130.69 87.3677 130.69C87.7523 130.69 88.1325 130.608 88.4828 130.449C88.8331 130.29 89.1455 130.058 89.399 129.769C90.0012 128.953 90.2896 127.948 90.2115 126.936C90.2811 125.965 89.9921 125.001 89.399 124.228C89.1448 123.94 88.8323 123.709 88.482 123.551C88.1318 123.393 87.752 123.311 87.3677 123.311C86.9835 123.311 86.6036 123.393 86.2534 123.551C85.9031 123.709 85.5906 123.94 85.3364 124.228C84.7444 125.024 84.4586 126.006 84.5312 126.995Z" fill="#263238" />
    <path d="M93.791 131.819V122.163H95.255V123.627C95.4991 123.106 95.8538 122.644 96.2945 122.273C96.6004 122.057 96.9664 121.942 97.3412 121.944C97.9414 121.96 98.5249 122.146 99.0248 122.478L98.4612 123.993C98.1 123.77 97.6852 123.649 97.2607 123.642C96.9114 123.637 96.5706 123.75 96.2945 123.964C96.0028 124.19 95.7902 124.503 95.6869 124.857C95.4992 125.476 95.4079 126.121 95.4161 126.768V131.819H93.791Z" fill="#263238" />
    <path d="M64.965 148.369V146.949C64.6387 147.464 64.185 147.887 63.6477 148.175C63.1103 148.464 62.5076 148.609 61.8979 148.596C61.351 148.6 60.8096 148.488 60.3094 148.266C59.8752 148.095 59.4939 147.812 59.2041 147.447C58.9565 147.079 58.7847 146.666 58.699 146.232C58.6215 145.725 58.5897 145.213 58.6039 144.702V138.714H60.2362V144.065C60.2179 144.643 60.2522 145.221 60.3387 145.792C60.427 146.199 60.6581 146.56 60.9902 146.81C61.3529 147.061 61.7864 147.189 62.2273 147.176C62.7135 147.177 63.1912 147.048 63.6108 146.802C64.0207 146.568 64.3423 146.205 64.5258 145.77C64.7279 145.165 64.8173 144.527 64.7893 143.889V138.714H66.429V148.369H64.965Z" fill="#263238" />
    <path d="M68.9912 148.369V138.714H70.4552V140.083C70.7849 139.573 71.242 139.159 71.7813 138.88C72.3205 138.601 72.9232 138.468 73.5296 138.494C74.0801 138.486 74.6262 138.593 75.1327 138.809C75.5665 138.977 75.9462 139.261 76.2307 139.629C76.4811 139.996 76.6554 140.409 76.7431 140.844C76.8162 141.37 76.8456 141.902 76.8309 142.433V148.369H75.1986V142.513C75.2181 142.017 75.1513 141.522 75.0009 141.049C74.8729 140.717 74.6353 140.438 74.3275 140.259C73.9818 140.056 73.5861 139.954 73.1856 139.966C72.5222 139.955 71.8782 140.189 71.3775 140.625C70.8724 141.071 70.6455 141.913 70.6455 143.15V148.42L68.9912 148.369Z" fill="#263238" />
    <path d="M85.6442 147.176C85.1261 147.638 84.5317 148.007 83.8874 148.266C83.312 148.483 82.7016 148.593 82.0867 148.588C81.202 148.646 80.3284 148.366 79.6418 147.805C79.3624 147.558 79.1408 147.251 78.9928 146.909C78.8448 146.566 78.774 146.195 78.7854 145.822C78.7811 145.382 78.8858 144.947 79.0902 144.558C79.2946 144.168 79.5922 143.835 79.9566 143.589C80.3161 143.343 80.7145 143.16 81.1351 143.047C81.6181 142.939 82.1069 142.858 82.5991 142.806C83.5913 142.715 84.5721 142.526 85.5271 142.242C85.5271 142.015 85.5271 141.876 85.5271 141.81C85.5541 141.557 85.527 141.3 85.4475 141.058C85.368 140.816 85.2379 140.593 85.0659 140.405C84.5336 139.995 83.8688 139.797 83.1993 139.848C82.603 139.805 82.0078 139.946 81.4938 140.251C81.061 140.63 80.7737 141.147 80.6812 141.715L79.0855 141.495C79.1935 140.893 79.4446 140.326 79.8175 139.841C80.2012 139.382 80.7097 139.044 81.2815 138.867C81.9881 138.627 82.7311 138.51 83.4775 138.523C84.1606 138.5 84.8424 138.599 85.4905 138.816C85.926 138.957 86.3171 139.21 86.6251 139.548C86.8831 139.872 87.0589 140.254 87.1375 140.661C87.2036 141.161 87.2305 141.665 87.218 142.169V144.365C87.1933 145.342 87.2276 146.32 87.3205 147.293C87.3957 147.698 87.5366 148.089 87.7377 148.449H86.0248C85.8164 148.054 85.6871 147.621 85.6442 147.176ZM85.5051 143.516C84.6409 143.822 83.7445 144.028 82.8333 144.131C82.3339 144.181 81.8424 144.292 81.3693 144.46C81.1056 144.569 80.881 144.755 80.7252 144.994C80.5735 145.224 80.4945 145.495 80.4982 145.77C80.4942 145.977 80.5362 146.182 80.621 146.371C80.7058 146.559 80.8314 146.727 80.9887 146.861C81.4049 147.185 81.927 147.341 82.4527 147.3C83.0407 147.311 83.6213 147.167 84.1363 146.883C84.6069 146.627 84.9856 146.23 85.2196 145.748C85.4222 145.229 85.5121 144.673 85.4832 144.116L85.5051 143.516Z" fill="#263238" />
    <path d="M96.0311 148.369V146.949C95.7049 147.464 95.2511 147.887 94.7138 148.175C94.1765 148.464 93.5738 148.609 92.964 148.596C92.4149 148.599 91.8712 148.487 91.3683 148.266C90.9372 148.093 90.5588 147.811 90.2703 147.447C90.0166 147.083 89.8443 146.668 89.7652 146.232C89.6844 145.726 89.6501 145.214 89.6627 144.702V138.714H91.3024V144.065C91.284 144.643 91.3183 145.221 91.4049 145.792C91.4931 146.199 91.7243 146.56 92.0564 146.81C92.419 147.061 92.8526 147.189 93.2934 147.176C93.7796 147.177 94.2573 147.048 94.6769 146.802C95.0869 146.568 95.4084 146.205 95.5919 145.77C95.7941 145.165 95.8834 144.527 95.8554 143.889V138.714H97.4951V148.369H96.0311Z" fill="#263238" />
    <path d="M103.629 146.905L103.871 148.369C103.465 148.462 103.05 148.511 102.634 148.515C102.157 148.54 101.681 148.444 101.25 148.237C100.947 148.073 100.703 147.817 100.555 147.505C100.383 146.879 100.316 146.228 100.357 145.58V140.024H99.1567V138.714H100.357V136.32L101.982 135.339V138.714H103.629V139.988H101.982V145.668C101.962 145.971 101.992 146.275 102.07 146.568C102.128 146.702 102.228 146.812 102.356 146.883C102.526 146.974 102.719 147.017 102.912 147.007C103.153 146.99 103.393 146.956 103.629 146.905Z" fill="#263238" />
    <path d="M105.232 148.369V135.039H106.872V139.812C107.223 139.388 107.666 139.048 108.166 138.819C108.667 138.589 109.213 138.476 109.764 138.487C110.411 138.47 111.053 138.616 111.63 138.911C112.126 139.164 112.525 139.573 112.765 140.075C113.027 140.776 113.142 141.524 113.101 142.271V148.391H111.469V142.271C111.524 141.63 111.333 140.991 110.935 140.485C110.736 140.292 110.499 140.143 110.24 140.047C109.98 139.952 109.703 139.911 109.427 139.929C108.945 139.929 108.473 140.058 108.058 140.302C107.651 140.534 107.331 140.894 107.15 141.327C106.943 141.896 106.848 142.5 106.872 143.106V148.391L105.232 148.369Z" fill="#263238" />
    <path d="M114.975 143.538C114.975 141.752 115.463 140.43 116.439 139.571C117.283 138.848 118.366 138.464 119.477 138.495C120.086 138.472 120.692 138.578 121.257 138.805C121.822 139.032 122.333 139.375 122.757 139.812C123.196 140.3 123.533 140.871 123.751 141.49C123.968 142.109 124.061 142.766 124.023 143.421C124.068 144.427 123.877 145.43 123.467 146.349C123.103 147.055 122.534 147.635 121.834 148.011C121.123 148.406 120.321 148.611 119.506 148.604C118.899 148.629 118.293 148.526 117.728 148.302C117.163 148.077 116.651 147.736 116.227 147.301C115.328 146.262 114.878 144.908 114.975 143.538ZM116.659 143.538C116.585 144.532 116.871 145.519 117.464 146.32C117.715 146.616 118.028 146.852 118.381 147.012C118.734 147.171 119.119 147.25 119.506 147.242C119.893 147.249 120.275 147.17 120.626 147.009C120.978 146.848 121.288 146.61 121.534 146.312C122.132 145.497 122.418 144.495 122.339 143.487C122.409 142.513 122.12 141.547 121.527 140.771C121.273 140.482 120.961 140.25 120.611 140.091C120.26 139.933 119.88 139.85 119.496 139.85C119.111 139.85 118.731 139.933 118.38 140.091C118.03 140.25 117.718 140.482 117.464 140.771C116.869 141.565 116.583 142.549 116.659 143.538Z" fill="#263238" />
    <path d="M125.904 148.369V138.714H127.368V140.178C127.61 139.655 127.965 139.193 128.407 138.824C128.713 138.607 129.079 138.492 129.454 138.494C130.054 138.508 130.637 138.691 131.138 139.021L130.574 140.544C130.215 140.315 129.799 140.19 129.373 140.185C129.027 140.182 128.689 140.295 128.415 140.507C128.122 140.734 127.908 141.046 127.8 141.4C127.616 142.02 127.525 142.664 127.529 143.311V148.369H125.904Z" fill="#263238" />
    <path d="M132.148 136.92V135.039H133.788V136.92H132.148ZM132.148 148.369V138.714H133.788V148.369H132.148Z" fill="#263238" />
    <path d="M135.42 148.369V147.044L141.569 139.988C140.837 139.988 140.251 140.039 139.724 140.039H135.786V138.714H143.677V139.812L138.45 145.939L137.44 147.059C138.172 147 138.86 146.971 139.504 146.971H143.97V148.384L135.42 148.369Z" fill="#263238" />
    <path d="M152.197 145.258L153.888 145.47C153.673 146.38 153.157 147.19 152.424 147.769C151.62 148.339 150.65 148.628 149.665 148.589C149.044 148.621 148.423 148.52 147.844 148.294C147.265 148.069 146.74 147.722 146.305 147.279C145.424 146.27 144.977 144.955 145.06 143.619C144.976 142.242 145.427 140.886 146.319 139.834C146.732 139.389 147.237 139.039 147.797 138.806C148.358 138.574 148.963 138.465 149.569 138.487C150.161 138.467 150.751 138.574 151.297 138.802C151.844 139.029 152.336 139.371 152.739 139.805C153.608 140.839 154.045 142.168 153.961 143.516C153.961 143.611 153.961 143.758 153.961 143.955H146.759C146.761 144.846 147.08 145.708 147.659 146.385C147.917 146.661 148.231 146.878 148.579 147.025C148.927 147.171 149.302 147.243 149.679 147.235C150.23 147.249 150.77 147.082 151.216 146.759C151.682 146.364 152.023 145.843 152.197 145.258ZM146.824 142.616H152.212C152.194 141.958 151.98 141.321 151.597 140.786C151.355 140.482 151.046 140.239 150.694 140.075C150.342 139.911 149.957 139.831 149.569 139.841C149.22 139.829 148.873 139.888 148.547 140.014C148.221 140.14 147.924 140.33 147.674 140.573C147.139 141.12 146.835 141.851 146.824 142.616Z" fill="#263238" />
    <path d="M162.204 148.369V147.132C161.928 147.597 161.531 147.979 161.055 148.237C160.58 148.494 160.043 148.618 159.503 148.596C158.748 148.599 158.008 148.377 157.38 147.959C156.723 147.518 156.203 146.902 155.879 146.18C155.514 145.356 155.335 144.461 155.352 143.56C155.34 142.66 155.504 141.768 155.835 140.932C156.12 140.191 156.633 139.561 157.299 139.131C157.939 138.714 158.688 138.495 159.451 138.501C159.993 138.492 160.529 138.618 161.011 138.867C161.445 139.102 161.823 139.429 162.116 139.826V135.046H163.748V148.376L162.204 148.369ZM157.036 143.552C156.959 144.537 157.234 145.518 157.812 146.319C158.03 146.602 158.309 146.832 158.629 146.991C158.948 147.151 159.299 147.237 159.656 147.241C160.007 147.243 160.353 147.165 160.669 147.013C160.985 146.861 161.262 146.638 161.479 146.363C162.034 145.585 162.293 144.636 162.211 143.684C162.307 142.653 162.049 141.62 161.479 140.756C161.259 140.466 160.974 140.231 160.648 140.069C160.322 139.908 159.962 139.825 159.598 139.826C159.245 139.823 158.897 139.902 158.581 140.057C158.264 140.212 157.988 140.439 157.775 140.719C157.212 141.551 156.951 142.551 157.036 143.552Z" fill="#263238" />
</svg>
