<svg width="406" height="406" viewBox="0 0 406 406" fill="none" xmlns="http://www.w3.org/2000/svg">
    <path d="M406 310.509H0V310.712H406V310.509Z" fill="#EBEBEB" />
    <path d="M69.4911 318.239H42.5977V318.442H69.4911V318.239Z" fill="#EBEBEB" />
    <path d="M146.022 316.039H118.008V316.242H146.022V316.039Z" fill="#EBEBEB" />
    <path d="M106.778 322.161H61.7769V322.364H106.778V322.161Z" fill="#EBEBEB" />
    <path d="M364.45 322.908H329.38V323.111H364.45V322.908Z" fill="#EBEBEB" />
    <path d="M319.384 317.833H300.789V318.036H319.384V317.833Z" fill="#EBEBEB" />
    <path d="M234.92 321.089H158.852V321.292H234.92V321.089Z" fill="#EBEBEB" />
    <path d="M192.444 274.294H35.6548C34.4265 274.291 33.2493 273.802 32.3815 272.933C31.5137 272.063 31.0264 270.885 31.0264 269.657V49.2558C31.0371 48.0346 31.5292 46.8669 32.3958 46.0064C33.2624 45.1459 34.4335 44.662 35.6548 44.6599H192.444C193.674 44.6599 194.853 45.1484 195.722 46.0179C196.592 46.8874 197.08 48.0668 197.08 49.2964V269.657C197.08 270.887 196.592 272.066 195.722 272.936C194.853 273.805 193.674 274.294 192.444 274.294ZM35.6548 44.8223C34.4803 44.8245 33.3547 45.2925 32.525 46.1237C31.6954 46.9549 31.2294 48.0814 31.2294 49.2558V269.657C31.2294 270.831 31.6954 271.958 32.525 272.789C33.3547 273.62 34.4803 274.088 35.6548 274.091H192.444C193.619 274.088 194.745 273.621 195.576 272.79C196.407 271.959 196.875 270.832 196.877 269.657V49.2558C196.875 48.0806 196.407 46.9542 195.576 46.1232C194.745 45.2922 193.619 44.8245 192.444 44.8223H35.6548Z" fill="#EBEBEB" />
    <path d="M368.088 274.294H211.29C210.061 274.291 208.883 273.802 208.014 272.933C207.145 272.064 206.656 270.886 206.654 269.657V49.2558C206.667 48.0339 207.161 46.8662 208.028 46.0059C208.896 45.1456 210.068 44.662 211.29 44.6599H368.088C369.307 44.6641 370.476 45.1489 371.341 46.0092C372.206 46.8695 372.697 48.036 372.708 49.2558V269.657C372.708 270.884 372.222 272.061 371.356 272.93C370.49 273.799 369.314 274.289 368.088 274.294ZM211.29 44.8223C210.115 44.8245 208.989 45.2922 208.158 46.1232C207.327 46.9542 206.859 48.0806 206.857 49.2558V269.657C206.859 270.832 207.327 271.959 208.158 272.79C208.989 273.621 210.115 274.088 211.29 274.091H368.088C369.263 274.088 370.389 273.621 371.22 272.79C372.051 271.959 372.519 270.832 372.521 269.657V49.2558C372.519 48.0806 372.051 46.9542 371.22 46.1232C370.389 45.2922 369.263 44.8245 368.088 44.8223H211.29Z" fill="#EBEBEB" />
    <path d="M164.625 307.992H120.663V310.509H164.625V307.992Z" fill="#E0E0E0" />
    <path d="M138.69 253.011L126.51 307.991H158.706L146.526 253.011C146.292 252.151 145.782 251.392 145.074 250.85C144.365 250.309 143.499 250.016 142.608 250.016C141.716 250.016 140.85 250.309 140.142 250.85C139.434 251.392 138.923 252.151 138.69 253.011Z" fill="#E0E0E0" />
    <path d="M149.01 263.924H136.278L133.201 277.858H152.088L149.01 263.924Z" fill="#F5F5F5" />
    <path d="M152.623 280.311H132.664L131.097 287.367H154.182L152.623 280.311Z" fill="#F5F5F5" />
    <path d="M58.8862 310.509H65.4147L84.6429 203H78.1063L58.8862 310.509Z" fill="#E0E0E0" />
    <path d="M229.918 310.509H236.455L255.683 203H249.146L229.918 310.509Z" fill="#E0E0E0" />
    <path d="M274.911 208.237H58.8862V247.311H274.911V208.237Z" fill="#EBEBEB" />
    <path d="M82.3041 245.581H59.9092L72.3328 209.959H94.7277L82.3041 245.581Z" fill="#FAFAFA" />
    <path d="M127.094 245.581H104.699L117.123 209.959H139.51L127.094 245.581Z" fill="#FAFAFA" />
    <path d="M171.884 245.581H149.489L161.905 209.959H184.3L171.884 245.581Z" fill="#FAFAFA" />
    <path d="M216.666 245.581H194.271L206.695 209.959H229.09L216.666 245.581Z" fill="#FAFAFA" />
    <path d="M261.456 245.581H239.061L251.485 209.959H273.88L261.456 245.581Z" fill="#FAFAFA" />
    <path d="M103.871 310.509H97.3346L78.1064 203H84.643L103.871 310.509Z" fill="#E0E0E0" />
    <path d="M274.903 310.509H268.374L249.146 203H255.683L274.903 310.509Z" fill="#E0E0E0" />
    <path d="M362.964 307.204H305.312V310.509H362.964V307.204Z" fill="#E0E0E0" />
    <path d="M328.576 236.82L313.026 307.204H355.25L339.7 236.82C338.385 230.868 329.891 230.868 328.576 236.82Z" fill="#E0E0E0" />
    <path d="M342.485 249.422H325.791L321.755 267.692H346.521L342.485 249.422Z" fill="#F5F5F5" />
    <path d="M347.228 270.908H321.049L319.002 280.156H349.274L347.228 270.908Z" fill="#F5F5F5" />
    <path d="M375.956 196.423V220.214C375.955 220.585 375.867 220.95 375.699 221.28C375.532 221.61 375.288 221.896 374.99 222.115C374.691 222.334 374.345 222.479 373.98 222.54C373.614 222.6 373.24 222.574 372.887 222.464L29.4106 113.615C28.938 113.461 28.5264 113.161 28.2346 112.758C27.9429 112.356 27.7861 111.871 27.7866 111.374V87.5742C27.7853 87.2033 27.8719 86.8375 28.0392 86.5066C28.2066 86.1757 28.45 85.8891 28.7495 85.6704C29.049 85.4518 29.396 85.3072 29.7622 85.2485C30.1283 85.1899 30.5032 85.2188 30.856 85.333L374.332 194.141C374.811 194.297 375.228 194.604 375.52 195.014C375.812 195.425 375.965 195.919 375.956 196.423Z" fill="#EBEBEB" />
    <path d="M348.924 213.053L367.836 219.045L357.345 190.617L338.441 184.625L348.924 213.053Z" fill="#FAFAFA" />
    <path d="M311.11 201.067L330.021 207.06L319.53 178.632L300.627 172.639L311.11 201.067Z" fill="#FAFAFA" />
    <path d="M273.295 189.091L292.206 195.075L281.715 166.647L262.804 160.654L273.295 189.091Z" fill="#FAFAFA" />
    <path d="M235.48 177.097L254.391 183.098L243.9 154.662L224.989 148.669L235.48 177.097Z" fill="#FAFAFA" />
    <path d="M197.665 165.12L216.569 171.113L206.086 142.676L187.174 136.684L197.665 165.12Z" fill="#FAFAFA" />
    <path d="M159.85 153.135L178.754 159.128L168.271 130.691L149.359 124.699L159.85 153.135Z" fill="#FAFAFA" />
    <path d="M122.027 141.15L140.939 147.142L130.448 118.706L111.544 112.714L122.027 141.15Z" fill="#FAFAFA" />
    <path d="M84.2124 129.165L103.124 135.157L92.6329 106.721L73.7295 100.729L84.2124 129.165Z" fill="#FAFAFA" />
    <path d="M46.3975 117.18L65.309 123.172L54.8179 94.736L35.9146 88.7434L46.3975 117.18Z" fill="#FAFAFA" />
    <path d="M203 347.179C289.951 347.179 360.439 343.063 360.439 337.987C360.439 332.91 289.951 328.795 203 328.795C116.049 328.795 45.5615 332.91 45.5615 337.987C45.5615 343.063 116.049 347.179 203 347.179Z" fill="#F5F5F5" />
    <path d="M265.094 330.947H255.731V48.8175C255.731 47.2991 265.094 47.2991 265.094 48.8175V330.947Z" fill="#263238" />
    <path d="M265.094 154.767L255.731 156.651V143.7H265.094V154.767Z" fill="black" />
    <path d="M329.891 58.2834L198.515 48.5205C193.148 48.1216 188.474 52.1489 188.075 57.5155L182.593 131.293C182.194 136.66 186.221 141.334 191.588 141.733L322.964 151.496C328.331 151.895 333.005 147.867 333.404 142.501L338.886 68.7227C339.285 63.3561 335.258 58.6822 329.891 58.2834Z" fill="white" />
    <path d="M323.687 152.762C323.42 152.762 323.143 152.762 322.875 152.762L191.494 143.018C188.599 142.793 185.91 141.433 184.014 139.233C182.119 137.033 181.17 134.173 181.376 131.276L186.865 57.4978C187.088 54.6011 188.447 51.9102 190.648 50.0129C192.848 48.1156 195.709 47.1662 198.607 47.3722L329.989 57.1162C332.884 57.3405 335.573 58.701 337.468 60.9009C339.364 63.1007 340.312 65.9611 340.106 68.8577L334.617 142.636C334.407 145.391 333.166 147.966 331.142 149.847C329.118 151.728 326.459 152.778 323.696 152.786L323.687 152.762ZM197.779 49.727C195.625 49.7355 193.554 50.5564 191.979 52.0257C190.405 53.4949 189.443 55.5042 189.285 57.6521L183.796 131.43C183.639 133.674 184.374 135.889 185.842 137.593C187.309 139.298 189.39 140.354 191.632 140.533L323.014 150.277C325.267 150.438 327.492 149.701 329.204 148.227C330.915 146.753 331.974 144.661 332.148 142.409L337.638 68.6303C337.803 66.3761 337.068 64.1482 335.593 62.4356C334.117 60.7231 332.023 59.6656 329.769 59.4953L198.388 49.7513C198.209 49.7351 197.99 49.727 197.779 49.727Z" fill="#295CD4" />
    <path d="M233.401 87.7366L216.901 86.5024L217.454 79.0564L235.415 60.6646L243.316 61.2492L241.822 81.2894L245.882 81.5979L245.362 88.6217L241.302 88.3213L240.847 94.4194L232.955 93.8266L233.401 87.7366ZM233.929 80.7047L234.668 70.441L225.208 80.0551L233.929 80.7047Z" fill="#295CD4" />
    <path d="M248.991 78.4961C249.457 72.2924 250.908 68.0511 253.344 65.7721C255.78 63.4931 259.271 62.5051 263.818 62.8083C265.661 62.8912 267.473 63.3037 269.17 64.0263C270.414 64.5874 271.533 65.3938 272.458 66.3973C273.232 67.2611 273.872 68.2354 274.358 69.288C274.797 70.3813 275.103 71.5237 275.268 72.6903C275.699 75.224 275.817 77.8013 275.617 80.3637C275.167 86.2859 273.844 90.5408 271.646 93.1284C269.448 95.7159 265.897 96.8311 260.993 96.4738C258.697 96.3992 256.451 95.7814 254.44 94.6712C252.801 93.6556 251.464 92.2202 250.567 90.5137C249.772 88.9286 249.273 87.2113 249.097 85.4468C248.822 83.1398 248.787 80.8105 248.991 78.4961ZM257.972 79.1782C257.663 83.3356 257.82 86.202 258.443 87.7773C259.06 89.3444 260.067 90.2133 261.464 90.2945C262.351 90.3568 263.227 90.0648 263.9 89.4825C264.744 88.6866 265.339 87.6626 265.613 86.5349C266.157 84.4084 266.481 82.2316 266.579 80.0389C266.899 75.7082 266.747 72.7715 266.125 71.2287C265.914 70.5463 265.502 69.9435 264.943 69.5C264.383 69.0564 263.703 68.7928 262.99 68.744C262.278 68.6768 261.563 68.838 260.948 69.2045C260.333 69.5709 259.851 70.1234 259.572 70.7821C258.814 72.2762 258.281 75.0749 257.972 79.1782Z" fill="#295CD4" />
    <path d="M288.666 74.7042L280.213 72.5361C280.97 70.0617 282.593 67.9429 284.785 66.5679C286.918 65.2579 289.838 64.7436 293.546 65.0251C297.801 65.3445 300.819 66.3676 302.6 68.0945C303.455 68.8701 304.12 69.8327 304.543 70.9073C304.965 71.9819 305.134 73.1395 305.036 74.29C304.948 75.6538 304.444 76.9577 303.591 78.0252C302.591 79.2241 301.319 80.1653 299.88 80.7698C300.876 81.0643 301.823 81.5049 302.689 82.0771C303.701 82.7983 304.504 83.7729 305.02 84.9029C305.559 86.1526 305.769 87.5197 305.629 88.8736C305.457 90.7854 304.788 92.6191 303.688 94.1922C302.564 95.8575 300.966 97.1473 299.1 97.8949C296.71 98.7537 294.154 99.051 291.63 98.7637C289.239 98.6734 286.885 98.1421 284.687 97.1966C283.092 96.426 281.717 95.2639 280.692 93.8186C279.62 92.2353 278.879 90.4508 278.516 88.5731L287.659 88.0453C287.716 89.459 288.197 90.8229 289.04 91.9592C289.813 92.7455 290.86 93.2017 291.963 93.232C293.065 93.2623 294.136 92.8643 294.951 92.1216C295.872 91.1959 296.401 89.9514 296.429 88.6462C296.612 87.3741 296.285 86.0812 295.519 85.049C295.141 84.5977 294.671 84.2324 294.14 83.9775C293.61 83.7227 293.031 83.5841 292.442 83.5712C291.442 83.5428 290.443 83.6466 289.47 83.8798L290.42 77.4406C290.805 77.5343 291.195 77.6021 291.589 77.6436C292.134 77.7 292.684 77.6479 293.208 77.4904C293.732 77.3329 294.219 77.0731 294.642 76.726C295.046 76.4173 295.379 76.0256 295.618 75.5774C295.858 75.1292 295.999 74.6348 296.031 74.1276C296.083 73.695 296.047 73.2563 295.925 72.8378C295.804 72.4193 295.6 72.0295 295.325 71.6916C295.019 71.3653 294.651 71.1042 294.242 70.9242C293.833 70.7441 293.392 70.6489 292.945 70.6442C292.468 70.5946 291.986 70.6409 291.528 70.7804C291.069 70.9198 290.643 71.1496 290.274 71.4562C289.408 72.3418 288.846 73.4789 288.666 74.7042Z" fill="#295CD4" />
    <path d="M220.921 100.534L233.523 101.5L233.279 104.748L225.395 104.163L225.208 106.599L232.516 107.151L232.281 110.253L224.973 109.709L224.753 112.706L232.873 113.315L232.622 116.757L219.792 115.799L220.921 100.534Z" fill="#295CD4" />
    <path d="M235.212 116.928L236.349 101.711L244.184 102.288C245.311 102.333 246.424 102.544 247.489 102.913C248.228 103.211 248.846 103.749 249.243 104.439C249.621 105.165 249.803 105.976 249.771 106.794C249.74 107.611 249.497 108.406 249.065 109.1C248.649 109.691 248.09 110.166 247.441 110.481C246.904 110.729 246.331 110.89 245.744 110.96C246.168 111.118 246.567 111.337 246.929 111.609C247.194 111.867 247.425 112.156 247.619 112.47C247.847 112.781 248.046 113.113 248.212 113.461L250.161 118.04L244.842 117.643L242.674 112.771C242.508 112.311 242.248 111.89 241.911 111.536C241.593 111.276 241.201 111.123 240.79 111.098H240.376L239.913 117.277L235.212 116.928ZM240.612 108.223L242.593 108.37C243.015 108.372 243.437 108.334 243.852 108.256C244.164 108.221 244.452 108.074 244.664 107.842C244.875 107.599 245.001 107.294 245.021 106.973C245.051 106.763 245.032 106.549 244.966 106.348C244.899 106.146 244.788 105.963 244.639 105.812C244.137 105.455 243.533 105.27 242.918 105.284L240.847 105.13L240.612 108.223Z" fill="#295CD4" />
    <path d="M251.72 118.13L252.848 102.913L260.692 103.497C261.816 103.541 262.926 103.749 263.989 104.115C264.73 104.413 265.35 104.95 265.751 105.641C266.05 106.15 266.241 106.715 266.313 107.301C266.384 107.886 266.336 108.48 266.169 109.047C266.002 109.613 265.721 110.139 265.344 110.592C264.966 111.045 264.499 111.416 263.973 111.682C263.435 111.929 262.863 112.091 262.276 112.162C262.699 112.322 263.098 112.541 263.461 112.811C263.719 113.074 263.951 113.363 264.151 113.672C264.381 113.98 264.577 114.313 264.736 114.662L266.685 119.242L261.374 118.852L259.206 113.98C259.04 113.521 258.78 113.101 258.443 112.746C258.123 112.483 257.728 112.33 257.314 112.308H256.9L256.446 118.487L251.72 118.13ZM257.12 109.433L259.101 109.579C259.523 109.578 259.944 109.54 260.359 109.466C260.674 109.435 260.965 109.284 261.171 109.043C261.388 108.807 261.518 108.503 261.537 108.183C261.565 107.972 261.545 107.757 261.479 107.555C261.413 107.352 261.302 107.167 261.155 107.013C260.651 106.655 260.044 106.473 259.426 106.494L257.404 106.372L257.12 109.433Z" fill="#295CD4" />
    <path d="M267.838 111.691C267.811 110.623 268.02 109.563 268.452 108.586C268.883 107.609 269.526 106.74 270.333 106.041C271.141 105.342 272.093 104.831 273.122 104.544C274.151 104.257 275.23 104.202 276.283 104.383C278.816 104.567 280.711 105.392 281.967 106.859C282.62 107.677 283.101 108.619 283.38 109.628C283.659 110.637 283.731 111.692 283.591 112.73C283.537 114.243 283.116 115.72 282.365 117.034C281.693 118.102 280.721 118.949 279.571 119.47C278.222 120.072 276.739 120.315 275.268 120.176C273.798 120.119 272.36 119.731 271.062 119.039C269.953 118.381 269.067 117.405 268.52 116.238C267.887 114.811 267.651 113.24 267.838 111.691ZM272.54 112.056C272.35 113.218 272.564 114.411 273.149 115.434C273.426 115.773 273.77 116.053 274.158 116.256C274.547 116.459 274.972 116.581 275.409 116.615C275.846 116.649 276.286 116.594 276.701 116.454C277.116 116.314 277.499 116.091 277.826 115.799C278.427 115.182 278.792 114.029 278.914 112.324C279.099 111.2 278.875 110.047 278.28 109.076C278.011 108.726 277.668 108.44 277.275 108.239C276.881 108.038 276.448 107.927 276.007 107.915C275.577 107.862 275.141 107.907 274.732 108.048C274.322 108.189 273.95 108.421 273.644 108.727C272.894 109.671 272.502 110.851 272.54 112.056Z" fill="#295CD4" />
    <path d="M285.637 120.655L286.766 105.43L294.602 106.015C295.728 106.06 296.842 106.271 297.907 106.64C298.634 106.94 299.24 107.474 299.628 108.158C300.062 108.922 300.247 109.802 300.156 110.676C300.117 111.443 299.873 112.187 299.449 112.827C299.034 113.416 298.475 113.889 297.825 114.2C297.288 114.449 296.716 114.613 296.128 114.687C296.923 114.929 297.594 115.467 298.004 116.189C298.231 116.502 298.427 116.837 298.589 117.188L300.537 121.768L295.227 121.37L293.059 116.498C292.89 116.039 292.63 115.619 292.296 115.263C291.974 115.004 291.579 114.851 291.167 114.825H290.753L290.29 121.004L285.637 120.655ZM291.029 111.951L293.01 112.097C293.435 112.1 293.859 112.062 294.277 111.983C294.592 111.952 294.883 111.801 295.089 111.561C295.307 111.325 295.436 111.021 295.454 110.7C295.48 110.49 295.46 110.277 295.394 110.077C295.328 109.876 295.218 109.692 295.073 109.539C294.57 109.177 293.962 108.992 293.343 109.011L291.281 108.857L291.029 111.951Z" fill="#295CD4" />
    <path d="M205.233 132.632L206.264 118.747L215.635 119.445L215.513 121.069L207.977 120.509L207.661 124.805L214.157 125.292L214.035 126.916L207.539 126.429L207.068 132.738L205.233 132.632Z" fill="#263238" />
    <path d="M216.934 126.672C216.966 124.685 217.777 122.79 219.191 121.394C219.852 120.789 220.634 120.332 221.485 120.052C222.336 119.772 223.237 119.676 224.128 119.77C225.349 119.844 226.525 120.251 227.53 120.947C228.504 121.627 229.255 122.579 229.69 123.684C230.159 124.89 230.342 126.188 230.226 127.476C230.149 128.786 229.759 130.058 229.089 131.187C228.483 132.219 227.573 133.038 226.483 133.533C225.409 134.028 224.226 134.237 223.048 134.142C221.812 134.069 220.622 133.65 219.613 132.933C218.643 132.243 217.897 131.283 217.47 130.172C217.029 129.061 216.845 127.864 216.934 126.672ZM218.826 126.843C218.637 128.282 219.015 129.738 219.881 130.903C220.287 131.393 220.788 131.797 221.354 132.089C221.92 132.38 222.539 132.555 223.174 132.601C223.809 132.647 224.447 132.565 225.049 132.358C225.651 132.151 226.205 131.825 226.678 131.398C227.717 130.301 228.298 128.849 228.302 127.338C228.402 126.323 228.283 125.298 227.953 124.333C227.662 123.504 227.131 122.78 226.426 122.255C225.715 121.733 224.87 121.426 223.99 121.37C223.37 121.314 222.744 121.382 222.15 121.571C221.557 121.759 221.006 122.063 220.531 122.466C219.557 123.327 218.98 124.788 218.826 126.875V126.843Z" fill="#263238" />
    <path d="M232.102 134.63L233.141 120.744L239.296 121.207C240.255 121.236 241.2 121.434 242.09 121.792C242.719 122.091 243.229 122.595 243.535 123.221C243.874 123.882 244.02 124.625 243.957 125.365C243.936 125.826 243.824 126.279 243.628 126.697C243.431 127.115 243.154 127.49 242.812 127.801C241.948 128.491 240.874 128.866 239.767 128.864C240.152 129.074 240.507 129.333 240.823 129.636C241.361 130.234 241.828 130.893 242.211 131.601L244.347 135.563L242.033 135.385L240.409 132.364C239.938 131.487 239.54 130.821 239.223 130.35C238.994 129.972 238.703 129.635 238.363 129.352C238.117 129.165 237.843 129.019 237.551 128.921C237.217 128.845 236.877 128.796 236.536 128.775L234.4 128.621L233.945 134.784L232.102 134.63ZM234.538 127.013L238.484 127.305C239.149 127.381 239.822 127.342 240.474 127.192C240.929 127.075 241.332 126.809 241.619 126.437C241.889 126.085 242.05 125.661 242.082 125.219C242.111 124.913 242.073 124.606 241.97 124.317C241.868 124.028 241.704 123.765 241.489 123.546C240.872 123.017 240.085 122.728 239.272 122.734L234.879 122.401L234.538 127.013Z" fill="#263238" />
    <path d="M246.036 135.669L247.067 121.784L252.28 122.166C253.153 122.198 254.009 122.408 254.798 122.783C255.401 123.095 255.894 123.586 256.21 124.187C256.52 124.762 256.661 125.412 256.616 126.063C256.573 126.652 256.362 127.215 256.007 127.687C255.613 128.215 255.074 128.619 254.457 128.848C255.207 129.104 255.855 129.597 256.3 130.253C256.707 130.893 256.89 131.65 256.819 132.405C256.778 133.034 256.592 133.646 256.275 134.191C256.003 134.68 255.619 135.097 255.155 135.409C254.675 135.7 254.142 135.893 253.588 135.978C252.841 136.093 252.083 136.115 251.33 136.043L246.036 135.669ZM247.993 134.167L251.452 134.427C251.871 134.457 252.292 134.457 252.711 134.427C253.088 134.392 253.457 134.291 253.799 134.126C254.108 133.954 254.369 133.705 254.554 133.404C254.786 133.025 254.914 132.593 254.925 132.15C254.936 131.706 254.831 131.268 254.619 130.878C254.38 130.472 254.011 130.157 253.571 129.985C252.923 129.758 252.244 129.63 251.558 129.604L248.35 129.368L247.993 134.167ZM248.472 127.752L251.477 127.98C252.061 128.055 252.654 128.055 253.239 127.98C253.666 127.904 254.055 127.687 254.343 127.362C254.619 127.027 254.776 126.611 254.789 126.177C254.83 125.749 254.748 125.318 254.554 124.935C254.362 124.563 254.042 124.275 253.653 124.123C252.974 123.91 252.269 123.793 251.558 123.773L248.781 123.562L248.472 127.752Z" fill="#263238" />
    <path d="M259.336 136.66L260.368 122.774L262.211 122.912L261.172 136.798L259.336 136.66Z" fill="#263238" />
    <path d="M264.412 137.033L265.451 123.148L270.234 123.505C271.057 123.547 271.873 123.675 272.67 123.887C273.408 124.103 274.082 124.496 274.635 125.032C275.333 125.724 275.839 126.586 276.104 127.533C276.405 128.618 276.505 129.749 276.397 130.87C276.345 131.819 276.15 132.756 275.82 133.647C275.567 134.354 275.196 135.012 274.724 135.596C274.346 136.064 273.887 136.46 273.368 136.765C272.835 137.056 272.255 137.251 271.655 137.342C270.91 137.451 270.155 137.473 269.405 137.407L264.412 137.033ZM266.377 135.539L269.34 135.758C270.067 135.834 270.8 135.801 271.517 135.661C271.992 135.556 272.437 135.342 272.816 135.036C273.322 134.568 273.714 133.99 273.961 133.347C274.289 132.5 274.481 131.606 274.529 130.7C274.68 129.544 274.518 128.369 274.058 127.297C273.72 126.567 273.149 125.97 272.434 125.6C271.679 125.321 270.884 125.168 270.079 125.145L267.164 124.926L266.377 135.539Z" fill="#263238" />
    <path d="M278.427 138.081L279.458 124.196L284.241 124.545C285.064 124.586 285.881 124.717 286.677 124.934C287.413 125.15 288.085 125.543 288.634 126.079C289.332 126.768 289.839 127.628 290.103 128.572C290.403 129.658 290.505 130.788 290.404 131.91C290.344 132.858 290.15 133.793 289.827 134.687C289.573 135.397 289.199 136.059 288.723 136.644C288.345 137.11 287.885 137.503 287.367 137.805C286.837 138.096 286.259 138.291 285.662 138.381C284.917 138.49 284.163 138.514 283.412 138.454L278.427 138.081ZM280.384 136.579L283.347 136.798C284.074 136.873 284.807 136.84 285.524 136.7C286 136.597 286.445 136.383 286.823 136.075C287.33 135.611 287.722 135.036 287.968 134.394C288.296 133.547 288.488 132.654 288.536 131.747C288.687 130.591 288.525 129.416 288.065 128.345C287.73 127.613 287.158 127.015 286.441 126.648C285.685 126.362 284.886 126.205 284.078 126.185L281.163 125.966L280.384 136.579Z" fill="#263238" />
    <path d="M292.474 139.12L293.505 125.235L303.542 125.982L303.42 127.606L295.219 126.997L294.902 131.252L302.584 131.82L302.462 133.444L294.78 132.868L294.431 137.594L302.957 138.235L302.835 139.859L292.474 139.12Z" fill="#263238" />
    <path d="M305.353 140.078L306.384 126.193L308.268 126.331L314.764 137.78L315.576 126.875L317.338 127.005L316.298 140.898L314.414 140.752L307.918 129.303L307.106 140.208L305.353 140.078Z" fill="#263238" />
    <path d="M137.975 133.891L138.243 135.515L138.552 137.212C138.779 138.341 138.99 139.477 139.25 140.598C139.745 142.855 140.314 145.08 140.963 147.232C141.288 148.304 141.645 149.368 142.027 150.391C142.409 151.414 142.839 152.437 143.237 153.395C144.026 155.193 145.027 156.891 146.217 158.454L143.992 156.992C144.553 157.322 145.202 157.472 145.851 157.423C146.912 157.323 147.943 157.02 148.888 156.529C150.113 155.918 151.28 155.195 152.372 154.369C152.956 153.939 153.549 153.484 154.118 152.997C154.41 152.762 154.694 152.518 154.93 152.274C155.165 152.031 155.522 151.755 155.742 151.584L156.172 151.235C156.704 150.809 157.364 150.575 158.045 150.572C158.726 150.568 159.389 150.795 159.925 151.215C160.461 151.636 160.839 152.225 160.998 152.888C161.157 153.55 161.087 154.247 160.8 154.865C160.557 155.376 160.394 155.766 160.175 156.188C159.956 156.611 159.745 157 159.517 157.406C159.046 158.218 158.551 158.99 157.999 159.753C156.863 161.345 155.538 162.793 154.053 164.065C153.235 164.758 152.357 165.378 151.43 165.916C149.287 167.2 146.846 167.902 144.349 167.954C142.974 167.962 141.606 167.765 140.289 167.37C139.565 167.163 138.908 166.771 138.381 166.233L138.072 165.916C135.977 163.741 134.2 161.281 132.794 158.608C131.502 156.174 130.405 153.64 129.514 151.032C128.617 148.506 127.866 145.93 127.265 143.318C126.972 142.027 126.688 140.728 126.453 139.421C126.339 138.763 126.225 138.113 126.128 137.447C126.03 136.782 125.949 136.156 125.868 135.352C125.72 133.791 126.18 132.233 127.152 131.003C128.123 129.772 129.533 128.964 131.086 128.746C132.638 128.528 134.216 128.918 135.488 129.834C136.761 130.75 137.631 132.122 137.918 133.663L137.975 133.891Z" fill="#263238" />
    <path d="M155.636 151.097C153.923 151.641 151.909 153.622 152.542 155.969C153.175 158.316 160.118 160.029 160.345 155.855C158.34 151.844 155.636 151.097 155.636 151.097Z" fill="white" />
    <path d="M154.718 153.363L155.457 152.234L163.05 150.22C163.05 150.22 164.154 155.052 158.673 156.887C158.284 156.982 157.872 156.921 157.528 156.716L155.344 155.579C155.152 155.48 154.982 155.343 154.845 155.176C154.709 155.008 154.608 154.815 154.549 154.607C154.491 154.399 154.475 154.181 154.505 153.967C154.534 153.753 154.606 153.547 154.718 153.363Z" fill="#B55B52" />
    <path d="M97.5051 125.657C107.2 123.895 120.339 123.562 129.863 125.194C132.199 125.591 134.301 126.852 135.751 128.726C137.201 130.6 137.894 132.951 137.691 135.312C137.147 141.572 136.457 147.102 136.067 151.438C136.497 162.449 135.564 180.849 135.564 184.73L95.2153 185.299C93.4208 180.272 94.0135 157.626 90.863 134.833C90.5566 132.739 91.0793 130.609 92.3199 128.895C93.5604 127.182 95.4208 126.02 97.5051 125.657Z" fill="#263238" />
    <path opacity="0.2" d="M118.219 184.746L117.407 184.641C119.697 166.574 117.407 136.302 117.407 136.002L118.219 135.937C118.244 136.246 120.525 166.598 118.219 184.746Z" fill="black" />
    <path d="M121.881 126.12C120.257 125.69 121.727 124.049 121.727 124.049C125.806 124.059 129.879 124.387 133.907 125.032C134.67 125.616 133.842 126.372 133.842 126.372C133.842 126.372 126.607 127.403 121.881 126.12Z" fill="#295CD4" />
    <path opacity="0.2" d="M119.6 123.806C119.6 123.806 122.036 128.613 118.788 132.981C120.525 133.09 122.205 133.649 123.66 134.605C123.66 134.605 124.805 130.489 121.581 124.22C121.232 123.627 119.6 123.806 119.6 123.806Z" fill="black" />
    <path d="M122.157 126.136C122.783 129.068 117.334 134.605 117.334 134.605C117.334 134.605 107.704 129.555 107.095 126.656L122.157 126.136Z" fill="#295CD4" />
    <path opacity="0.2" d="M96.9201 139.964C97.9757 142.002 96.6928 150.52 92.8601 154.767C92.6084 151.048 92.2917 147.159 91.8857 143.204L96.9201 139.964Z" fill="black" />
    <path d="M108.126 111.098L119.039 116.327C117.886 119.421 117.334 122.636 120.566 124.171C121.015 124.388 121.415 124.695 121.741 125.074C122.067 125.452 122.311 125.893 122.459 126.37C122.607 126.847 122.655 127.349 122.6 127.845C122.545 128.341 122.389 128.821 122.141 129.254C121.631 130.143 120.914 130.894 120.049 131.444C119.185 131.995 118.201 132.327 117.18 132.413C113.388 132.795 109.653 130.359 107.476 128.077C106.583 127.135 107.476 126.031 107.574 124.715C107.996 120.07 108.711 115.207 108.126 111.098Z" fill="#B55B52" />
    <path opacity="0.2" d="M113.152 112.137L119.039 116.327C118.7 117.186 118.442 118.075 118.268 118.982C115.832 119.794 112.015 117.667 111.951 115.556C111.918 114.492 112.868 112.641 113.152 112.137Z" fill="black" />
    <path d="M120.801 93.4532C122.888 95.1503 125.267 102.734 122.206 105.796C117.691 100.55 117.18 92.6656 120.801 93.4532Z" fill="#263238" />
    <path d="M105.105 102.231C105.917 108.727 106.08 112.543 109.588 115.637C114.858 120.29 122.693 116.709 123.822 110.107C124.837 104.155 123.319 94.5737 116.782 92.4543C115.334 91.985 113.791 91.8911 112.297 92.1812C110.803 92.4713 109.407 93.1361 108.24 94.1132C107.073 95.0902 106.173 96.3476 105.625 97.7674C105.077 99.1873 104.898 100.723 105.105 102.231Z" fill="#B55B52" />
    <path d="M105.308 107.817C108.378 108.045 109.441 100.623 107.533 96.4495C108.865 97.0017 112.657 96.4495 113.712 94.7199C119.835 96.4576 122.125 96.4901 122.904 93.9648C123.684 91.4395 114.062 89.2146 108.491 90.4082C102.921 91.6018 104.561 95.6375 104.561 95.6375C104.561 95.6375 95.1258 98.6581 105.308 107.817Z" fill="#263238" />
    <path d="M103.067 108.313C103.886 109.631 105.174 110.588 106.672 110.992C108.564 111.447 109.214 109.547 108.45 107.639C107.752 105.925 105.941 103.579 104.155 104.025C102.369 104.472 102.003 106.632 103.067 108.313Z" fill="#B55B52" />
    <path d="M113.761 103.319C113.761 103.847 114.102 104.253 114.451 104.228C114.801 104.204 115.052 103.757 115.012 103.222C114.971 102.686 114.671 102.288 114.321 102.312C113.972 102.336 113.729 102.791 113.761 103.319Z" fill="#263238" />
    <path d="M120.939 102.734C120.98 103.262 121.288 103.676 121.63 103.644C121.971 103.611 122.23 103.173 122.198 102.645C122.165 102.117 121.857 101.703 121.508 101.727C121.159 101.752 120.907 102.206 120.939 102.734Z" fill="#263238" />
    <path d="M119.778 103.278C120.516 104.849 121.47 106.308 122.612 107.614C122.269 107.901 121.868 108.11 121.436 108.225C121.003 108.34 120.551 108.359 120.111 108.28L119.778 103.278Z" fill="#A02724" />
    <path d="M116.49 99.1291C116.528 99.1662 116.554 99.2145 116.563 99.2671C116.58 99.3467 116.566 99.4299 116.524 99.4994C116.482 99.569 116.414 99.6195 116.335 99.6406C115.854 99.7675 115.35 99.7776 114.864 99.6703C114.378 99.563 113.925 99.3412 113.542 99.0235C113.513 98.9948 113.49 98.9607 113.474 98.923C113.459 98.8854 113.451 98.845 113.451 98.8043C113.451 98.7635 113.459 98.7231 113.474 98.6855C113.49 98.6479 113.513 98.6137 113.542 98.585C113.602 98.5279 113.682 98.4961 113.765 98.4961C113.848 98.4961 113.928 98.5279 113.989 98.585C114.295 98.8331 114.655 99.0051 115.04 99.087C115.426 99.1688 115.825 99.1582 116.205 99.056C116.255 99.042 116.308 99.0414 116.357 99.0543C116.407 99.0671 116.453 99.0929 116.49 99.1291Z" fill="#263238" />
    <path d="M117.805 100.688C117.756 100.663 117.716 100.623 117.691 100.574C117.649 100.504 117.637 100.421 117.657 100.341C117.676 100.262 117.727 100.194 117.797 100.152C118.218 99.8882 118.696 99.7278 119.191 99.6841C119.687 99.6403 120.185 99.7145 120.647 99.9004C120.684 99.9178 120.717 99.9424 120.744 99.9727C120.772 100.003 120.793 100.038 120.806 100.077C120.82 100.115 120.826 100.156 120.823 100.197C120.821 100.238 120.811 100.278 120.793 100.315C120.755 100.388 120.689 100.445 120.611 100.472C120.532 100.499 120.446 100.495 120.371 100.461C120.005 100.318 119.611 100.264 119.22 100.302C118.829 100.34 118.453 100.469 118.121 100.68C118.075 100.711 118.02 100.728 117.964 100.729C117.908 100.731 117.853 100.716 117.805 100.688Z" fill="#263238" />
    <path d="M123.887 97.7161C123.838 97.7292 123.787 97.731 123.738 97.7211C123.689 97.7112 123.642 97.69 123.603 97.6592C123.309 97.3995 122.957 97.2145 122.577 97.1198C122.197 97.0251 121.799 97.0235 121.418 97.1152C121.34 97.1389 121.255 97.1304 121.183 97.0915C121.11 97.0527 121.056 96.9867 121.033 96.9081C121.009 96.8295 121.018 96.7447 121.056 96.6724C121.095 96.6001 121.161 96.5461 121.24 96.5224C121.718 96.3972 122.22 96.3909 122.701 96.5041C123.182 96.6173 123.628 96.8466 124.001 97.172C124.057 97.231 124.089 97.3095 124.089 97.3913C124.089 97.473 124.057 97.5515 124.001 97.6105C123.972 97.6541 123.933 97.6903 123.887 97.7161Z" fill="#263238" />
    <path d="M159.282 178.64C159.11 178.325 158.821 178.091 158.477 177.989C158.133 177.887 157.762 177.925 157.447 178.096L147.516 183.463L142.823 174.775C142.645 174.472 142.357 174.25 142.019 174.155C141.681 174.061 141.32 174.1 141.011 174.267C140.702 174.433 140.469 174.712 140.362 175.046C140.255 175.38 140.281 175.743 140.435 176.058L145.129 184.746L110.903 203.244C110.588 203.415 110.354 203.704 110.25 204.048C110.147 204.391 110.183 204.762 110.351 205.079C110.523 205.394 110.811 205.628 111.155 205.731C111.498 205.835 111.869 205.799 112.186 205.631L158.738 180.459C159.048 180.287 159.279 180.001 159.381 179.661C159.483 179.32 159.447 178.954 159.282 178.64Z" fill="#263238" />
    <path d="M158.551 224.258C142.311 212.078 92.3162 207.206 109.596 184.941L135.58 184.698C135.58 184.698 172.12 203.455 174.109 223.073C176.147 243.478 179.793 275.609 179.793 275.609L169.724 279.182C169.724 279.182 155.011 239.784 158.551 224.258Z" fill="#295CD4" />
    <path opacity="0.2" d="M110.489 196.098C109.888 197.414 109.336 198.778 108.865 200.215C112.925 204.803 120.89 208.335 129.522 211.583C126.842 206.906 120.988 201.709 110.489 196.098Z" fill="black" />
    <path d="M169.813 282.746L180.264 280.059C180.919 279.867 181.62 279.902 182.253 280.156C185.891 281.78 188.213 281.309 191.811 281.09C196.114 280.814 195.148 285.442 192.119 286.23C187.125 287.529 187.491 287.245 183.187 288.357L180.231 289.121L178.534 288.089L177.722 289.713L172.241 291.045C172.102 291.084 171.956 291.093 171.813 291.072C171.67 291.051 171.533 291.001 171.41 290.925C171.287 290.849 171.182 290.748 171.1 290.629C171.018 290.51 170.961 290.375 170.934 290.233L169.813 282.746Z" fill="#263238" />
    <path d="M170.082 283.77C170.236 283.697 181.953 280.416 181.953 280.416L180.134 271.411L167.142 274.943L170.082 283.77Z" fill="#263238" />
    <path d="M97.2531 251.574C97.7485 221.993 91.5691 191.876 95.2394 185.266L125.381 184.844C125.381 184.844 116.376 234.165 114.013 253.864C111.577 274.359 99.3968 327.642 99.3968 327.642L89.6528 327.796C89.6528 327.796 90.8059 272.832 97.2531 251.574Z" fill="#295CD4" />
    <path d="M89.3198 329.372L98.2518 329.234C98.9413 329.203 99.6214 329.403 100.184 329.802C103.432 332.238 103.773 332.335 107.33 332.969C111.601 333.724 109.685 337.987 106.559 338.036C101.394 338.117 101.816 337.93 97.4155 337.995L92.6328 338.036L91.9345 336.631L91.1225 338.036H89.8638C89.7175 338.036 89.5726 338.006 89.4381 337.948C89.3036 337.89 89.1824 337.806 89.082 337.699C88.9816 337.593 88.904 337.467 88.8542 337.329C88.8043 337.191 88.7831 337.045 88.792 336.899L89.3198 329.372Z" fill="#263238" />
    <path d="M89.2549 330.435C89.4092 330.435 100.501 330.947 100.501 330.947L101.24 320.813L89.1899 321.154L89.2549 330.435Z" fill="#263238" />
    <path d="M119.202 123.229C119.202 123.229 121.995 128.613 118.788 132.973C120.607 133.061 122.402 133.434 124.106 134.078C124.106 134.078 126.372 128.597 121.378 123.692C121.029 123.107 119.202 123.229 119.202 123.229Z" fill="white" />
    <path d="M94.1353 188.384C108.548 189.245 125.073 189.504 135.409 188.384C135.472 188.375 135.53 188.35 135.58 188.312C135.63 188.273 135.669 188.222 135.693 188.165C136.386 186.413 136.691 184.532 136.587 182.651C136.587 182.359 136.392 182.14 136.197 182.148C122.555 182.675 108.995 182.643 94.7849 182.148C94.6307 182.148 94.4764 182.278 94.4195 182.497C93.9354 184.248 93.7299 186.065 93.8105 187.88C93.8009 187.988 93.8276 188.097 93.8864 188.188C93.9452 188.279 94.0329 188.348 94.1353 188.384Z" fill="#263238" />
    <path opacity="0.2" d="M94.1353 188.384C108.548 189.245 125.073 189.504 135.409 188.384C135.472 188.375 135.53 188.35 135.58 188.312C135.63 188.273 135.669 188.222 135.693 188.165C136.386 186.413 136.691 184.532 136.587 182.651C136.587 182.359 136.392 182.14 136.197 182.148C122.555 182.675 108.995 182.643 94.7849 182.148C94.6307 182.148 94.4764 182.278 94.4195 182.497C93.9354 184.248 93.7299 186.065 93.8105 187.88C93.8009 187.988 93.8276 188.097 93.8864 188.188C93.9452 188.279 94.0329 188.348 94.1353 188.384Z" fill="black" />
    <path d="M118.722 190.601C117.702 190.598 116.682 190.533 115.669 190.406L114.979 190.316V189.626C114.979 189.448 114.873 185.25 115.101 181.88L115.15 181.198L115.824 181.133C117.872 180.935 119.932 180.897 121.987 181.019L122.717 181.068V181.799C122.83 184.389 122.738 186.985 122.441 189.561L122.368 190.04L121.914 190.203C120.876 190.498 119.8 190.632 118.722 190.601ZM116.571 188.871C118.016 189.033 119.476 189.008 120.915 188.798C121.119 186.739 121.189 184.67 121.126 182.602C119.64 182.542 118.151 182.569 116.668 182.684C116.538 185.014 116.554 187.637 116.571 188.871Z" fill="white" />
    <path d="M103.059 182.099C103.059 182.099 102.823 186.654 102.49 189.553C101.849 190.219 100.655 189.708 100.655 189.708C100.655 189.708 100.891 185.501 101.175 182.197C101.786 182.013 102.432 181.979 103.059 182.099Z" fill="#295CD4" />
    <path d="M132.811 182.099C132.811 182.099 132.575 186.654 132.242 189.553C131.601 190.219 130.407 189.708 130.407 189.708C130.407 189.708 130.643 185.501 130.927 182.197C131.538 182.013 132.184 181.979 132.811 182.099Z" fill="#295CD4" />
    <path d="M123.424 140.988C123.862 146.859 127.606 148.182 128.133 148.166C128.661 148.15 132.193 146.688 131.755 140.817C130.192 140.77 128.687 140.214 127.468 139.234C126.944 139.781 126.317 140.218 125.623 140.519C124.928 140.82 124.181 140.979 123.424 140.988Z" fill="#295CD4" />
    <path d="M122.612 92.9173C126.786 93.6156 128.361 95.5563 118.966 96.6931C113.536 97.3903 108.046 97.4829 102.596 96.9692C102.596 96.9692 115.125 92.8767 122.612 92.9173Z" fill="#263238" />
    <path d="M101.833 97.4401C108.702 95.3501 115.755 93.9199 122.896 93.169C122.916 92.3354 122.766 91.5066 122.455 90.7331C122.143 89.9596 121.677 89.2578 121.085 88.6705C121.085 88.6705 125.836 87.8585 123.473 86.4375C121.849 85.4874 117.975 85.3819 113.68 82.6211C111.918 84.2451 107.095 86.8435 103.798 87.1764C102.986 88.5731 100.85 92.0484 97.3994 93.4126C97.4481 94.9391 100.883 95.337 100.883 95.337C100.869 95.7371 100.947 96.135 101.112 96.4998C101.276 96.8646 101.523 97.1864 101.833 97.4401Z" fill="#295CD4" />
    <path opacity="0.8" d="M100.883 95.3613C107.874 90.8223 114.581 88.8653 121.085 88.6948C121.677 89.2821 122.143 89.9839 122.454 90.7574C122.766 91.5309 122.916 92.3597 122.896 93.1933C115.756 93.9363 108.703 95.3583 101.833 97.4401C101.526 97.1889 101.282 96.871 101.117 96.5108C100.952 96.1505 100.872 95.7573 100.883 95.3613Z" fill="#263238" />
    <path d="M113.282 87.4525C114.094 91.4475 116.912 92.1783 117.294 92.1459C117.675 92.1134 120.111 90.9441 119.307 86.949C118.16 86.9888 117.028 86.6802 116.059 86.064C115.713 86.4701 115.289 86.8023 114.812 87.0409C114.335 87.2795 113.815 87.4195 113.282 87.4525Z" fill="white" />
    <path d="M118.024 99.933C118.95 100.063 120.46 107.03 115.629 107.403C111.569 107.72 110.294 103.993 110.294 102.686C110.294 100.737 116.709 99.7462 118.024 99.933Z" fill="#263238" />
    <path d="M120.07 99.8761C119.494 100.225 120.793 107.647 124.13 106.867C126.972 106.21 126.493 102.174 126.03 100.867C125.373 98.8936 120.89 99.3565 120.07 99.8761Z" fill="#263238" />
    <g opacity="0.2">
        <path opacity="0.2" d="M116.311 100.006L118.836 104.61C118.667 105.49 118.171 106.273 117.448 106.802L113.964 100.436C114.737 100.244 115.521 100.1 116.311 100.006Z" fill="white" />
        <path opacity="0.2" d="M112.933 100.688L116.514 107.184C116.228 107.267 115.934 107.319 115.637 107.338C115.442 107.35 115.247 107.35 115.052 107.338L111.658 101.151C112.071 100.964 112.497 100.809 112.933 100.688Z" fill="white" />
        <path opacity="0.2" d="M124.163 99.5594L126.404 103.619C126.376 104.317 126.184 104.999 125.844 105.609L122.45 99.397C123.025 99.3891 123.599 99.4435 124.163 99.5594Z" fill="white" />
        <path opacity="0.2" d="M125.405 106.185C125.2 106.39 124.957 106.552 124.691 106.664L120.817 99.6C121.115 99.5336 121.416 99.4848 121.719 99.4539L125.405 106.185Z" fill="white" />
    </g>
    <path d="M169.749 144.487C170.163 144.309 169.464 142.652 169.05 142.823L112.259 166.647C112.193 166.539 112.09 166.458 111.969 166.419C111.849 166.38 111.718 166.386 111.601 166.436L109.222 167.426C109.106 167.478 109.011 167.569 108.954 167.683C108.898 167.797 108.884 167.928 108.914 168.052L101.443 171.178C99.7761 171.885 98.2847 172.949 97.0746 174.296L93.7291 178.031C93.6668 178.896 93.2747 179.703 92.6339 180.286C91.9931 180.87 91.1526 181.184 90.2862 181.165H89.7909L72.6252 191.535C71.9942 191.917 71.5033 192.492 71.2253 193.175C70.9473 193.858 70.8972 194.613 71.0824 195.327C71.68 197.818 72.6899 200.192 74.0706 202.351C74.3486 202.766 74.7144 203.115 75.1422 203.374C75.5699 203.633 76.0492 203.795 76.5463 203.848C77.0433 203.902 77.546 203.845 78.019 203.683C78.492 203.521 78.9236 203.258 79.2836 202.911L96.628 186.208C97.3614 185.502 97.8192 184.558 97.919 183.545L98.1302 181.401L101.882 177.211C102.419 178.164 103.302 178.875 104.348 179.195C105.394 179.515 106.523 179.421 107.502 178.931C108.481 178.442 109.234 177.595 109.605 176.566C109.977 175.537 109.938 174.404 109.498 173.403C109.479 173.352 109.454 173.303 109.425 173.257L110.814 172.672C110.88 172.784 110.985 172.869 111.108 172.911C111.232 172.953 111.367 172.949 111.488 172.899L113.867 171.909C113.987 171.857 114.084 171.763 114.14 171.645C114.197 171.528 114.209 171.393 114.175 171.267L147.297 157.374C147.481 157.295 147.626 157.147 147.701 156.961C147.775 156.775 147.773 156.567 147.695 156.383L165.559 148.888C165.835 148.775 165.404 147.76 165.128 147.882L163.813 148.434L163.74 146.988L169.749 144.487ZM106.892 178.169C106.097 178.506 105.204 178.526 104.396 178.223C103.587 177.921 102.926 177.321 102.547 176.545L103.043 175.985L103.294 175.879C103.508 176.183 103.762 176.457 104.05 176.691C104.491 177.041 104.998 177.299 105.54 177.451C106.082 177.602 106.649 177.645 107.208 177.576L107.095 176.683C106.654 176.737 106.206 176.703 105.778 176.583C105.351 176.463 104.951 176.26 104.602 175.985C104.437 175.854 104.284 175.707 104.147 175.546L108.629 173.671C108.65 173.718 108.675 173.764 108.702 173.809C109.03 174.628 109.024 175.543 108.685 176.358C108.347 177.173 107.703 177.823 106.892 178.169ZM162.221 149.116L147.305 155.368L146.777 154.118L162.148 147.67L162.221 149.116Z" fill="#295CD4" />
    <path opacity="0.2" d="M169.749 144.487C170.163 144.309 169.464 142.652 169.05 142.823L112.259 166.647C112.193 166.539 112.09 166.458 111.969 166.419C111.849 166.38 111.718 166.386 111.601 166.436L109.222 167.426C109.106 167.478 109.011 167.569 108.954 167.683C108.898 167.797 108.884 167.928 108.914 168.052L101.443 171.178C99.7761 171.885 98.2847 172.949 97.0746 174.296L93.7291 178.031C93.6668 178.896 93.2747 179.703 92.6339 180.286C91.9931 180.87 91.1526 181.184 90.2862 181.165H89.7909L72.6252 191.535C71.9942 191.917 71.5033 192.492 71.2253 193.175C70.9473 193.858 70.8972 194.613 71.0824 195.327C71.68 197.818 72.6899 200.192 74.0706 202.351C74.3486 202.766 74.7144 203.115 75.1422 203.374C75.5699 203.633 76.0492 203.795 76.5463 203.848C77.0433 203.902 77.546 203.845 78.019 203.683C78.492 203.521 78.9236 203.258 79.2836 202.911L96.628 186.208C97.3614 185.502 97.8192 184.558 97.919 183.545L98.1302 181.401L101.882 177.211C102.419 178.164 103.302 178.875 104.348 179.195C105.394 179.515 106.523 179.421 107.502 178.931C108.481 178.442 109.234 177.595 109.605 176.566C109.977 175.537 109.938 174.404 109.498 173.403C109.479 173.352 109.454 173.303 109.425 173.257L110.814 172.672C110.88 172.784 110.985 172.869 111.108 172.911C111.232 172.953 111.367 172.949 111.488 172.899L113.867 171.909C113.987 171.857 114.084 171.763 114.14 171.645C114.197 171.528 114.209 171.393 114.175 171.267L147.297 157.374C147.481 157.295 147.626 157.147 147.701 156.961C147.775 156.775 147.773 156.567 147.695 156.383L165.559 148.888C165.835 148.775 165.404 147.76 165.128 147.882L163.813 148.434L163.74 146.988L169.749 144.487ZM106.892 178.169C106.097 178.506 105.204 178.526 104.396 178.223C103.587 177.921 102.926 177.321 102.547 176.545L103.043 175.985L103.294 175.879C103.508 176.183 103.762 176.457 104.05 176.691C104.491 177.041 104.998 177.299 105.54 177.451C106.082 177.602 106.649 177.645 107.208 177.576L107.095 176.683C106.654 176.737 106.206 176.703 105.778 176.583C105.351 176.463 104.951 176.26 104.602 175.985C104.437 175.854 104.284 175.707 104.147 175.546L108.629 173.671C108.65 173.718 108.675 173.764 108.702 173.809C109.03 174.628 109.024 175.543 108.685 176.358C108.347 177.173 107.703 177.823 106.892 178.169ZM162.221 149.116L147.305 155.368L146.777 154.118L162.148 147.67L162.221 149.116Z" fill="black" />
    <path d="M147.841 153.98L132.104 160.581C131.843 160.691 131.633 160.897 131.518 161.157C131.404 161.417 131.392 161.71 131.487 161.978L132.137 163.764C132.187 163.906 132.266 164.036 132.368 164.147C132.47 164.257 132.594 164.345 132.731 164.406C132.869 164.467 133.018 164.499 133.168 164.5C133.319 164.502 133.468 164.472 133.606 164.414L149.343 157.812C149.604 157.702 149.814 157.496 149.927 157.236C150.04 156.976 150.049 156.682 149.952 156.416L149.311 154.629C149.26 154.487 149.182 154.357 149.079 154.247C148.977 154.136 148.853 154.048 148.716 153.987C148.578 153.927 148.43 153.894 148.279 153.893C148.129 153.892 147.98 153.921 147.841 153.98Z" fill="#295CD4" />
    <path d="M157.853 147.825L158.397 147.679C159.084 147.492 159.811 147.503 160.493 147.71C161.175 147.917 161.785 148.311 162.254 148.848L162.741 149.408C162.871 149.555 162.963 149.732 163.011 149.922C163.058 150.112 163.059 150.312 163.014 150.502C162.969 150.693 162.878 150.871 162.75 151.019C162.622 151.168 162.46 151.284 162.278 151.357L156.927 153.566C156.775 153.629 156.611 153.66 156.447 153.659C156.282 153.658 156.119 153.624 155.968 153.559C155.816 153.494 155.68 153.399 155.565 153.28C155.451 153.162 155.362 153.021 155.303 152.867C155.111 152.37 155.026 151.839 155.053 151.307C155.08 150.775 155.218 150.255 155.458 149.78C155.698 149.305 156.036 148.885 156.448 148.548C156.86 148.212 157.339 147.965 157.853 147.825Z" fill="#B55B52" />
    <path d="M101.175 136.619L100.769 137.106L100.298 137.683L99.3398 138.852C98.7064 139.664 98.065 140.476 97.4397 141.345C96.1811 143.026 95.0037 144.763 93.8101 146.533C92.6164 148.304 91.5446 150.114 90.4403 151.933C89.3359 153.752 88.3615 155.636 87.3953 157.528L86.6807 158.957L86.5102 159.306C86.4916 159.346 86.4699 159.384 86.4452 159.42C86.3894 159.508 86.3457 159.604 86.3153 159.704C86.0983 160.313 85.9724 160.95 85.9418 161.596C85.8769 163.438 86.035 165.281 86.4127 167.085C87.2751 171.237 88.4283 175.324 89.8637 179.314L89.9206 179.468C90.1509 180.149 90.1332 180.888 89.8707 181.557C89.6083 182.226 89.1179 182.78 88.4863 183.122C87.8547 183.464 87.1225 183.572 86.4192 183.426C85.7158 183.281 85.0865 182.891 84.6426 182.326C83.1468 180.429 81.79 178.426 80.5826 176.334C79.36 174.211 78.3065 171.996 77.432 169.708C76.4243 167.217 75.7789 164.595 75.5157 161.921C75.3591 160.307 75.444 158.679 75.7674 157.089C75.8553 156.638 75.9747 156.193 76.1247 155.758L76.3521 155.076L76.5145 154.645L77.1722 152.973C78.9308 148.515 81.0603 144.212 83.5383 140.111C84.7806 138.056 86.0879 136.051 87.5171 134.094C88.2316 133.119 88.9624 132.145 89.7338 131.203C90.1236 130.724 90.5458 130.253 90.9275 129.782L91.5527 129.067L92.2754 128.255C93.3624 127.124 94.8443 126.455 96.4122 126.389C97.98 126.324 99.5127 126.866 100.691 127.902C101.869 128.939 102.601 130.39 102.735 131.954C102.869 133.517 102.395 135.072 101.41 136.294L101.175 136.619Z" fill="#263238" />
    <path d="M107.533 126.745C109.157 126.169 107.095 124.423 107.095 124.423C107.095 124.423 98.4795 124.691 93.3639 126.047C92.5519 126.786 93.4776 127.671 93.4776 127.671C93.4776 127.671 102.694 128.458 107.533 126.745Z" fill="#295CD4" />
    <path opacity="0.2" d="M107.403 124.236C107.403 124.236 108.678 129.035 114.476 132.957C111.942 132.957 108.353 135.49 108.353 135.49C107.282 133.911 106.537 132.133 106.162 130.262C105.787 128.391 105.789 126.464 106.169 124.593C106.526 124.033 107.403 124.236 107.403 124.236Z" fill="black" />
    <path d="M107.574 123.424C108.934 127.205 111.324 130.529 114.476 133.022C112.326 133.185 110.204 133.61 108.158 134.289C108.158 134.289 104.983 131.309 106.169 124.658C106.559 124.166 107.035 123.748 107.574 123.424Z" fill="white" />
    <path d="M89.0115 178.973L94.054 183.317L87.3632 187.67C87.3632 187.67 83.3032 183.179 85.3007 180.622L89.0115 178.973Z" fill="#B55B52" />
    <path d="M84.6023 182.635C84.01 182.157 83.5397 181.544 83.23 180.849C84.854 179.184 88.102 177.812 89.5555 177.438C90.148 178.176 90.4767 179.091 90.4893 180.037C90.4893 180.037 86.21 180.776 84.6023 182.635Z" fill="white" />
    <path d="M94.6307 190.211L92.0242 191.34C91.5221 191.558 90.959 191.59 90.4353 191.431C89.9117 191.272 89.4618 190.932 89.1659 190.471L87.3633 187.67L94.0542 183.317L95.8081 187.126C95.9363 187.405 96.0075 187.707 96.0175 188.015C96.0276 188.322 95.9763 188.628 95.8667 188.915C95.7571 189.203 95.5913 189.465 95.3791 189.688C95.1669 189.91 94.9125 190.088 94.6307 190.211Z" fill="#B55B52" />
    <path d="M114.906 110.432C115.689 109.916 116.585 109.596 117.518 109.5C118.451 109.404 119.393 109.534 120.265 109.88C120.29 109.891 120.312 109.908 120.331 109.928C120.349 109.948 120.363 109.972 120.373 109.997C120.382 110.023 120.385 110.05 120.384 110.078C120.382 110.105 120.375 110.132 120.362 110.156C120.338 110.205 120.296 110.242 120.244 110.26C120.193 110.279 120.136 110.276 120.086 110.254C119.275 109.943 118.402 109.829 117.538 109.921C116.675 110.013 115.845 110.308 115.117 110.781C115.071 110.808 115.016 110.815 114.964 110.802C114.912 110.788 114.868 110.754 114.841 110.708C114.826 110.686 114.816 110.661 114.812 110.635C114.807 110.609 114.808 110.582 114.814 110.556C114.82 110.53 114.831 110.506 114.847 110.485C114.863 110.463 114.883 110.445 114.906 110.432Z" fill="#263238" />
    <path d="M101.622 140.89L112.576 140.476L112.535 139.591L101.589 140.005L101.622 140.89Z" fill="white" />
    <path d="M196.407 338.977H175.148L190.601 216.219H211.867L196.407 338.977Z" fill="#295CD4" />
    <path opacity="0.4" d="M196.407 338.977H175.148L190.601 216.219H211.867L196.407 338.977Z" fill="black" />
    <path d="M173.249 338.977H175.149L190.601 216.219H188.701L173.249 338.977Z" fill="#263238" />
    <path d="M275.699 338.977H254.44L269.893 216.219H291.159L275.699 338.977Z" fill="#295CD4" />
    <path opacity="0.4" d="M275.699 338.977H254.44L269.893 216.219H291.159L275.699 338.977Z" fill="black" />
    <path d="M252.532 338.977H254.44L269.893 216.219H267.993L252.532 338.977Z" fill="#263238" />
    <path d="M216.09 324.369H293.197L289.836 297.646H212.728L216.09 324.369Z" fill="#295CD4" />
    <path d="M216.09 324.369H214.831L211.461 297.646H212.728L216.09 324.369Z" fill="#263238" />
    <path d="M288.95 298.816L292.02 323.2H287.464L275.228 298.816H288.95Z" fill="white" />
    <path d="M267.457 298.816L279.694 323.2H262.966L250.729 298.816H267.457Z" fill="white" />
    <path d="M242.959 298.816L255.195 323.2H238.46L226.231 298.816H242.959Z" fill="white" />
    <path d="M218.469 298.816L230.697 323.2H216.975L213.905 298.816H218.469Z" fill="white" />
    <path d="M285.816 338.977H307.082L291.622 216.219H270.364L285.816 338.977Z" fill="#295CD4" />
    <path opacity="0.2" d="M277.25 270.908L299.62 279.701L293.197 228.724H271.931L277.25 270.908Z" fill="black" />
    <path d="M285.816 338.977H283.916L268.464 216.219H270.364L285.816 338.977Z" fill="#263238" />
    <path d="M206.524 338.977H227.79L212.338 216.219H191.072L206.524 338.977Z" fill="#295CD4" />
    <path opacity="0.2" d="M197.957 270.908L220.328 279.701L213.905 228.724H192.647L197.957 270.908Z" fill="black" />
    <path d="M206.524 338.977H204.624L189.172 216.219H191.072L206.524 338.977Z" fill="#263238" />
    <path d="M189.464 265.248H305.572L300.505 225.013H184.397L189.464 265.248Z" fill="#295CD4" />
    <path d="M189.464 265.248H187.564L182.497 225.013H184.397L189.464 265.248Z" fill="#263238" />
    <path d="M299.173 226.767L303.802 263.486H296.94L278.516 226.767H299.173Z" fill="white" />
    <path d="M266.815 226.767L285.239 263.486H260.043L241.627 226.767H266.815Z" fill="white" />
    <path d="M229.926 226.767L248.351 263.486H223.154L204.73 226.767H229.926Z" fill="white" />
    <path d="M193.045 226.767L211.461 263.486H190.796L186.176 226.767H193.045Z" fill="white" />
</svg>
