<svg width="436" height="436" viewBox="0 0 436 436" fill="none" xmlns="http://www.w3.org/2000/svg">
    <path d="M207.885 388.084H39.5016C38.181 388.084 36.9146 387.559 35.9808 386.625C35.047 385.691 34.5225 384.425 34.5225 383.104V52.8955C34.534 51.5825 35.0636 50.3272 35.9961 49.4029C36.9287 48.4785 38.1886 47.9599 39.5016 47.96H207.885C208.539 47.96 209.186 48.0887 209.79 48.339C210.394 48.5892 210.943 48.956 211.406 49.4183C211.868 49.8807 212.235 50.4296 212.485 51.0337C212.735 51.6378 212.864 52.2852 212.864 52.9391V383.104C212.864 383.758 212.735 384.406 212.485 385.01C212.235 385.614 211.868 386.163 211.406 386.625C210.943 387.088 210.394 387.454 209.79 387.705C209.186 387.955 208.539 388.084 207.885 388.084ZM39.5016 48.1344C38.2396 48.1367 37.0299 48.639 36.1375 49.5314C35.2451 50.4238 34.7428 51.6335 34.7405 52.8955V383.104C34.7428 384.366 35.2451 385.576 36.1375 386.469C37.0299 387.361 38.2396 387.863 39.5016 387.866H207.885C209.147 387.863 210.356 387.361 211.249 386.469C212.141 385.576 212.644 384.366 212.646 383.104V52.8955C212.644 51.6335 212.141 50.4238 211.249 49.5314C210.356 48.639 209.147 48.1367 207.885 48.1344H39.5016Z" fill="#EBEBEB" />
    <path d="M396.499 388.084H228.115C226.795 388.084 225.528 387.559 224.595 386.625C223.661 385.691 223.136 384.425 223.136 383.104V52.8955C223.148 51.5825 223.677 50.3272 224.61 49.4029C225.542 48.4785 226.802 47.9599 228.115 47.96H396.499C397.819 47.96 399.086 48.4845 400.019 49.4183C400.953 50.3521 401.478 51.6185 401.478 52.9391V383.104C401.478 383.758 401.349 384.406 401.099 385.01C400.848 385.614 400.482 386.163 400.019 386.625C399.557 387.088 399.008 387.454 398.404 387.705C397.8 387.955 397.152 388.084 396.499 388.084ZM228.115 48.1344C226.853 48.1367 225.644 48.639 224.751 49.5314C223.859 50.4238 223.357 51.6335 223.354 52.8955V383.104C223.357 384.366 223.859 385.576 224.751 386.469C225.644 387.361 226.853 387.863 228.115 387.866H396.499C397.761 387.863 398.97 387.361 399.863 386.469C400.755 385.576 401.257 384.366 401.26 383.104V52.8955C401.257 51.6335 400.755 50.4238 399.863 49.5314C398.97 48.639 397.761 48.1367 396.499 48.1344H228.115Z" fill="#EBEBEB" />
    <path d="M98.5796 146.714L99.9922 149.566L103.149 150.028L100.864 152.251L101.405 155.39L98.5796 153.908L95.763 155.39L96.3037 152.251L94.019 150.028L97.1757 149.566L98.5796 146.714Z" fill="#EBEBEB" />
    <path d="M380.802 281.203L382.215 284.063L385.372 284.525L383.087 286.74L383.628 289.888L380.802 288.405L377.986 289.888L378.526 286.74L376.242 284.525L379.398 284.063L380.802 281.203Z" fill="#F5F5F5" />
    <path d="M324.907 364.121L326.32 366.973L329.468 367.435L327.183 369.658L327.724 372.797L324.907 371.315L322.091 372.797L322.623 369.658L320.347 367.435L323.495 366.973L324.907 364.121Z" fill="#F5F5F5" />
    <path d="M197.02 96.0508L197.543 97.1146L198.72 97.289C198.786 97.2976 198.848 97.3247 198.899 97.3672C198.95 97.4097 198.987 97.4658 199.007 97.5289C199.028 97.592 199.029 97.6596 199.012 97.7236C198.996 97.7877 198.961 97.8456 198.912 97.8907L198.04 98.7191L198.241 99.8876C198.251 99.9526 198.243 100.019 198.218 100.08C198.193 100.141 198.151 100.194 198.098 100.232C198.045 100.271 197.982 100.295 197.916 100.3C197.851 100.305 197.785 100.292 197.726 100.263L196.68 99.7044L195.633 100.263C195.575 100.292 195.509 100.305 195.443 100.3C195.378 100.295 195.315 100.271 195.262 100.232C195.208 100.194 195.167 100.141 195.142 100.08C195.117 100.019 195.109 99.9526 195.119 99.8876L195.311 98.7191L194.439 97.8907C194.39 97.8451 194.355 97.7864 194.339 97.7217C194.322 97.6569 194.325 97.5888 194.346 97.5255C194.367 97.4621 194.406 97.4061 194.458 97.3642C194.51 97.3223 194.573 97.2962 194.639 97.289L195.808 97.1146L196.331 96.0508C196.352 95.9755 196.397 95.9092 196.459 95.8619C196.521 95.8147 196.597 95.7891 196.676 95.7891C196.754 95.7891 196.83 95.8147 196.892 95.8619C196.954 95.9092 196.999 95.9755 197.02 96.0508Z" fill="#EBEBEB" />
    <path d="M53.0001 350.544L53.5233 351.599L54.6918 351.774C54.7581 351.783 54.8206 351.81 54.872 351.853C54.9234 351.896 54.9618 351.953 54.9827 352.016C55.0036 352.08 55.0062 352.148 54.9902 352.213C54.9742 352.278 54.9403 352.337 54.8923 352.384L54.0203 353.204L54.2209 354.372C54.2312 354.437 54.2233 354.504 54.1982 354.565C54.173 354.626 54.1316 354.678 54.0784 354.717C54.0251 354.756 53.9623 354.779 53.8966 354.784C53.831 354.79 53.7652 354.777 53.7064 354.747L52.66 354.198L51.6136 354.747C51.5549 354.777 51.489 354.79 51.4234 354.784C51.3578 354.779 51.2949 354.756 51.2417 354.717C51.1885 354.678 51.147 354.626 51.1219 354.565C51.0967 354.504 51.0888 354.437 51.0991 354.372L51.2997 353.204L50.4277 352.384C50.3799 352.338 50.3458 352.279 50.3294 352.215C50.313 352.151 50.3149 352.083 50.3348 352.019C50.3547 351.956 50.3919 351.899 50.4422 351.856C50.4925 351.813 50.5539 351.784 50.6195 351.774L51.788 351.599L52.3199 350.544C52.3432 350.472 52.3887 350.41 52.4498 350.365C52.5109 350.321 52.5845 350.297 52.66 350.297C52.7356 350.297 52.8091 350.321 52.8702 350.365C52.9313 350.41 52.9768 350.472 53.0001 350.544Z" fill="#F5F5F5" />
    <path d="M76.5179 84.8456L77.0411 85.9094L78.2183 86.0751C78.2839 86.0855 78.3453 86.1141 78.3956 86.1575C78.4459 86.201 78.4831 86.2575 78.5031 86.3209C78.523 86.3843 78.5248 86.452 78.5084 86.5164C78.492 86.5808 78.458 86.6393 78.4102 86.6855L77.5382 87.5575L77.7387 88.7172C77.7527 88.7831 77.7473 88.8515 77.7232 88.9143C77.6991 88.9772 77.6573 89.0317 77.6029 89.0713C77.5485 89.111 77.4838 89.134 77.4167 89.1377C77.3495 89.1414 77.2826 89.1256 77.2242 89.0922L76.1778 88.5428L75.1314 89.0922C75.073 89.1256 75.0062 89.1414 74.939 89.1377C74.8718 89.134 74.8071 89.111 74.7528 89.0713C74.6984 89.0317 74.6566 88.9772 74.6325 88.9143C74.6084 88.8515 74.603 88.7831 74.617 88.7172L74.8088 87.5575L73.9368 86.6855C73.8888 86.6388 73.8549 86.5795 73.8389 86.5145C73.823 86.4495 73.8256 86.3813 73.8465 86.3176C73.8674 86.254 73.9057 86.1976 73.9572 86.1547C74.0086 86.1118 74.071 86.0842 74.1374 86.0751L75.3058 85.9094L75.8639 84.8456C75.8919 84.7822 75.9377 84.7283 75.9958 84.6905C76.0539 84.6527 76.1216 84.6326 76.1909 84.6326C76.2602 84.6326 76.328 84.6527 76.386 84.6905C76.4441 84.7283 76.4899 84.7822 76.5179 84.8456Z" fill="#EBEBEB" />
    <path d="M75.1056 295.015C75.1073 295.245 75.0408 295.47 74.9144 295.662C74.788 295.854 74.6075 296.004 74.3958 296.093C74.184 296.182 73.9505 296.206 73.725 296.162C73.4995 296.118 73.292 296.009 73.1289 295.847C72.9659 295.685 72.8545 295.478 72.8091 295.253C72.7636 295.028 72.7861 294.794 72.8736 294.582C72.9611 294.37 73.1097 294.188 73.3006 294.06C73.4915 293.932 73.7161 293.864 73.9459 293.864C74.2519 293.864 74.5456 293.985 74.7629 294.201C74.9801 294.416 75.1033 294.709 75.1056 295.015Z" fill="#EBEBEB" />
    <path d="M240.384 149.888C240.386 150.118 240.319 150.343 240.193 150.535C240.066 150.727 239.886 150.877 239.674 150.966C239.462 151.055 239.229 151.079 239.003 151.035C238.778 150.992 238.57 150.882 238.407 150.72C238.244 150.558 238.133 150.352 238.087 150.126C238.042 149.901 238.064 149.667 238.152 149.455C238.239 149.243 238.388 149.061 238.579 148.933C238.77 148.805 238.994 148.737 239.224 148.737C239.376 148.736 239.527 148.765 239.667 148.822C239.808 148.88 239.936 148.964 240.044 149.071C240.152 149.178 240.237 149.305 240.296 149.446C240.354 149.586 240.384 149.736 240.384 149.888Z" fill="#EBEBEB" />
    <path d="M180.251 85.8048C180.251 86.0342 180.183 86.2584 180.056 86.4491C179.928 86.6398 179.747 86.7885 179.535 86.8763C179.323 86.964 179.09 86.987 178.865 86.9423C178.64 86.8975 178.434 86.7871 178.271 86.6249C178.109 86.4627 177.999 86.256 177.954 86.031C177.909 85.8061 177.932 85.5729 178.02 85.361C178.108 85.149 178.256 84.9679 178.447 84.8405C178.638 84.713 178.862 84.645 179.091 84.645C179.398 84.6473 179.692 84.7702 179.909 84.9872C180.126 85.2042 180.249 85.4979 180.251 85.8048Z" fill="#F5F5F5" />
    <path d="M182.088 368.458C185.533 367.645 187.666 364.193 186.853 360.748C186.04 357.303 182.588 355.169 179.143 355.983C175.698 356.796 173.564 360.248 174.378 363.693C175.191 367.138 178.643 369.271 182.088 368.458Z" fill="#F0F0F0" />
    <path d="M178.412 358.47C177.099 358.468 175.819 358.883 174.758 359.656C174.216 360.9 174.083 362.283 174.378 363.606C174.673 364.93 175.381 366.126 176.399 367.021C177.418 367.917 178.695 368.465 180.045 368.588C181.396 368.711 182.75 368.402 183.914 367.705C184.429 366.752 184.688 365.682 184.665 364.6C184.642 363.517 184.338 362.459 183.784 361.529C183.229 360.599 182.442 359.829 181.501 359.294C180.559 358.76 179.494 358.479 178.412 358.479V358.47Z" fill="#E6E6E6" />
    <path d="M128.777 250.823H75.7158V226.869L128.777 163.789H154.17V228.23H167.328V250.823H154.17V270.426H128.777V250.823ZM128.777 228.23V195.233L100.734 228.23H128.777Z" fill="#295CD4" />
    <path d="M176.406 217.573C176.406 197.639 179.992 183.687 187.166 175.717C194.34 167.747 205.272 163.764 219.962 163.77C227.014 163.77 232.807 164.642 237.341 166.386C241.46 167.871 245.232 170.182 248.424 173.179C251.115 175.748 253.394 178.716 255.182 181.978C256.951 185.384 258.285 188.999 259.15 192.738C261.121 200.726 262.105 208.926 262.08 217.154C262.08 236.175 258.862 250.095 252.427 258.914C245.991 267.733 234.908 272.145 219.177 272.151C210.353 272.151 203.222 270.744 197.787 267.931C192.308 265.071 187.693 260.799 184.419 255.557C181.89 251.697 179.923 246.415 178.516 239.713C177.055 232.425 176.348 225.006 176.406 217.573ZM205.304 217.642C205.304 231.013 206.481 240.131 208.835 244.997C211.19 249.863 214.611 252.307 219.099 252.331C220.523 252.346 221.936 252.08 223.256 251.545C224.577 251.011 225.778 250.22 226.79 249.218C228.964 247.142 230.563 243.863 231.586 239.381C232.609 234.899 233.12 227.923 233.12 218.453C233.12 204.536 231.94 195.18 229.58 190.384C227.22 185.588 223.68 183.193 218.959 183.198C214.146 183.198 210.658 185.643 208.495 190.532C206.333 195.421 205.269 204.458 205.304 217.642Z" fill="#295CD4" />
    <path d="M324.157 250.822H271.096V226.868L324.157 163.788H349.55V228.229H362.752V250.822H349.55V270.425H324.157V250.822ZM324.157 228.229V195.232L296.123 228.229H324.157Z" fill="#295CD4" />
    <g opacity="0.3">
        <path opacity="0.3" d="M175.272 126.981C175.272 127.304 175.176 127.619 174.997 127.888C174.817 128.156 174.562 128.365 174.263 128.488C173.965 128.611 173.637 128.643 173.32 128.579C173.003 128.516 172.713 128.36 172.485 128.131C172.258 127.902 172.103 127.61 172.041 127.294C171.979 126.977 172.013 126.648 172.137 126.351C172.262 126.053 172.472 125.799 172.742 125.621C173.011 125.443 173.327 125.348 173.65 125.35C173.864 125.35 174.075 125.392 174.273 125.474C174.47 125.556 174.649 125.677 174.8 125.828C174.951 125.98 175.07 126.16 175.151 126.357C175.232 126.555 175.273 126.767 175.272 126.981Z" fill="#295CD4" />
        <path opacity="0.3" d="M63.6296 189.617C64.2653 189.617 64.7806 189.101 64.7806 188.465C64.7806 187.83 64.2653 187.314 63.6296 187.314C62.9939 187.314 62.4785 187.83 62.4785 188.465C62.4785 189.101 62.9939 189.617 63.6296 189.617Z" fill="#295CD4" />
        <path opacity="0.3" d="M253.796 357.712C254.706 357.712 255.444 356.974 255.444 356.064C255.444 355.154 254.706 354.416 253.796 354.416C252.885 354.416 252.147 355.154 252.147 356.064C252.147 356.974 252.885 357.712 253.796 357.712Z" fill="#295CD4" />
        <path opacity="0.3" d="M293.428 290.655C294.064 290.655 294.579 290.14 294.579 289.504C294.579 288.868 294.064 288.353 293.428 288.353C292.792 288.353 292.277 288.868 292.277 289.504C292.277 290.14 292.792 290.655 293.428 290.655Z" fill="#295CD4" />
        <path opacity="0.3" d="M369.876 83.3808C369.876 83.6084 369.808 83.831 369.682 84.0203C369.555 84.2096 369.376 84.3571 369.165 84.4442C368.955 84.5313 368.724 84.5541 368.5 84.5097C368.277 84.4653 368.072 84.3557 367.911 84.1947C367.75 84.0337 367.64 83.8286 367.596 83.6053C367.551 83.3821 367.574 83.1506 367.661 82.9403C367.748 82.73 367.896 82.5502 368.085 82.4237C368.275 82.2972 368.497 82.2297 368.725 82.2297C369.03 82.2297 369.323 82.351 369.539 82.5669C369.755 82.7827 369.876 83.0755 369.876 83.3808Z" fill="#295CD4" />
        <path opacity="0.3" d="M150.638 60.1681C150.638 60.3958 150.57 60.6183 150.444 60.8076C150.318 60.9969 150.138 61.1444 149.927 61.2315C149.717 61.3187 149.486 61.3415 149.262 61.297C149.039 61.2526 148.834 61.143 148.673 60.982C148.512 60.8211 148.402 60.616 148.358 60.3927C148.314 60.1694 148.336 59.938 148.424 59.7276C148.511 59.5173 148.658 59.3375 148.847 59.2111C149.037 59.0846 149.259 59.0171 149.487 59.0171C149.792 59.0194 150.083 59.1414 150.298 59.3567C150.514 59.5721 150.636 59.8636 150.638 60.1681Z" fill="#295CD4" />
        <path opacity="0.3" d="M242.154 120.563C242.79 120.563 243.305 120.047 243.305 119.412C243.305 118.776 242.79 118.261 242.154 118.261C241.518 118.261 241.003 118.776 241.003 119.412C241.003 120.047 241.518 120.563 242.154 120.563Z" fill="#295CD4" />
    </g>
    <path d="M123.152 120.572C133.704 120.572 142.258 112.018 142.258 101.466C142.258 90.9144 133.704 82.3606 123.152 82.3606C112.601 82.3606 104.047 90.9144 104.047 101.466C104.047 112.018 112.601 120.572 123.152 120.572Z" fill="#295CD4" />
    <path opacity="0.7" d="M123.152 120.572C133.704 120.572 142.258 112.018 142.258 101.466C142.258 90.9144 133.704 82.3606 123.152 82.3606C112.601 82.3606 104.047 90.9144 104.047 101.466C104.047 112.018 112.601 120.572 123.152 120.572Z" fill="white" />
    <path opacity="0.2" d="M116.569 87.0518C113.967 87.0439 111.391 87.5692 109 88.5953C106.061 91.8251 104.317 95.9637 104.057 100.323C103.798 104.681 105.038 108.998 107.573 112.554C110.108 116.109 113.783 118.69 117.988 119.866C122.193 121.043 126.675 120.744 130.686 119.019C133.174 116.278 134.811 112.874 135.401 109.22C135.991 105.566 135.507 101.82 134.008 98.4352C132.51 95.051 130.061 92.1746 126.959 90.1554C123.857 88.1362 120.235 87.0611 116.534 87.0606L116.569 87.0518Z" fill="#295CD4" />
    <path opacity="0.2" d="M114.668 92.1009C114.668 92.4459 114.565 92.783 114.374 93.0698C114.182 93.3566 113.91 93.5802 113.591 93.7122C113.272 93.8442 112.922 93.8787 112.583 93.8114C112.245 93.7441 111.934 93.578 111.69 93.3341C111.447 93.0902 111.28 92.7795 111.213 92.4412C111.146 92.1029 111.18 91.7522 111.312 91.4335C111.444 91.1149 111.668 90.8425 111.955 90.6508C112.242 90.4592 112.579 90.3569 112.924 90.3569C113.386 90.3569 113.83 90.5407 114.157 90.8677C114.484 91.1948 114.668 91.6384 114.668 92.1009Z" fill="#295CD4" />
    <path opacity="0.2" d="M135.212 90.3568C135.212 90.7017 135.11 91.0389 134.918 91.3257C134.727 91.6125 134.454 91.836 134.136 91.968C133.817 92.1 133.466 92.1346 133.128 92.0673C132.79 92 132.479 91.8339 132.235 91.59C131.991 91.3461 131.825 91.0353 131.758 90.697C131.69 90.3587 131.725 90.0081 131.857 89.6894C131.989 89.3707 132.212 89.0983 132.499 88.9067C132.786 88.7151 133.123 88.6128 133.468 88.6128C133.931 88.6128 134.374 88.7965 134.701 89.1236C135.028 89.4507 135.212 89.8943 135.212 90.3568Z" fill="#295CD4" />
    <path opacity="0.2" d="M131.724 102.809C131.724 103.375 131.556 103.928 131.242 104.398C130.928 104.868 130.481 105.235 129.959 105.451C129.436 105.668 128.861 105.724 128.306 105.614C127.751 105.504 127.242 105.231 126.842 104.831C126.442 104.431 126.169 103.922 126.059 103.367C125.949 102.812 126.005 102.237 126.222 101.714C126.438 101.192 126.805 100.745 127.275 100.431C127.745 100.116 128.298 99.9487 128.864 99.9487C129.623 99.9487 130.35 100.25 130.886 100.786C131.423 101.323 131.724 102.05 131.724 102.809Z" fill="#295CD4" />
    <path opacity="0.2" d="M122.638 110.962C122.638 111.718 122.414 112.456 121.994 113.084C121.574 113.712 120.978 114.202 120.28 114.491C119.582 114.78 118.814 114.856 118.073 114.708C117.332 114.561 116.652 114.197 116.118 113.663C115.584 113.129 115.22 112.448 115.072 111.707C114.925 110.966 115.001 110.198 115.29 109.501C115.579 108.803 116.068 108.206 116.696 107.786C117.325 107.367 118.063 107.143 118.818 107.143C119.831 107.143 120.803 107.545 121.519 108.261C122.235 108.978 122.638 109.949 122.638 110.962Z" fill="#295CD4" />
    <path d="M349.584 331.923C351.712 322.91 346.13 313.879 337.116 311.751C328.103 309.624 319.072 315.206 316.944 324.22C314.817 333.233 320.399 342.264 329.412 344.392C338.426 346.519 347.457 340.937 349.584 331.923Z" fill="#295CD4" />
    <path opacity="0.3" d="M349.584 331.923C351.712 322.91 346.13 313.879 337.116 311.751C328.103 309.624 319.072 315.206 316.944 324.22C314.817 333.233 320.399 342.264 329.412 344.392C338.426 346.519 347.457 340.937 349.584 331.923Z" fill="white" />
    <path opacity="0.4" d="M343.856 315.088C340.138 313.966 336.147 314.17 332.563 315.664C328.979 317.159 326.025 319.851 324.206 323.281C322.387 326.712 321.815 330.667 322.589 334.472C323.362 338.277 325.433 341.696 328.447 344.144C330.011 344.618 331.636 344.859 333.269 344.859C336.731 344.858 340.108 343.786 342.936 341.789C345.764 339.793 347.905 336.97 349.065 333.708C350.225 330.446 350.347 326.906 349.414 323.572C348.481 320.238 346.54 317.275 343.856 315.088Z" fill="#295CD4" />
    <path d="M317.26 333.104C299.358 341.528 312.708 348.024 337.935 338.955C361.296 330.558 370.199 319.972 349.271 323.259C350.396 327.663 321.14 339.06 317.26 333.104Z" fill="#295CD4" />
    <path opacity="0.2" d="M343.655 163.788C320.207 179.632 289.853 200.56 281.473 250.822H279.686C287.839 201.118 317.086 179.693 340.542 163.788H343.655Z" fill="black" />
    <path d="M222.36 321.132C207.536 321.132 192.878 314.443 185.736 303.526C181.332 296.777 176.214 282.641 191.456 263.78L192.808 264.879C182.03 278.22 180.042 291.606 187.201 302.575C195.921 315.917 216.491 322.631 234.053 317.853C252.043 312.961 262.96 297.317 264.015 274.933C267.617 198.363 308.296 174.775 337.996 157.553C356.456 146.854 369.789 139.128 366.859 122.813C366.449 120.554 365.551 118.993 364.095 118.034C360.302 115.531 352.89 117.267 344.309 119.264C327.471 123.188 304.415 128.559 290.681 105.198L292.19 104.326C305.27 126.588 326.695 121.592 343.917 117.581C352.89 115.496 360.633 113.691 365.054 116.595C366.929 117.825 368.08 119.769 368.542 122.525C371.69 140.035 357.206 148.441 338.85 159.079C309.49 176.1 269.291 199.409 265.733 275.055C264.634 298.25 253.246 314.478 234.481 319.579C230.527 320.632 226.451 321.154 222.36 321.132Z" fill="#295CD4" />
    <path opacity="0.2" d="M222.36 321.132C207.536 321.132 192.878 314.443 185.736 303.526C181.332 296.777 176.214 282.641 191.456 263.78L192.808 264.879C182.03 278.22 180.042 291.606 187.201 302.575C195.921 315.917 216.491 322.631 234.053 317.853C252.043 312.961 262.96 297.317 264.015 274.933C267.617 198.363 308.296 174.775 337.996 157.553C356.456 146.854 369.789 139.128 366.859 122.813C366.449 120.554 365.551 118.993 364.095 118.034C360.302 115.531 352.89 117.267 344.309 119.264C327.471 123.188 304.415 128.559 290.681 105.198L292.19 104.326C305.27 126.588 326.695 121.592 343.917 117.581C352.89 115.496 360.633 113.691 365.054 116.595C366.929 117.825 368.08 119.769 368.542 122.525C371.69 140.035 357.206 148.441 338.85 159.079C309.49 176.1 269.291 199.409 265.733 275.055C264.634 298.25 253.246 314.478 234.481 319.579C230.527 320.632 226.451 321.154 222.36 321.132Z" fill="white" />
    <path d="M272.727 84.584C276.745 84.6072 280.736 85.2333 284.568 86.4413C284.568 86.4413 294.16 102.809 295.294 106.558C294.893 110.256 288.658 116.316 288.658 116.316L272.727 84.584Z" fill="#295CD4" />
    <path opacity="0.3" d="M272.727 84.584C276.745 84.6072 280.736 85.2333 284.568 86.4413C284.568 86.4413 294.16 102.809 295.294 106.558C294.893 110.256 288.658 116.316 288.658 116.316L272.727 84.584Z" fill="white" />
    <path d="M301.137 164.049C297.443 159.533 294.074 154.76 291.056 149.766C290.324 148.504 289.629 147.22 288.972 145.912C288.597 145.171 288.24 144.429 287.891 143.679C287.433 142.95 287.078 142.16 286.836 141.334C285.789 130.285 289.574 122.15 285.964 113.281L271.593 118.897C271.593 118.897 272.814 134.698 275.604 144.185C277.348 150.054 281.255 155.129 285.031 159.829C286.208 161.294 287.342 162.802 288.519 164.276C289.696 165.75 290.882 166.944 292.007 168.331C293.707 170.432 294.265 172.447 292.983 174.923L292.765 175.316C292.399 175.961 294.108 176.693 295.19 175.316C296.934 173.066 296.689 173.205 298.207 171.287C299.131 170.127 300.186 168.863 301.102 167.799C301.543 167.276 301.789 166.615 301.795 165.93C301.801 165.246 301.568 164.581 301.137 164.049Z" fill="#295CD4" />
    <path opacity="0.7" d="M301.137 164.049C297.443 159.533 294.074 154.76 291.056 149.766C290.324 148.504 289.629 147.22 288.972 145.912C288.597 145.171 288.24 144.429 287.891 143.679C287.433 142.95 287.078 142.16 286.836 141.334C285.789 130.285 289.574 122.15 285.964 113.281L271.593 118.897C271.593 118.897 272.814 134.698 275.604 144.185C277.348 150.054 281.255 155.129 285.031 159.829C286.208 161.294 287.342 162.802 288.519 164.276C289.696 165.75 290.882 166.944 292.007 168.331C293.707 170.432 294.265 172.447 292.983 174.923L292.765 175.316C292.399 175.961 294.108 176.693 295.19 175.316C296.934 173.066 296.689 173.205 298.207 171.287C299.131 170.127 300.186 168.863 301.102 167.799C301.543 167.276 301.789 166.615 301.795 165.93C301.801 165.246 301.568 164.581 301.137 164.049Z" fill="white" />
    <path opacity="0.3" d="M297.622 159.506C295.342 161.951 292.811 164.149 290.071 166.064C290.446 166.482 290.812 166.936 291.187 167.337C293.93 165.484 296.422 163.282 298.599 160.788L297.622 159.506Z" fill="#295CD4" />
    <path opacity="0.3" d="M301.136 164.049L301.032 163.927C300.361 164.697 299.97 165.671 299.924 166.692C299.868 167.391 299.982 168.094 300.255 168.741L301.084 167.755C301.517 167.238 301.758 166.587 301.768 165.912C301.778 165.237 301.554 164.579 301.136 164.049Z" fill="#295CD4" />
    <path d="M269.308 95.0481C267.751 97.3808 265.882 99.4901 263.754 101.318C262.574 102.335 261.281 103.213 259.9 103.934C259.174 104.306 258.422 104.623 257.65 104.884L257.057 105.076L256.865 105.128L256.455 105.242C256.203 105.302 255.946 105.342 255.688 105.364C254.952 105.42 254.212 105.352 253.499 105.163C252.6 104.908 251.738 104.536 250.935 104.056C250.29 103.678 249.664 103.268 249.061 102.826C247.97 102.015 246.928 101.142 245.939 100.21C244.031 98.4031 242.281 96.4369 240.707 94.333C240.404 93.9232 240.253 93.4204 240.281 92.9114C240.309 92.4023 240.514 91.9191 240.86 91.5449C241.206 91.1707 241.672 90.9292 242.178 90.8619C242.683 90.7946 243.196 90.9059 243.628 91.1764H243.698C245.756 92.4844 247.831 93.8622 249.854 95.0917C250.883 95.6934 251.877 96.3038 252.863 96.7746C253.312 97.0102 253.775 97.2198 254.249 97.4025C254.544 97.5328 254.86 97.6095 255.182 97.6292C255.234 97.6292 255.182 97.5682 254.859 97.5769C254.758 97.5708 254.656 97.5708 254.554 97.5769L254.362 97.6205L254.65 97.4722C255.038 97.2638 255.413 97.0338 255.775 96.7834C256.555 96.2332 257.285 95.6146 257.955 94.9347C259.478 93.3382 260.905 91.6523 262.228 89.8858C262.952 89.0751 263.954 88.5644 265.036 88.454C266.117 88.3435 267.201 88.6412 268.075 89.2887C268.948 89.9363 269.549 90.8868 269.757 91.954C269.966 93.0211 269.769 94.1277 269.204 95.0568L269.308 95.0481Z" fill="#295CD4" />
    <path opacity="0.7" d="M269.308 95.0481C267.751 97.3808 265.882 99.4901 263.754 101.318C262.574 102.335 261.281 103.213 259.9 103.934C259.174 104.306 258.422 104.623 257.65 104.884L257.057 105.076L256.865 105.128L256.455 105.242C256.203 105.302 255.946 105.342 255.688 105.364C254.952 105.42 254.212 105.352 253.499 105.163C252.6 104.908 251.738 104.536 250.935 104.056C250.29 103.678 249.664 103.268 249.061 102.826C247.97 102.015 246.928 101.142 245.939 100.21C244.031 98.4031 242.281 96.4369 240.707 94.333C240.404 93.9232 240.253 93.4204 240.281 92.9114C240.309 92.4023 240.514 91.9191 240.86 91.5449C241.206 91.1707 241.672 90.9292 242.178 90.8619C242.683 90.7946 243.196 90.9059 243.628 91.1764H243.698C245.756 92.4844 247.831 93.8622 249.854 95.0917C250.883 95.6934 251.877 96.3038 252.863 96.7746C253.312 97.0102 253.775 97.2198 254.249 97.4025C254.544 97.5328 254.86 97.6095 255.182 97.6292C255.234 97.6292 255.182 97.5682 254.859 97.5769C254.758 97.5708 254.656 97.5708 254.554 97.5769L254.362 97.6205L254.65 97.4722C255.038 97.2638 255.413 97.0338 255.775 96.7834C256.555 96.2332 257.285 95.6146 257.955 94.9347C259.478 93.3382 260.905 91.6523 262.228 89.8858C262.952 89.0751 263.954 88.5644 265.036 88.454C266.117 88.3435 267.201 88.6412 268.075 89.2887C268.948 89.9363 269.549 90.8868 269.757 91.954C269.966 93.0211 269.769 94.1277 269.204 95.0568L269.308 95.0481Z" fill="white" />
    <path d="M237.437 89.3103L238.457 91.0543C238.457 91.0543 239.233 93.3389 240.794 93.7575L245.032 92.3885L244.814 92.0309C244.273 91.2113 244.334 89.6155 244.518 88.2901C244.701 86.9646 244.02 86.921 243.515 87.2524C243.156 87.6646 242.905 88.1588 242.782 88.6912C242.574 88.4032 242.344 88.1321 242.093 87.8802L240.803 86.5897C240.532 86.325 240.171 86.1726 239.793 86.1628C239.414 86.1531 239.046 86.2869 238.762 86.5373L237.716 87.4704C237.468 87.7 237.305 88.0071 237.254 88.3415C237.203 88.6758 237.268 89.0174 237.437 89.3103Z" fill="#295CD4" />
    <path opacity="0.7" d="M237.437 89.3103L238.457 91.0543C238.457 91.0543 239.233 93.3389 240.794 93.7575L245.032 92.3885L244.814 92.0309C244.273 91.2113 244.334 89.6155 244.518 88.2901C244.701 86.9646 244.02 86.921 243.515 87.2524C243.156 87.6646 242.905 88.1588 242.782 88.6912C242.574 88.4032 242.344 88.1321 242.093 87.8802L240.803 86.5897C240.532 86.325 240.171 86.1726 239.793 86.1628C239.414 86.1531 239.046 86.2869 238.762 86.5373L237.716 87.4704C237.468 87.7 237.305 88.0071 237.254 88.3415C237.203 88.6758 237.268 89.0174 237.437 89.3103Z" fill="white" />
    <path d="M277.008 83.0319C272.308 84.2779 267.805 86.177 263.632 88.6738C262.981 89.0812 262.47 89.6779 262.167 90.384C261.865 91.09 261.786 91.8715 261.94 92.6239C263.623 100.856 267.451 111.878 271.584 118.897L290.864 110.918C290.995 107.518 286.312 96.513 281.543 85.8746C280.688 83.965 279.04 82.5436 277.008 83.0319Z" fill="#295CD4" />
    <path opacity="0.8" d="M277.008 83.0319C272.308 84.2779 267.805 86.177 263.632 88.6738C262.981 89.0812 262.47 89.6779 262.167 90.384C261.865 91.09 261.786 91.8715 261.94 92.6239C263.623 100.856 267.451 111.878 271.584 118.897L290.864 110.918C290.995 107.518 286.312 96.513 281.543 85.8746C280.688 83.965 279.04 82.5436 277.008 83.0319Z" fill="white" />
    <path opacity="0.3" d="M284.534 92.6151L280.706 91.3333C281.578 93.5743 284.656 96.4083 286.81 98.0738C286.112 96.3298 285.336 94.4986 284.534 92.6151Z" fill="#295CD4" />
    <path d="M275.744 74.3991C274.148 71.3645 270.704 69.8385 266.57 70.1786C263.082 70.4751 259.995 74.0328 260.362 75.9512C260.728 77.8696 263.658 78.6893 264.216 79.352L261.8 81.096C261.514 81.3026 261.273 81.5649 261.091 81.8671C260.909 82.1694 260.79 82.5054 260.741 82.8549C260.692 83.2043 260.714 83.5601 260.806 83.9007C260.899 84.2414 261.059 84.5598 261.277 84.8369C262.297 86.1275 263.64 87.4529 264.416 88.4296C271.096 88.2552 276.04 85.7089 277.828 83.2586C277.156 80.1543 277.296 77.4162 275.744 74.3991Z" fill="#295CD4" />
    <path opacity="0.8" d="M275.744 74.3991C274.148 71.3645 270.704 69.8385 266.57 70.1786C263.082 70.4751 259.995 74.0328 260.362 75.9512C260.728 77.8696 263.658 78.6893 264.216 79.352L261.8 81.096C261.514 81.3026 261.273 81.5649 261.091 81.8671C260.909 82.1694 260.79 82.5054 260.741 82.8549C260.692 83.2043 260.714 83.5601 260.806 83.9007C260.899 84.2414 261.059 84.5598 261.277 84.8369C262.297 86.1275 263.64 87.4529 264.416 88.4296C271.096 88.2552 276.04 85.7089 277.828 83.2586C277.156 80.1543 277.296 77.4162 275.744 74.3991Z" fill="white" />
    <path d="M272.465 76.2825C272.939 77.4986 273.042 78.828 272.761 80.1026C272.48 81.3772 271.827 82.5399 270.885 83.4436C269.943 84.3473 268.755 84.9515 267.47 85.1798C266.184 85.4081 264.86 85.2502 263.665 84.7262C262.469 84.2022 261.456 83.3356 260.753 82.2358C260.05 81.136 259.689 79.8525 259.715 78.5475C259.742 77.2425 260.154 75.9745 260.901 74.904C261.648 73.8334 262.695 73.0083 263.911 72.5329C265.542 71.8972 267.36 71.935 268.964 72.6381C270.567 73.3411 271.827 74.6518 272.465 76.2825Z" fill="#263238" />
    <path d="M329.084 154.867C328.988 151.998 328.857 152.251 328.779 149.836C328.727 148.353 328.718 146.705 328.709 145.284C328.706 144.609 328.47 143.956 328.041 143.435C327.612 142.913 327.017 142.556 326.355 142.424C325.204 142.188 324.044 141.97 322.867 141.726C321.358 141.404 319.867 141.055 318.393 140.627C317.242 140.296 316.109 139.93 314.984 139.52C313.859 139.11 312.595 138.648 311.426 138.107C310.048 137.523 308.688 136.895 307.345 136.241C305.837 135.526 304.345 134.776 302.854 134.018C297.117 124.522 296.995 118.261 290.838 110.918L277.619 116.9C277.619 116.9 287.333 134.131 293.943 141.438C297.753 145.641 303.726 147.542 309.054 148.92C312.9 149.906 316.798 150.664 320.695 151.388C322.213 151.667 323.861 151.772 325.169 152.679C326.137 153.421 326.8 154.49 327.035 155.687C327.093 155.931 327.145 156.175 327.192 156.419C327.358 157.152 329.145 156.594 329.084 154.867Z" fill="#295CD4" />
    <path opacity="0.8" d="M329.084 154.867C328.988 151.998 328.857 152.251 328.779 149.836C328.727 148.353 328.718 146.705 328.709 145.284C328.706 144.609 328.47 143.956 328.041 143.435C327.612 142.913 327.017 142.556 326.355 142.424C325.204 142.188 324.044 141.97 322.867 141.726C321.358 141.404 319.867 141.055 318.393 140.627C317.242 140.296 316.109 139.93 314.984 139.52C313.859 139.11 312.595 138.648 311.426 138.107C310.048 137.523 308.688 136.895 307.345 136.241C305.837 135.526 304.345 134.776 302.854 134.018C297.117 124.522 296.995 118.261 290.838 110.918L277.619 116.9C277.619 116.9 287.333 134.131 293.943 141.438C297.753 145.641 303.726 147.542 309.054 148.92C312.9 149.906 316.798 150.664 320.695 151.388C322.213 151.667 323.861 151.772 325.169 152.679C326.137 153.421 326.8 154.49 327.035 155.687C327.093 155.931 327.145 156.175 327.192 156.419C327.358 157.152 329.145 156.594 329.084 154.867Z" fill="white" />
    <path opacity="0.3" d="M322.378 141.613C321.855 141.5 321.332 141.386 320.8 141.255C320.844 144.272 319.431 149.47 318.917 151.048L320.573 151.362C321.659 148.221 322.268 144.935 322.378 141.613Z" fill="#295CD4" />
    <path opacity="0.3" d="M328.744 145.284C328.742 144.61 328.507 143.958 328.08 143.437C327.652 142.916 327.059 142.558 326.398 142.424L325.526 142.258C325.666 143.25 326.174 144.152 326.948 144.787C327.446 145.247 328.042 145.587 328.692 145.781C328.744 145.624 328.744 145.45 328.744 145.284Z" fill="#295CD4" />
    <path d="M271.235 76.335C271.584 77.6604 270.102 79.0469 268.925 77.9046C267.826 76.7265 266.624 75.6497 265.332 74.6869C264.12 73.9283 265.733 72.6028 267.643 73.1173C268.458 73.322 269.211 73.7219 269.836 74.2825C270.462 74.8431 270.943 75.5475 271.235 76.335Z" fill="white" />
    <path d="M271.331 118.47C270.721 118.697 271.837 119.743 271.837 119.743C271.837 119.743 284.045 115.566 291.457 111.267C291.475 111.007 291.431 110.746 291.328 110.506C291.224 110.267 291.066 110.055 290.864 109.889C284.521 113.116 277.999 115.981 271.331 118.47Z" fill="#295CD4" />
    <path opacity="0.5" d="M271.331 118.47C270.721 118.697 271.837 119.743 271.837 119.743C271.837 119.743 284.045 115.566 291.457 111.267C291.475 111.007 291.431 110.746 291.328 110.506C291.224 110.267 291.066 110.055 290.864 109.889C284.521 113.116 277.999 115.981 271.331 118.47Z" fill="white" />
    <path d="M280.313 82.4564C282.72 83.6772 284.978 84.959 287.289 86.3804C288.414 87.0954 289.53 87.8192 290.638 88.604C291.745 89.3888 292.844 90.191 293.951 91.0979L294.361 91.438L294.876 91.9089C295.182 92.1832 295.473 92.4743 295.748 92.7809C296.027 93.0861 296.262 93.3825 296.489 93.6529C296.715 93.9232 296.96 94.2458 297.16 94.5249C297.973 95.6459 298.724 96.8103 299.41 98.0129C300.761 100.345 301.928 102.779 302.898 105.294C303.077 105.769 303.087 106.292 302.924 106.773C302.762 107.254 302.438 107.664 302.007 107.933C301.577 108.203 301.066 108.314 300.562 108.25C300.059 108.185 299.593 107.948 299.244 107.579L299.201 107.526C297.457 105.669 295.774 103.716 294.082 101.893C292.39 100.071 290.672 98.2221 289.251 97.4112C287.272 96.1817 285.065 94.9521 282.877 93.7488L276.284 90.0864C275.262 89.5452 274.497 88.6201 274.157 87.5147C273.817 86.4092 273.93 85.2139 274.471 84.1917C275.012 83.1695 275.937 82.4041 277.042 82.0639C278.148 81.7238 279.343 81.8367 280.365 82.3779L280.313 82.4564Z" fill="#295CD4" />
    <path opacity="0.8" d="M280.313 82.4564C282.72 83.6772 284.978 84.959 287.289 86.3804C288.414 87.0954 289.53 87.8192 290.638 88.604C291.745 89.3888 292.844 90.191 293.951 91.0979L294.361 91.438L294.876 91.9089C295.182 92.1832 295.473 92.4743 295.748 92.7809C296.027 93.0861 296.262 93.3825 296.489 93.6529C296.715 93.9232 296.96 94.2458 297.16 94.5249C297.973 95.6459 298.724 96.8103 299.41 98.0129C300.761 100.345 301.928 102.779 302.898 105.294C303.077 105.769 303.087 106.292 302.924 106.773C302.762 107.254 302.438 107.664 302.007 107.933C301.577 108.203 301.066 108.314 300.562 108.25C300.059 108.185 299.593 107.948 299.244 107.579L299.201 107.526C297.457 105.669 295.774 103.716 294.082 101.893C292.39 100.071 290.672 98.2221 289.251 97.4112C287.272 96.1817 285.065 94.9521 282.877 93.7488L276.284 90.0864C275.262 89.5452 274.497 88.6201 274.157 87.5147C273.817 86.4092 273.93 85.2139 274.471 84.1917C275.012 83.1695 275.937 82.4041 277.042 82.0639C278.148 81.7238 279.343 81.8367 280.365 82.3779L280.313 82.4564Z" fill="white" />
    <path d="M304.965 109.645L304.224 107.788C304.224 107.788 303.814 105.416 302.34 104.753L297.98 105.442L298.128 105.826C298.529 106.698 298.224 108.294 297.832 109.567C297.439 110.84 298.102 111.006 298.66 110.753C298.974 110.613 299.279 110.046 299.611 109.445C299.773 109.748 299.957 110.039 300.16 110.317L301.233 111.79C301.457 112.096 301.788 112.305 302.16 112.376C302.532 112.447 302.917 112.375 303.238 112.174L304.424 111.416C304.702 111.226 304.906 110.947 305.005 110.625C305.103 110.303 305.089 109.958 304.965 109.645Z" fill="#295CD4" />
    <path opacity="0.8" d="M304.965 109.645L304.224 107.788C304.224 107.788 303.814 105.416 302.34 104.753L297.98 105.442L298.128 105.826C298.529 106.698 298.224 108.294 297.832 109.567C297.439 110.84 298.102 111.006 298.66 110.753C298.974 110.613 299.279 110.046 299.611 109.445C299.773 109.748 299.957 110.039 300.16 110.317L301.233 111.79C301.457 112.096 301.788 112.305 302.16 112.376C302.532 112.447 302.917 112.375 303.238 112.174L304.424 111.416C304.702 111.226 304.906 110.947 305.005 110.625C305.103 110.303 305.089 109.958 304.965 109.645Z" fill="white" />
    <path opacity="0.3" d="M276.633 92.4844L275.569 92.5716L269.038 108.337C269.395 108.363 269.754 108.334 270.102 108.25C270.102 108.25 278.613 105.076 281.185 103.89C279.458 100.324 276.633 92.4844 276.633 92.4844Z" fill="#295CD4" />
    <path d="M264.713 96.6176C265.506 100.739 266.98 104.699 269.073 108.337C272.264 107.239 277.584 105.163 280.165 103.977C278.43 100.258 276.89 96.4511 275.552 92.5715C272.822 92.7547 266.832 95.048 264.713 96.6176Z" fill="white" />
    <path opacity="0.3" d="M271.192 100.027C271.064 100.454 270.813 100.833 270.47 101.116C270.127 101.4 269.708 101.576 269.265 101.621C268.822 101.666 268.376 101.579 267.983 101.371C267.59 101.162 267.267 100.842 267.056 100.45C266.845 100.058 266.755 99.6127 266.797 99.1697C266.839 98.7266 267.012 98.306 267.293 97.9611C267.574 97.6161 267.951 97.3624 268.377 97.2319C268.802 97.1014 269.257 97.1001 269.683 97.2281C270.254 97.3995 270.734 97.7906 271.017 98.3155C271.3 98.8403 271.363 99.456 271.192 100.027Z" fill="#295CD4" />
    <path opacity="0.6" d="M272.857 97.0274C272.824 97.173 272.746 97.3048 272.636 97.4057C272.526 97.5066 272.388 97.5718 272.24 97.5928C272.092 97.6137 271.941 97.5894 271.807 97.5231C271.673 97.4567 271.562 97.3514 271.489 97.221C271.416 97.0906 271.384 96.9412 271.398 96.7923C271.411 96.6434 271.469 96.5021 271.564 96.3869C271.659 96.2716 271.787 96.1878 271.931 96.1465C272.075 96.1052 272.227 96.1083 272.369 96.1554C272.546 96.2119 272.695 96.3333 272.785 96.4952C272.876 96.657 272.902 96.8472 272.857 97.0274Z" fill="#295CD4" />
    <path opacity="0.6" d="M274.811 96.2687C274.79 96.3699 274.749 96.4657 274.689 96.5499C274.63 96.6342 274.553 96.705 274.465 96.758C274.376 96.8109 274.277 96.8448 274.175 96.8574C274.073 96.87 273.969 96.8611 273.87 96.8312C273.771 96.8013 273.68 96.7511 273.601 96.6839C273.523 96.6166 273.46 96.5337 273.415 96.4406C273.371 96.3474 273.346 96.246 273.344 96.1428C273.341 96.0396 273.359 95.937 273.398 95.8415C273.426 95.7492 273.472 95.6633 273.533 95.5888C273.594 95.5143 273.67 95.4526 273.755 95.4072C273.84 95.3619 273.933 95.3337 274.029 95.3244C274.125 95.3152 274.222 95.3249 274.314 95.3532C274.5 95.4097 274.657 95.5375 274.75 95.7089C274.843 95.8803 274.865 96.0814 274.811 96.2687Z" fill="#295CD4" />
    <path opacity="0.5" d="M277.549 103.062L269.483 106.244L269.003 104.657L277.061 101.475L277.549 103.062Z" fill="#295CD4" />
    <path opacity="0.2" d="M233.051 224.252C233.032 229.33 232.542 234.395 231.586 239.381C230.557 243.863 228.958 247.142 226.79 249.218C225.78 250.22 224.58 251.012 223.262 251.546C221.943 252.081 220.53 252.347 219.107 252.331C214.625 252.331 211.204 249.886 208.844 244.997C208.429 244.119 208.077 243.213 207.789 242.285C202.804 246.566 198.163 251.231 193.907 256.237L189.276 261.696C191.768 264.221 194.643 266.337 197.796 267.966C203.225 270.773 210.353 272.18 219.177 272.186C220.729 272.186 222.229 272.142 223.685 272.055C229.024 264.155 233.442 255.671 236.853 246.767L249.802 213.003L233.051 224.252Z" fill="black" />
    <path d="M116.316 270.32L131.576 285.58L174.304 245.32C159.576 239.695 130.939 255.662 116.316 270.32Z" fill="#263238" />
    <path d="M169.534 323.512C164.659 318.629 154.274 308.252 154.274 308.252L194.534 265.524C200.124 280.217 184.157 308.88 169.534 323.512Z" fill="#263238" />
    <path d="M227.94 227.33L244.587 195.232L212.489 211.896C202.178 217.243 192.659 223.993 184.201 231.952L129.483 283.461L156.367 310.345L207.876 255.627C215.839 247.167 222.591 237.644 227.94 227.33Z" fill="#295CD4" />
    <path opacity="0.6" d="M227.94 227.33L244.587 195.232L212.489 211.896C202.178 217.243 192.659 223.993 184.201 231.952L129.483 283.461L156.367 310.345L207.876 255.627C215.839 247.167 222.591 237.644 227.94 227.33Z" fill="white" />
    <path d="M193.758 257.31C199.971 257.31 205.007 252.274 205.007 246.061C205.007 239.849 199.971 234.812 193.758 234.812C187.546 234.812 182.509 239.849 182.509 246.061C182.509 252.274 187.546 257.31 193.758 257.31Z" fill="white" />
    <path d="M193.758 253.29C197.751 253.29 200.987 250.054 200.987 246.061C200.987 242.069 197.751 238.832 193.758 238.832C189.766 238.832 186.529 242.069 186.529 246.061C186.529 250.054 189.766 253.29 193.758 253.29Z" fill="#295CD4" />
    <path opacity="0.3" d="M165.462 300.683L139.136 274.357L160.692 254.075L185.745 279.136L165.462 300.683Z" fill="#295CD4" />
    <path d="M122.272 294.405C102.564 296.001 96.0332 308.618 93.8009 325.387C92.6673 333.941 92.1615 342.6 84.9849 347.605C84.5532 347.899 84.2281 348.324 84.0584 348.818C83.8887 349.312 83.8835 349.847 84.0436 350.344C84.2036 350.841 84.5204 351.272 84.9463 351.574C85.3722 351.876 85.8845 352.032 86.4063 352.018C112.863 351.189 125.202 338.24 126.754 332.834C126.346 335.66 125.618 338.431 124.582 341.092C124.392 341.561 124.355 342.079 124.476 342.571C124.597 343.063 124.87 343.504 125.257 343.832C125.643 344.159 126.124 344.357 126.629 344.395C127.134 344.434 127.638 344.312 128.07 344.048C135.491 339.4 144.804 330.837 145.423 316.946C139.965 309.211 122.272 294.405 122.272 294.405Z" fill="#295CD4" />
    <path opacity="0.2" d="M122.272 294.405C102.564 296.001 96.0332 308.618 93.8009 325.387C92.6673 333.941 92.1615 342.6 84.9849 347.605C84.5532 347.899 84.2281 348.324 84.0584 348.818C83.8887 349.312 83.8835 349.847 84.0436 350.344C84.2036 350.841 84.5204 351.272 84.9463 351.574C85.3722 351.876 85.8845 352.032 86.4063 352.018C112.863 351.189 125.202 338.24 126.754 332.834C126.346 335.66 125.618 338.431 124.582 341.092C124.392 341.561 124.355 342.079 124.476 342.571C124.597 343.063 124.87 343.504 125.257 343.832C125.643 344.159 126.124 344.357 126.629 344.395C127.134 344.434 127.638 344.312 128.07 344.048C135.491 339.4 144.804 330.837 145.423 316.946C139.965 309.211 122.272 294.405 122.272 294.405Z" fill="white" />
    <path d="M148.484 322.902L116.917 291.335L133.73 287.699L152.12 306.089L148.484 322.902Z" fill="#295CD4" />
</svg>
