<svg width="18" height="18" viewBox="0 0 18 18" fill="none" xmlns="http://www.w3.org/2000/svg">
<path d="M8.99996 17.3334C4.39746 17.3334 0.666626 13.6026 0.666626 9.00008C0.666626 4.39758 4.39746 0.666748 8.99996 0.666748C13.6025 0.666748 17.3333 4.39758 17.3333 9.00008C17.3333 13.6026 13.6025 17.3334 8.99996 17.3334ZM8.99996 15.6667C10.7681 15.6667 12.4638 14.9644 13.714 13.7141C14.9642 12.4639 15.6666 10.7682 15.6666 9.00008C15.6666 7.23197 14.9642 5.53628 13.714 4.28604C12.4638 3.03579 10.7681 2.33341 8.99996 2.33341C7.23185 2.33341 5.53616 3.03579 4.28591 4.28604C3.03567 5.53628 2.33329 7.23197 2.33329 9.00008C2.33329 10.7682 3.03567 12.4639 4.28591 13.7141C5.53616 14.9644 7.23185 15.6667 8.99996 15.6667V15.6667ZM8.16913 12.3334L4.63329 8.79758L5.81163 7.61925L8.16913 9.97675L12.8825 5.26258L14.0616 6.44091L8.16913 12.3334Z" fill="white"/>
</svg>
