<svg width="182" height="101" viewBox="0 0 182 101" fill="none" xmlns="http://www.w3.org/2000/svg">
    <path d="M73.5048 72.899H69.4143V56.6885H73.5048V72.899Z" fill="#C4122E" />
    <path d="M106.488 61.3332C106.32 61.2477 105.003 60.4677 103.047 60.4677C100.402 60.4677 98.5674 62.3076 98.5674 64.7914C98.5674 67.2001 100.323 69.1191 103.047 69.1191C104.969 69.1191 106.308 68.3546 106.488 68.2587V72.6096C105.975 72.7522 104.577 73.1862 102.76 73.1862C98.1592 73.1862 94.1205 70.0144 94.1205 64.7902C94.1205 59.9507 97.7744 56.4005 102.76 56.4005C104.678 56.4005 106.101 56.867 106.488 56.9823V61.3332ZM63.7909 61.3332C63.6264 61.2477 62.3112 60.4677 60.3547 60.4677C57.7051 60.4677 55.8716 62.3076 55.8716 64.7914C55.8716 67.2001 57.6286 69.1191 60.3547 69.1191C62.2776 69.1191 63.6147 68.3546 63.7909 68.2587V72.6096C63.283 72.7522 61.8863 73.1862 60.0593 73.1862C55.4622 73.1862 51.4287 70.0144 51.4287 64.7902C51.4287 59.9507 55.0826 56.4005 60.0606 56.4005C61.986 56.4005 63.4061 56.867 63.7909 56.9823V61.3332ZM119.355 60.5286C116.929 60.5286 115.126 62.4384 115.126 64.7914C115.126 67.1496 116.929 69.0582 119.355 69.0582C121.78 69.0582 123.587 67.1496 123.587 64.7914C123.587 62.4384 121.78 60.5286 119.355 60.5286ZM127.921 64.7914C127.921 69.4287 124.341 73.1862 119.357 73.1862C114.37 73.1862 110.795 69.4287 110.795 64.7902C110.795 60.1619 114.371 56.4005 119.355 56.4005C124.341 56.4005 127.921 60.1619 127.921 64.7914ZM89.0168 60.3731C88.9559 60.3537 87.2339 59.8782 85.819 59.8782C84.18 59.8782 83.2885 60.4276 83.2885 61.2063C83.2885 62.1936 84.4909 62.5382 85.1634 62.7507L86.292 63.1096C88.9481 63.9544 90.157 65.7723 90.157 67.7469C90.157 71.8193 86.5757 73.1875 83.4453 73.1875C81.2698 73.1875 79.2317 72.7859 79.0309 72.7444V69.0128C79.3911 69.1035 81.1066 69.6166 82.8934 69.6166C84.9289 69.6166 85.8644 69.0206 85.8644 68.1033C85.8644 67.2818 85.0546 66.8075 84.04 66.4888C83.7939 66.4059 83.4207 66.2892 83.1667 66.2063C80.8889 65.4859 78.9894 64.1462 78.9894 61.4641C78.9894 58.4322 81.2595 56.3966 85.0299 56.3966C87.0214 56.3966 88.895 56.8799 89.0168 56.9123V60.3718V60.3731Z" fill="#C4122E" />
    <path d="M47.0908 39.2675C47.0908 38.1506 46.1786 37.2449 45.0605 37.2449C43.9423 37.2449 43.0288 38.1506 43.0288 39.2662V43.5226C43.0422 44.0524 43.262 44.5559 43.6415 44.9259C44.0209 45.2959 44.5299 45.5029 45.0598 45.5029C45.5898 45.5029 46.0987 45.2959 46.4781 44.9259C46.8576 44.5559 47.0774 44.0524 47.0908 43.5226V39.2675ZM58.2454 33.6831C58.2454 33.1444 58.0315 32.6278 57.6506 32.2469C57.2697 31.8661 56.7531 31.6521 56.2145 31.6521C55.6758 31.6521 55.1592 31.8661 54.7783 32.2469C54.3974 32.6278 54.1834 33.1444 54.1834 33.6831V43.5226C54.1834 44.0612 54.3974 44.5778 54.7783 44.9587C55.1592 45.3396 55.6758 45.5536 56.2145 45.5536C56.7531 45.5536 57.2697 45.3396 57.6506 44.9587C58.0315 44.5778 58.2454 44.0612 58.2454 43.5226V33.6817V33.6831ZM69.4014 26.0411C69.4014 24.9242 68.4892 24.0172 67.371 24.0172C66.2515 24.0172 65.3394 24.9242 65.3394 26.0411V47.5664C65.3528 48.0962 65.5726 48.5998 65.952 48.9697C66.3315 49.3397 66.8404 49.5468 67.3704 49.5468C67.9003 49.5468 68.4093 49.3397 68.7887 48.9697C69.1681 48.5998 69.388 48.0962 69.4014 47.5664V26.0411ZM80.556 33.6831C80.556 33.1444 80.342 32.6278 79.9611 32.2469C79.5803 31.8661 79.0637 31.6521 78.525 31.6521C77.9864 31.6521 77.4698 31.8661 77.0889 32.2469C76.708 32.6278 76.494 33.1444 76.494 33.6831V43.5226C76.494 44.0612 76.708 44.5778 77.0889 44.9587C77.4698 45.3396 77.9864 45.5536 78.525 45.5536C79.0637 45.5536 79.5803 45.3396 79.9611 44.9587C80.342 44.5778 80.556 44.0612 80.556 43.5226V33.6817V33.6831ZM91.699 39.2675C91.6993 38.7317 91.4869 38.2176 91.1083 37.8383C90.7298 37.4591 90.2161 37.2456 89.6803 37.2449C89.1433 37.2446 88.628 37.4572 88.2474 37.836C87.8669 38.2149 87.652 38.7292 87.6499 39.2662V43.5226C87.6499 44.0595 87.8632 44.5745 88.2429 44.9541C88.6226 45.3338 89.1375 45.5471 89.6745 45.5471C90.2114 45.5471 90.7263 45.3338 91.106 44.9541C91.4857 44.5745 91.699 44.0595 91.699 43.5226V39.2675ZM102.859 33.6831C102.845 33.155 102.626 32.653 102.248 32.2843C101.87 31.9155 101.363 31.7091 100.834 31.7091C100.306 31.7091 99.7987 31.9155 99.4205 32.2843C99.0423 32.653 98.8231 33.155 98.8098 33.6831V43.5226C98.8098 44.0595 99.0231 44.5745 99.4027 44.9541C99.7824 45.3338 100.297 45.5471 100.834 45.5471C101.371 45.5471 101.886 45.3338 102.266 44.9541C102.645 44.5745 102.859 44.0595 102.859 43.5226V33.6817V33.6831ZM114.021 26.0411C114.021 25.5041 113.808 24.9892 113.428 24.6095C113.049 24.2298 112.534 24.0165 111.997 24.0165C111.46 24.0165 110.945 24.2298 110.565 24.6095C110.185 24.9892 109.972 25.5041 109.972 26.0411V47.5664C109.96 47.8397 110.004 48.1126 110.1 48.3687C110.196 48.6248 110.344 48.8587 110.533 49.0563C110.722 49.254 110.949 49.4113 111.201 49.5187C111.452 49.6262 111.723 49.6816 111.997 49.6816C112.27 49.6816 112.541 49.6262 112.793 49.5187C113.044 49.4113 113.271 49.254 113.461 49.0563C113.65 48.8587 113.797 48.6248 113.893 48.3687C113.99 48.1126 114.033 47.8397 114.021 47.5664V26.0411ZM125.181 33.6831C125.181 32.5649 124.275 31.6566 123.131 31.6566C122.594 31.6569 122.08 31.8704 121.7 32.2502C121.321 32.6299 121.107 33.1449 121.107 33.6817V43.5226C121.107 44.646 122.014 45.5516 123.131 45.5516C124.275 45.5516 125.181 44.646 125.181 43.5226V33.6817V33.6831ZM136.32 39.2675C136.32 38.7301 136.107 38.2146 135.727 37.8345C135.347 37.4545 134.831 37.241 134.294 37.241C133.756 37.241 133.241 37.4545 132.861 37.8345C132.481 38.2146 132.267 38.7301 132.267 39.2675V43.5226C132.267 44.646 133.175 45.5529 134.294 45.5529C135.411 45.5529 136.319 44.646 136.319 43.5226V39.2675H136.32Z" fill="#15495D" />
    <path d="M133.979 70.7635V71.0174H133.256V72.8975H132.958V71.0188H132.232V70.7635H133.979ZM134.13 70.7635H134.595L135.234 72.514H135.245L135.863 70.7648H136.319V72.8975H136.014V71.1483H136.004L135.356 72.8975H135.075L134.443 71.1483H134.428V72.8975H134.13V70.7635Z" fill="#C4122E" />

</svg>
