<svg width="101" height="100" viewBox="0 0 101 100" fill="none" xmlns="http://www.w3.org/2000/svg">
<g clip-path="url(#clip0)">
<path d="M89.454 69.0275L69.5182 34.4996L64.6958 26.1477L55.3767 10.0056C53.3478 6.49267 49.8726 4.64773 46.3266 4.47314C46.1402 4.4637 45.9562 4.45898 45.7698 4.45898C44.8638 4.45898 43.9555 4.56751 43.0708 4.78692C40.3128 5.46639 37.779 7.20753 36.1629 10.0056L20.1057 37.8167L15.2833 46.1685L2.08559 69.0275C-0.346815 73.2411 0.339732 78.054 2.95852 81.416C3.52474 82.1426 4.18298 82.8032 4.91907 83.3742C6.75222 84.7968 9.07138 85.6674 11.6925 85.6674H47.6006H57.2453H79.8447C83.9475 85.6674 87.3118 83.5323 89.2251 80.4959C89.7088 79.7291 90.0981 78.9034 90.3859 78.0422C91.3296 75.2088 91.1527 71.9718 89.454 69.0275ZM47.1665 78.5731H37.5218H12.0606H11.6925C11.4118 78.5731 11.1428 78.5471 10.8809 78.4976C10.4374 78.4126 10.0222 78.2546 9.64233 78.0257C9.06666 77.6789 8.57829 77.1764 8.22912 76.5724C7.87995 75.9684 7.68885 75.2937 7.67705 74.6213C7.66526 73.9159 7.84928 73.227 8.22912 72.5711L26.4639 40.9852L31.2862 32.6334L42.304 13.5492C42.3866 13.4077 42.4739 13.2709 42.5683 13.1435C42.8231 12.7966 43.1203 12.5017 43.4577 12.2634C43.5686 12.1856 43.6842 12.1125 43.8045 12.0464C44.392 11.7208 45.0714 11.5486 45.7698 11.5486C46.4681 11.5486 47.1476 11.7208 47.7351 12.0464C48.3508 12.3885 48.8557 12.8934 49.2332 13.5492L63.5917 38.4183L68.414 46.7701L83.3105 72.5711C83.3647 72.6655 83.4143 72.7598 83.4615 72.8542C83.6408 73.2199 83.7587 73.5974 83.8177 73.9796C83.8507 74.1919 83.8649 74.4042 83.8625 74.6213C83.8507 75.2937 83.6596 75.9661 83.3105 76.5724C82.9613 77.1787 82.4729 77.6813 81.8973 78.0257C81.2933 78.389 80.6044 78.5731 79.847 78.5731H47.1665V78.5731Z" fill="#D96464"/>
<path d="M47.3576 28.5469C46.8645 28.3652 46.329 28.2661 45.7698 28.2661C45.331 28.2661 44.9063 28.3275 44.5053 28.4407C42.4149 29.0352 40.9522 31.0619 41.181 33.3409L42.9481 50.8467L43.7526 58.8234C43.8541 59.8238 44.6964 60.5858 45.7014 60.5858C45.9397 60.5858 46.1662 60.5433 46.3785 60.4655C47.0604 60.2154 47.57 59.5926 47.6502 58.8329L48.5278 50.5778L49.547 40.9873L50.3563 33.3645C50.5875 31.1987 49.2804 29.2523 47.3576 28.5469Z" fill="#D96464"/>
<path d="M46.3809 63.6153C46.1332 63.5705 45.876 63.5469 45.6141 63.5469C44.9347 63.5469 44.2953 63.7073 43.7267 63.9904C42.3371 64.684 41.384 66.1185 41.384 67.777V67.8124C41.384 69.688 42.6037 71.2782 44.293 71.8326C44.7082 71.9695 45.1517 72.0426 45.6141 72.0426C46.0884 72.0426 46.5437 71.9647 46.9684 71.8208C47.5912 71.6108 48.1504 71.2593 48.6057 70.8016C49.3725 70.0372 49.8443 68.9779 49.8443 67.8101V67.7747C49.8443 65.7009 48.3509 63.9763 46.3809 63.6153Z" fill="#D96464"/>
<path d="M94.7601 68.8719C94.6468 67.8008 94.3897 66.7485 93.998 65.7459C93.5899 64.7031 93.0307 63.7074 92.3395 62.792L64.696 26.1455L69.5183 34.4973L91.3958 63.5022C94.9441 68.2066 94.0594 74.343 90.3884 78.0376C90.1005 78.9011 89.7113 79.7245 89.2276 80.4913C89.5249 80.2978 89.8151 80.0926 90.0935 79.8732C91.7237 78.5968 93.019 76.9028 93.8376 74.9706C94.6586 73.0407 94.9771 70.9315 94.7601 68.8719Z" fill="#333333"/>
<path d="M16.2554 89.5298C11.2066 90.1527 6.88439 87.3805 4.91912 83.3745C3.58613 80.6566 3.33841 77.3702 4.68555 74.1922L20.1057 37.8194L31.2863 11.4427C32.9519 7.51219 36.4342 5.21898 40.143 4.76364C41.1126 4.64332 42.0988 4.65039 43.0732 4.78487C43.9579 4.56782 44.8639 4.45693 45.7722 4.45693C45.9586 4.45693 46.1449 4.46165 46.329 4.47109C46.2582 4.44042 46.1898 4.41211 46.119 4.3838C44.1986 3.60996 42.0823 3.33392 40.0014 3.59108C37.9182 3.84824 35.934 4.6268 34.259 5.84418C33.3884 6.47647 32.6051 7.22436 31.9327 8.06662C31.232 8.94191 30.6516 9.92336 30.2034 10.9803L15.2834 46.1688L3.60029 73.7298C3.15203 74.7868 2.8524 75.8862 2.70848 76.9998C2.57165 78.0685 2.57636 79.1514 2.72736 80.2154C2.78398 80.6189 2.86184 81.0199 2.95857 81.4163C3.35492 83.03 4.08394 84.5659 5.10078 85.9107C6.36535 87.5858 8.03099 88.9164 9.92548 89.7563C10.9093 90.1928 11.9474 90.4971 13.0138 90.6576C14.1226 90.8251 15.2621 90.8392 16.4017 90.7L57.2477 85.6654H47.603L16.2554 89.5298Z" fill="#333333"/>
<path d="M85.7335 67.7749L63.5918 38.4208L44.694 13.363C44.3425 12.8982 43.9296 12.5302 43.4578 12.266C43.3186 12.1857 43.1723 12.1173 43.0213 12.056C42.3985 11.8059 41.7025 11.7163 41.0088 11.8035C40.3152 11.8885 39.6617 12.1433 39.1191 12.5373C38.5505 12.9525 38.1117 13.514 37.8144 14.2124L26.464 40.9901L11.216 76.9595C10.999 77.4691 10.8881 77.9858 10.8834 78.5001C11.1429 78.5496 11.4142 78.5756 11.695 78.5756H12.063C12.0583 78.1958 12.1385 77.8088 12.3036 77.4219L31.2887 32.6383L38.9044 14.6748C39.1144 14.177 39.4211 13.7806 39.8151 13.4928C40.1973 13.2144 40.6597 13.0351 41.1551 12.9761C41.6459 12.9148 42.1366 12.9761 42.5707 13.1483C42.5754 13.1507 42.5778 13.1507 42.5825 13.153C43.0355 13.3347 43.4295 13.6461 43.7527 14.0779L68.4165 46.775L84.7945 68.4874C85.1201 68.9191 85.3112 69.3839 85.3607 69.8675C85.4103 70.337 85.3348 70.8278 85.139 71.2878C84.9431 71.7479 84.6459 72.1442 84.2731 72.4344C84.0348 72.6208 83.7635 72.7647 83.4639 72.8614C83.2822 72.9204 83.0887 72.9629 82.8859 72.9865L37.5242 78.578H47.1689L83.0321 74.1567C83.3082 74.1237 83.5724 74.0647 83.8225 73.9845C84.2566 73.8453 84.6506 73.6376 85.0021 73.364C85.5306 72.9511 85.9553 72.392 86.2266 71.7479C86.5003 71.1038 86.6064 70.4125 86.5356 69.7448C86.4578 69.0394 86.1912 68.3788 85.7335 67.7749Z" fill="#333333"/>
<path d="M43.0543 28.3937C43.2478 28.3701 43.4389 28.3583 43.6276 28.3583C43.9273 28.3583 44.2198 28.3866 44.5053 28.4432C44.9063 28.33 45.331 28.2686 45.7698 28.2686C46.329 28.2686 46.8645 28.3677 47.3576 28.5494C46.7678 28.0492 46.0954 27.6788 45.3593 27.4476C44.5666 27.1975 43.7432 27.122 42.9104 27.2259C42.0799 27.3273 41.3014 27.5986 40.596 28.0327C39.9165 28.448 39.3408 28.9906 38.8808 29.6465C38.4207 30.3 38.1069 31.029 37.9465 31.8076C37.779 32.6191 37.7884 33.4425 37.9725 34.2588L43.6418 59.2341C43.814 59.9937 44.2599 60.6591 44.8993 61.1073C45.5363 61.5556 46.3148 61.749 47.0887 61.6547C47.8601 61.5603 48.5656 61.1852 49.0728 60.5977C49.5824 60.0126 49.8561 59.2624 49.8419 58.4862L49.547 40.9946L48.5278 50.585L48.6623 58.5074C48.6788 59.5101 47.938 60.3618 46.9424 60.4845C46.7513 60.5081 46.5626 60.5033 46.3809 60.4727C45.6141 60.3453 44.9724 59.7673 44.7931 58.9722L42.9505 50.8539L39.1238 33.997C38.5175 31.3286 40.3459 28.7263 43.0543 28.3937Z" fill="#333333"/>
<path d="M48.2542 71.8585C48.0796 71.8798 47.9027 71.8916 47.7305 71.8916C47.4709 71.8916 47.2138 71.868 46.966 71.8208C46.5414 71.9647 46.086 72.0425 45.6118 72.0425C45.1494 72.0425 44.7058 71.9694 44.2906 71.8326C44.3284 71.8632 44.3661 71.8939 44.4062 71.9246C44.9606 72.3563 45.5811 72.6725 46.2559 72.8659C46.9542 73.0641 47.6738 73.1207 48.3981 73.0311C49.1224 72.9414 49.809 72.7126 50.4366 72.3516C51.0429 72.0024 51.569 71.5447 52.0008 70.9903C52.4325 70.4359 52.7487 69.8154 52.9421 69.1406C53.1403 68.4423 53.1969 67.7227 53.1073 66.9984L53.1025 66.9654C53.0129 66.2411 52.784 65.5545 52.4231 64.927C52.0739 64.3206 51.6162 63.7945 51.0618 63.3628C50.5073 62.931 49.8868 62.6149 49.2144 62.4238C48.5161 62.2256 47.7965 62.169 47.0722 62.2586C46.3479 62.3483 45.6614 62.5771 45.0338 62.9381C44.5431 63.2212 44.1042 63.5751 43.7267 63.9927C44.2953 63.7096 44.9371 63.5492 45.6142 63.5492C45.8761 63.5492 46.1332 63.5728 46.3809 63.6176C46.6475 63.5279 46.9259 63.4642 47.2161 63.4288C47.3907 63.4076 47.5653 63.3958 47.7375 63.3958C49.8444 63.3958 51.6681 64.9671 51.9323 67.1093L51.9371 67.1423C52.2225 69.4615 50.5734 71.5731 48.2542 71.8585Z" fill="#333333"/>
<path d="M63.8725 19.2703L64.4836 20.2872C64.7974 20.8062 65.4721 20.9737 65.9912 20.6623C66.5102 20.3485 66.6777 19.6738 66.3663 19.1547L65.7552 18.1379C65.7198 18.0789 65.6797 18.0246 65.6349 17.9751C65.2904 17.5858 64.7077 17.4867 64.2476 17.7651C63.7262 18.0765 63.5587 18.7513 63.8725 19.2703Z" fill="#333333"/>
<path d="M66.4111 23.4866L67.0221 24.5035C67.3359 25.0225 68.0107 25.19 68.5298 24.8786C69.0489 24.5648 69.2164 23.8901 68.9049 23.371L68.2915 22.3542C68.2561 22.2952 68.216 22.2409 68.1712 22.1914C67.8267 21.8021 67.2439 21.703 66.7838 21.9814C66.2648 22.2905 66.0973 22.9676 66.4111 23.4866Z" fill="#333333"/>
<path d="M68.9497 27.7005L69.5607 28.7173C69.8745 29.2364 70.5493 29.4039 71.0684 29.0924C71.5875 28.7787 71.755 28.1039 71.4435 27.5849L70.8325 26.568C70.7971 26.5091 70.757 26.4548 70.7121 26.4053C70.3677 26.016 69.7849 25.9169 69.3248 26.1953C68.8057 26.5067 68.6382 27.1815 68.9497 27.7005Z" fill="#333333"/>
<path d="M57.0661 7.82331C57.3798 8.34235 58.0546 8.50986 58.5736 8.19844C59.0926 7.88465 59.2601 7.2099 58.9487 6.69086L58.3377 5.67401C58.3023 5.61503 58.2622 5.56077 58.2174 5.51122C57.8729 5.12194 57.2902 5.02285 56.8301 5.30125C56.3111 5.61503 56.1436 6.28978 56.455 6.80883L57.0661 7.82331Z" fill="#333333"/>
<path d="M58.9935 11.0228L59.6045 12.0396C59.9183 12.5587 60.5931 12.7262 61.1121 12.4147C61.6312 12.101 61.7987 11.4262 61.4873 10.9072L60.8762 9.89032C60.8408 9.83134 60.8007 9.77708 60.7559 9.72753C60.4114 9.33825 59.8287 9.23916 59.3686 9.51756C58.8472 9.82662 58.6797 10.5014 58.9935 11.0228Z" fill="#333333"/>
<path d="M61.5322 15.2362L62.1432 16.253C62.457 16.772 63.1318 16.9396 63.6508 16.6281C64.1698 16.3143 64.3373 15.6396 64.0259 15.1206L63.4149 14.1037C63.3795 14.0447 63.3394 13.9905 63.2946 13.9409C62.9501 13.5516 62.3674 13.4525 61.9073 13.7309C61.3859 14.0424 61.2184 14.7171 61.5322 15.2362Z" fill="#333333"/>
<path d="M33.0487 90.0722L31.8714 90.2232C31.803 90.2326 31.7369 90.2468 31.6732 90.268C31.1802 90.4261 30.8522 90.9192 30.9206 91.4524C30.9985 92.054 31.5482 92.4787 32.1498 92.4032L33.3271 92.2522C33.9287 92.1744 34.3534 91.6246 34.2779 91.023C34.2 90.4214 33.6503 89.9967 33.0487 90.0722Z" fill="#333333"/>
<path d="M37.93 89.4472L36.7528 89.5982C36.6844 89.6076 36.6183 89.6218 36.5546 89.643C36.0615 89.8011 35.7336 90.2941 35.802 90.8273C35.8798 91.4289 36.4295 91.8536 37.0312 91.7781L38.2084 91.6271C38.8101 91.5492 39.2347 90.9995 39.1592 90.3979C39.0814 89.7963 38.5317 89.3717 37.93 89.4472Z" fill="#333333"/>
<path d="M42.8113 88.8217L41.6341 88.9727C41.5656 88.9821 41.4996 88.9963 41.4359 89.0175C40.9428 89.1756 40.6148 89.6686 40.6833 90.2018C40.7611 90.8034 41.3108 91.2281 41.9124 91.1526L43.0897 91.0016C43.6913 90.9238 44.116 90.3741 44.0405 89.7725C43.9627 89.1708 43.4129 88.7462 42.8113 88.8217Z" fill="#333333"/>
<path d="M18.6501 91.8393L17.4728 91.9903C17.4044 91.9997 17.3383 92.0139 17.2746 92.0351C16.7815 92.1932 16.4536 92.6862 16.522 93.2194C16.5999 93.821 17.1496 94.2457 17.7512 94.1702L18.9285 94.0192C19.5301 93.9413 19.9548 93.3916 19.8793 92.79C19.8038 92.1861 19.2517 91.7614 18.6501 91.8393Z" fill="#333333"/>
<path d="M23.5314 91.2143L22.3541 91.3653C22.2857 91.3747 22.2197 91.3889 22.156 91.4101C21.6629 91.5681 21.3349 92.0612 21.4034 92.5944C21.4812 93.1959 22.0309 93.6206 22.6325 93.5451L23.8098 93.3941C24.4114 93.3162 24.8361 92.7666 24.7606 92.165C24.6851 91.5611 24.133 91.1364 23.5314 91.2143Z" fill="#333333"/>
<path d="M28.4127 90.5893L27.2354 90.7403C27.167 90.7497 27.101 90.7639 27.0373 90.7851C26.5442 90.9432 26.2162 91.4363 26.2846 91.9695C26.3625 92.5711 26.9122 92.9958 27.5138 92.9203L28.6911 92.7693C29.2927 92.6915 29.7174 92.1417 29.6419 91.5401C29.564 90.9361 29.0143 90.5114 28.4127 90.5893Z" fill="#333333"/>
<path d="M78.0919 39.2018L79.6585 37.6353C79.9888 37.305 79.9888 36.7694 79.6585 36.4391C79.3282 36.1088 78.7926 36.1088 78.4623 36.4391L76.8958 38.0057C76.5655 38.336 76.5655 38.8715 76.8958 39.2018C77.2285 39.5321 77.7616 39.5321 78.0919 39.2018Z" fill="#333333"/>
<path d="M84.7379 32.5558L86.3044 30.9893C86.6347 30.659 86.6347 30.1234 86.3044 29.7931C85.9741 29.4628 85.4386 29.4628 85.1083 29.7931L83.5417 31.3597C83.2114 31.69 83.2114 32.2255 83.5417 32.5558C83.872 32.8861 84.4076 32.8861 84.7379 32.5558Z" fill="#333333"/>
<path d="M85.1106 39.2018C85.4409 39.5321 85.9765 39.5321 86.3068 39.2018C86.6371 38.8715 86.6371 38.336 86.3068 38.0057L84.7402 36.4391C84.4099 36.1088 83.8743 36.1088 83.544 36.4391C83.2138 36.7694 83.2138 37.305 83.544 37.6353L85.1106 39.2018Z" fill="#333333"/>
<path d="M78.4646 32.5558C78.7949 32.8861 79.3304 32.8861 79.6607 32.5558C79.991 32.2255 79.991 31.69 79.6607 31.3597L78.0942 29.7931C77.7639 29.4628 77.2284 29.4628 76.8981 29.7931C76.5678 30.1234 76.5678 30.659 76.8981 30.9893L78.4646 32.5558Z" fill="#333333"/>
<path d="M94.8001 82.7162L93.6937 83.8227C93.4601 84.0563 93.4601 84.4338 93.6937 84.6674C93.9272 84.9009 94.3047 84.9009 94.5383 84.6674L95.6447 83.5608C95.8783 83.3273 95.8783 82.9498 95.6447 82.7162C95.4112 82.4826 95.0337 82.4826 94.8001 82.7162Z" fill="#333333"/>
<path d="M99.2332 79.9719L100.34 78.8655C100.573 78.6319 100.573 78.2544 100.34 78.0209C100.106 77.7873 99.7287 77.7873 99.4951 78.0209L98.3886 79.1273C98.155 79.3609 98.155 79.7384 98.3886 79.9719C98.6222 80.2055 98.9997 80.2055 99.2332 79.9719Z" fill="#333333"/>
<path d="M99.2332 82.7162C98.9997 82.4826 98.6222 82.4826 98.3886 82.7162C98.155 82.9498 98.155 83.3273 98.3886 83.5608L99.4951 84.6674C99.7287 84.9009 100.106 84.9009 100.34 84.6674C100.573 84.4338 100.573 84.0563 100.34 83.8227L99.2332 82.7162Z" fill="#333333"/>
<path d="M94.5383 78.0209C94.3047 77.7873 93.9272 77.7873 93.6937 78.0209C93.4601 78.2544 93.4601 78.6319 93.6937 78.8655L94.8001 79.9719C95.0337 80.2055 95.4112 80.2055 95.6447 79.9719C95.8783 79.7384 95.8783 79.3609 95.6447 79.1273L94.5383 78.0209Z" fill="#333333"/>
<path d="M1.28112 55.4501L0.174626 56.5565C-0.0589412 56.7901 -0.0589412 57.1676 0.174626 57.4011C0.408194 57.6347 0.785677 57.6347 1.01924 57.4011L2.12574 56.2947C2.35931 56.0611 2.35931 55.6836 2.12574 55.4501C1.89217 55.2165 1.51469 55.2165 1.28112 55.4501Z" fill="#333333"/>
<path d="M5.71419 52.7061L6.82069 51.5995C7.05425 51.3659 7.05425 50.9884 6.82069 50.7548C6.58712 50.5212 6.20964 50.5212 5.97607 50.7548L4.86957 51.8614C4.63601 52.095 4.63601 52.4725 4.86957 52.7061C5.10314 52.9396 5.48062 52.9396 5.71419 52.7061Z" fill="#333333"/>
<path d="M5.97607 57.4011C6.20964 57.6347 6.58712 57.6347 6.82069 57.4011C7.05425 57.1676 7.05425 56.7901 6.82069 56.5565L5.71419 55.4501C5.48062 55.2165 5.10314 55.2165 4.86957 55.4501C4.63601 55.6836 4.63601 56.0611 4.86957 56.2947L5.97607 57.4011Z" fill="#333333"/>
<path d="M1.01924 50.7548C0.785677 50.5212 0.408194 50.5212 0.174626 50.7548C-0.0589412 50.9884 -0.0589412 51.3659 0.174626 51.5995L1.28112 52.7061C1.51469 52.9396 1.89217 52.9396 2.12574 52.7061C2.35931 52.4725 2.35931 52.095 2.12574 51.8614L1.01924 50.7548Z" fill="#333333"/>
<path d="M23.798 6.82065L24.9045 5.71414C25.138 5.48057 25.138 5.10308 24.9045 4.86951C24.6709 4.63594 24.2934 4.63594 24.0599 4.86951L22.9534 5.97602C22.7198 6.20959 22.7198 6.58708 22.9534 6.82065C23.1869 7.05421 23.5644 7.05421 23.798 6.82065Z" fill="#333333"/>
<path d="M28.4929 2.1258L29.5994 1.01931C29.833 0.785738 29.833 0.408255 29.5994 0.174687C29.3659 -0.0588802 28.9884 -0.0588802 28.7548 0.174687L27.6483 1.28118C27.4148 1.51475 27.4148 1.89224 27.6483 2.1258C27.8819 2.35937 28.2594 2.35937 28.4929 2.1258Z" fill="#333333"/>
<path d="M28.7572 6.82065C28.9908 7.05421 29.3683 7.05421 29.6018 6.82065C29.8354 6.58708 29.8354 6.20959 29.6018 5.97602L28.4953 4.86951C28.2618 4.63594 27.8843 4.63594 27.6507 4.86951C27.4171 5.10308 27.4171 5.48057 27.6507 5.71414L28.7572 6.82065Z" fill="#333333"/>
<path d="M24.0622 2.1258C24.2958 2.35937 24.6733 2.35937 24.9068 2.1258C25.1404 1.89224 25.1404 1.51475 24.9068 1.28118L23.8004 0.174687C23.5668 -0.0588802 23.1893 -0.0588802 22.9558 0.174687C22.7222 0.408255 22.7222 0.785738 22.9558 1.01931L24.0622 2.1258Z" fill="#333333"/>
<path d="M6.54937 97.8744L5.44288 98.9809C5.20931 99.2144 5.20931 99.5919 5.44288 99.8255C5.67644 100.059 6.05392 100.059 6.28749 99.8255L7.39398 98.719C7.62755 98.4854 7.62755 98.108 7.39398 97.8744C7.16041 97.6408 6.78293 97.6408 6.54937 97.8744Z" fill="#333333"/>
<path d="M11.2443 93.1796L10.1378 94.286C9.90425 94.5196 9.90425 94.8971 10.1378 95.1306C10.3714 95.3642 10.7489 95.3642 10.9824 95.1306L12.0889 94.0242C12.3225 93.7906 12.3225 93.4131 12.0889 93.1796C11.8554 92.946 11.4779 92.946 11.2443 93.1796Z" fill="#333333"/>
<path d="M10.9824 97.8744C10.7489 97.6408 10.3714 97.6408 10.1378 97.8744C9.90425 98.108 9.90425 98.4854 10.1378 98.719L11.2443 99.8255C11.4779 100.059 11.8554 100.059 12.0889 99.8255C12.3225 99.5919 12.3225 99.2144 12.0889 98.9809L10.9824 97.8744Z" fill="#333333"/>
<path d="M6.28749 93.1796C6.05392 92.946 5.67644 92.946 5.44288 93.1796C5.20931 93.4131 5.20931 93.7906 5.44288 94.0242L6.54937 95.1306C6.78293 95.3642 7.16041 95.3642 7.39398 95.1306C7.62755 94.8971 7.62755 94.5196 7.39398 94.286L6.28749 93.1796Z" fill="#333333"/>
</g>
<defs>
<clipPath id="clip0">
<rect width="100.514" height="100" fill="white"/>
</clipPath>
</defs>
</svg>
