<svg width="60" height="19" viewBox="0 0 60 19" fill="none" xmlns="http://www.w3.org/2000/svg">
  <path d="M0.523438 18V0.9375H6.5C8.57031 0.9375 10.1406 1.33594 11.2109 2.13281C12.2812 2.92188 12.8164 4.08203 12.8164 5.61328C12.8164 6.44922 12.6016 7.1875 12.1719 7.82812C11.7422 8.46094 11.1445 8.92578 10.3789 9.22266C11.2539 9.44141 11.9414 9.88281 12.4414 10.5469C12.9492 11.2109 13.2031 12.0234 13.2031 12.9844C13.2031 14.625 12.6797 15.8672 11.6328 16.7109C10.5859 17.5547 9.09375 17.9844 7.15625 18H0.523438ZM4.03906 10.5703V15.1758H7.05078C7.87891 15.1758 8.52344 14.9805 8.98438 14.5898C9.45312 14.1914 9.6875 13.6445 9.6875 12.9492C9.6875 11.3867 8.87891 10.5938 7.26172 10.5703H4.03906ZM4.03906 8.08594H6.64062C8.41406 8.05469 9.30078 7.34766 9.30078 5.96484C9.30078 5.19141 9.07422 4.63672 8.62109 4.30078C8.17578 3.95703 7.46875 3.78516 6.5 3.78516H4.03906V8.08594ZM15.1016 11.543C15.1016 10.2852 15.3438 9.16406 15.8281 8.17969C16.3125 7.19531 17.0078 6.43359 17.9141 5.89453C18.8281 5.35547 19.8867 5.08594 21.0898 5.08594C22.8008 5.08594 24.1953 5.60938 25.2734 6.65625C26.3594 7.70312 26.9648 9.125 27.0898 10.9219L27.1133 11.7891C27.1133 13.7344 26.5703 15.2969 25.4844 16.4766C24.3984 17.6484 22.9414 18.2344 21.1133 18.2344C19.2852 18.2344 17.8242 17.6484 16.7305 16.4766C15.6445 15.3047 15.1016 13.7109 15.1016 11.6953V11.543ZM18.4883 11.7891C18.4883 12.9922 18.7148 13.9141 19.168 14.5547C19.6211 15.1875 20.2695 15.5039 21.1133 15.5039C21.9336 15.5039 22.5742 15.1914 23.0352 14.5664C23.4961 13.9336 23.7266 12.9258 23.7266 11.543C23.7266 10.3633 23.4961 9.44922 23.0352 8.80078C22.5742 8.15234 21.9258 7.82812 21.0898 7.82812C20.2617 7.82812 19.6211 8.15234 19.168 8.80078C18.7148 9.44141 18.4883 10.4375 18.4883 11.7891ZM32.3164 5.32031L32.4219 6.78516C33.3281 5.65234 34.543 5.08594 36.0664 5.08594C37.4102 5.08594 38.4102 5.48047 39.0664 6.26953C39.7227 7.05859 40.0586 8.23828 40.0742 9.80859V18H36.6875V9.89062C36.6875 9.17188 36.5312 8.65234 36.2188 8.33203C35.9062 8.00391 35.3867 7.83984 34.6602 7.83984C33.707 7.83984 32.9922 8.24609 32.5156 9.05859V18H29.1289V5.32031H32.3164ZM42.125 11.5664C42.125 9.58984 42.5664 8.01562 43.4492 6.84375C44.3398 5.67188 45.5547 5.08594 47.0938 5.08594C48.3281 5.08594 49.3477 5.54688 50.1523 6.46875V0H53.5508V18H50.4922L50.3281 16.6523C49.4844 17.707 48.3984 18.2344 47.0703 18.2344C45.5781 18.2344 44.3789 17.6484 43.4727 16.4766C42.5742 15.2969 42.125 13.6602 42.125 11.5664ZM45.5117 11.8125C45.5117 13 45.7188 13.9102 46.1328 14.543C46.5469 15.1758 47.1484 15.4922 47.9375 15.4922C48.9844 15.4922 49.7227 15.0508 50.1523 14.168V9.16406C49.7305 8.28125 49 7.83984 47.9609 7.83984C46.3281 7.83984 45.5117 9.16406 45.5117 11.8125ZM59.75 18H56.3516V5.32031H59.75V18ZM56.1523 2.03906C56.1523 1.53125 56.3203 1.11328 56.6562 0.785156C57 0.457031 57.4648 0.292969 58.0508 0.292969C58.6289 0.292969 59.0898 0.457031 59.4336 0.785156C59.7773 1.11328 59.9492 1.53125 59.9492 2.03906C59.9492 2.55469 59.7734 2.97656 59.4219 3.30469C59.0781 3.63281 58.6211 3.79688 58.0508 3.79688C57.4805 3.79688 57.0195 3.63281 56.668 3.30469C56.3242 2.97656 56.1523 2.55469 56.1523 2.03906Z" fill="url(#paint0_angular)" />
  <defs>
    <radialGradient id="paint0_angular" cx="0" cy="0" r="1" gradientUnits="userSpaceOnUse" gradientTransform="translate(34.7568 10.8571) scale(32.3514 57.3878)">
      <stop stop-color="#295CD4" />
      <stop offset="1" stop-color="#E5F6F6" />
    </radialGradient>
  </defs>
</svg>