<svg xmlns="http://www.w3.org/2000/svg" xmlns:xlink="http://www.w3.org/1999/xlink" viewBox="0 0 488.17 114.46">
    <defs>
        <style>.cls-1{fill:#182a3d;}.cls-2{fill:url(#linear-gradient);}.cls-3,.cls-5{opacity:0.9;}.cls-3{fill:url(#linear-gradient-2);}.cls-4{fill:url(#linear-gradient-3);}.cls-5{fill:url(#linear-gradient-4);}</style>
        <linearGradient id="linear-gradient" x1="24.31" y1="57.23" x2="94.8" y2="57.23" gradientUnits="userSpaceOnUse">
            <stop offset="0" stop-color="#47a3e7" />
            <stop offset="1" stop-color="#295CD4" />
        </linearGradient>
        <linearGradient id="linear-gradient-2" x1="57.45" y1="57.23" x2="131.18" y2="57.23" gradientUnits="userSpaceOnUse">
            <stop offset="0" stop-color="#87f0fc" stop-opacity="0.85" />
            <stop offset="1" stop-color="#7cdcf9" stop-opacity="0.85" />
        </linearGradient>
        <linearGradient id="linear-gradient-3" x1="0" y1="57.23" x2="42.92" y2="57.23" xlink:href="#linear-gradient" />
        <linearGradient id="linear-gradient-4" x1="-1905.29" y1="-556.08" x2="-1862.38" y2="-556.08" gradientTransform="translate(-1752 -498.86) rotate(180)" xlink:href="#linear-gradient-2" />
    </defs>
    <g id="Layer_2" data-name="Layer 2">
        <g id="Layer_1-2" data-name="Layer 1">
            <path class="cls-1" d="M191.7,38.71a20.1,20.1,0,0,1,9.54-2.2,21.33,21.33,0,0,1,11.3,3.08,21.65,21.65,0,0,1,8,8.75,28.22,28.22,0,0,1,2.95,13.15,28.72,28.72,0,0,1-2.95,13.24,22.1,22.1,0,0,1-8,8.93,20.87,20.87,0,0,1-11.3,3.17,20.1,20.1,0,0,1-9.54-2.16,18.51,18.51,0,0,1-6.56-5.58v7H172.83V20.94h12.31V44.43A17.65,17.65,0,0,1,191.7,38.71Zm17.41,15.17A12.47,12.47,0,0,0,204.36,49,12.73,12.73,0,0,0,198,47.33a12.23,12.23,0,0,0-6.29,1.72A12.65,12.65,0,0,0,187,54a15.46,15.46,0,0,0-1.81,7.65A15.46,15.46,0,0,0,187,69.32a12.65,12.65,0,0,0,4.75,5,12.38,12.38,0,0,0,12.66,0,13,13,0,0,0,4.75-5,15.77,15.77,0,0,0,1.81-7.75A15.35,15.35,0,0,0,209.11,53.88Z" />
            <path class="cls-1" d="M239.24,83.71a22.57,22.57,0,0,1-8.84-8.84,26.52,26.52,0,0,1-3.21-13.2,26,26,0,0,1,3.3-13.2,23,23,0,0,1,9-8.84,27.63,27.63,0,0,1,25.51,0,23,23,0,0,1,9,8.84,26,26,0,0,1,3.3,13.2,25.41,25.41,0,0,1-3.39,13.2,23.45,23.45,0,0,1-9.14,8.84,26.66,26.66,0,0,1-12.89,3.12A25.69,25.69,0,0,1,239.24,83.71Zm19-9.24a11.93,11.93,0,0,0,4.71-4.88,16.49,16.49,0,0,0,1.75-7.92q0-6.95-3.65-10.69a12,12,0,0,0-8.92-3.74A11.75,11.75,0,0,0,243.24,51q-3.56,3.75-3.56,10.69t3.48,10.69a11.43,11.43,0,0,0,8.75,3.74A12.77,12.77,0,0,0,258.2,74.47Z" />
            <path class="cls-1" d="M302.71,38.8a17.21,17.21,0,0,1,8.75-2.2V49.53h-3.25q-5.81,0-8.76,2.73t-2.94,9.5V86H284.19V37.3h12.32v7.57A17.33,17.33,0,0,1,302.71,38.8Z" />
            <path class="cls-1" d="M317.31,48.39a21.25,21.25,0,0,1,19.4-11.88,20.68,20.68,0,0,1,9.06,2.07,18.13,18.13,0,0,1,6.86,5.5V20.94h12.49V86H352.63V78.82a16.76,16.76,0,0,1-6.42,5.81,20.19,20.19,0,0,1-9.59,2.2,20.93,20.93,0,0,1-11.26-3.17,22,22,0,0,1-8.05-8.93,28.72,28.72,0,0,1-2.95-13.24A28.25,28.25,0,0,1,317.31,48.39ZM351,54a12.44,12.44,0,0,0-4.75-4.92,12.53,12.53,0,0,0-17.46,4.83,15.25,15.25,0,0,0-1.81,7.61,15.71,15.71,0,0,0,1.81,7.7,12.91,12.91,0,0,0,4.75,5.06A12.08,12.08,0,0,0,339.79,76a12.67,12.67,0,0,0,6.42-1.72A12.44,12.44,0,0,0,351,69.37a15.84,15.84,0,0,0,1.76-7.7A15.84,15.84,0,0,0,351,54Z" />
            <path class="cls-1" d="M419.92,65.37H384.3A12.09,12.09,0,0,0,388,73.63a11.37,11.37,0,0,0,8,3q6.86,0,9.76-5.89H419A22.15,22.15,0,0,1,411,82.3a23.62,23.62,0,0,1-14.69,4.53,25.42,25.42,0,0,1-12.62-3.12,22,22,0,0,1-8.71-8.84,27.14,27.14,0,0,1-3.12-13.2,27.61,27.61,0,0,1,3.07-13.28,21.52,21.52,0,0,1,8.63-8.8,27.67,27.67,0,0,1,25.2-.09A21.13,21.13,0,0,1,417.24,48a25.73,25.73,0,0,1,3,12.62A28.56,28.56,0,0,1,419.92,65.37Zm-12.4-8.27a9.75,9.75,0,0,0-3.43-7.61,12.14,12.14,0,0,0-8.18-2.86,11.17,11.17,0,0,0-7.7,2.77,12.14,12.14,0,0,0-3.82,7.7Z" />
            <path class="cls-1" d="M454,86l-10-15.13L435.05,86H421.86l15.92-24.46L421.68,37.3h13.9l9.94,15.05,9-15.05h13.2l-16,24.28L467.87,86Z" />
            <path class="cls-1" d="M484.57,22a6.69,6.69,0,0,1,2.65,2.65,7.81,7.81,0,0,1,.95,3.87,7.65,7.65,0,0,1-.95,3.82A6.75,6.75,0,0,1,484.57,35a8.14,8.14,0,0,1-7.67,0,6.94,6.94,0,0,1-2.67-2.65,7.55,7.55,0,0,1-1-3.82,7.71,7.71,0,0,1,1-3.87A6.87,6.87,0,0,1,476.9,22a8.29,8.29,0,0,1,7.67,0Zm.21,10.61a5.59,5.59,0,0,0,1.53-4.09,5.64,5.64,0,0,0-1.53-4.12,6,6,0,0,0-8.08,0,5.71,5.71,0,0,0-1.5,4.12,5.61,5.61,0,0,0,1.5,4.1,6,6,0,0,0,8.08,0Zm-1.12-4.16a2.14,2.14,0,0,1-1,.84l1.82,2.88h-2.73l-1.51-2.63H480v2.63h-2.35v-7.5h3.68a2.78,2.78,0,0,1,2,.68,2.52,2.52,0,0,1,.37,3.1Zm-3.7-.66h1.13a.68.68,0,0,0,.42-.14.54.54,0,0,0,.17-.42c0-.35-.2-.53-.59-.53H480Z" />
            <path class="cls-2" d="M40.07,112A15.26,15.26,0,0,1,29,107.34,15.78,15.78,0,0,1,29,85.1L56.89,57.22l-28-27.89A15.72,15.72,0,0,1,51.13,7.1L90.19,46.15A15.57,15.57,0,0,1,94.8,57.22a15.34,15.34,0,0,1-4.61,11.06L51.13,107.34A15.62,15.62,0,0,1,40.07,112Z" />
            <path class="cls-3" d="M114.69,0a16,16,0,0,1,11.57,4.82,16.51,16.51,0,0,1,0,23.26L97.1,57.25l29.29,29.16a16.45,16.45,0,0,1-23.26,23.26L62.27,68.82a16.26,16.26,0,0,1-4.82-11.57,16.08,16.08,0,0,1,4.82-11.58L103.13,4.82A16.35,16.35,0,0,1,114.69,0Z" />
            <path class="cls-4" d="M9.6,90.55a9.32,9.32,0,0,1-6.74-2.81,9.61,9.61,0,0,1,0-13.54l17-17-17-17A9.58,9.58,0,0,1,16.33,26.7L40.11,50.49a9.42,9.42,0,0,1,2.81,6.73A9.32,9.32,0,0,1,40.11,64L16.33,87.74A9.53,9.53,0,0,1,9.6,90.55Z" />
            <path class="cls-5" d="M143.69,23.9a9.3,9.3,0,0,1,6.74,2.81,9.61,9.61,0,0,1,0,13.54l-17,17,17.05,17A9.57,9.57,0,1,1,137,87.74L113.18,64a9.42,9.42,0,0,1-2.81-6.73,9.31,9.31,0,0,1,2.81-6.74L137,26.71a9.53,9.53,0,0,1,6.73-2.81Z" />
        </g>
    </g>
</svg>