<svg width="20" height="20" viewBox="0 0 20 20" fill="none" xmlns="http://www.w3.org/2000/svg">
<path d="M2.90009 15.4001H6.87969L5.30001 16.3001L6.10001 17.6798L10 15.4602L13.9 17.6806L14.7 16.3009L13.1203 15.4001H17.0999C17.9796 15.4001 18.6999 14.6798 18.6999 13.8001V4.2001C18.6999 3.32042 17.9796 2.6001 17.0999 2.6001H2.89993C2.02025 2.6001 1.29993 3.32042 1.29993 4.2001V13.8001C1.29993 14.6798 2.02025 15.4001 2.89993 15.4001L2.90009 15.4001ZM2.90009 4.20008H17.1001V13.8001H2.90009V4.20008Z" fill="#FAFAFA"/>
<path d="M12.3796 6.8604C12.1 6.90024 11.8593 7.08072 11.7398 7.34008L10.5601 10.0605L9.59997 8.24016C9.47965 8.00032 9.2398 7.84016 8.97964 7.81984C8.71948 7.79953 8.45932 7.89953 8.27964 8.09952L7.11948 9.43936L6.0398 6.29956L4.52026 6.80034L6.0601 11.2605C6.1601 11.5402 6.38042 11.7402 6.6601 11.7809C6.93978 11.841 7.22026 11.741 7.42026 11.5207L8.72026 10.0207L9.92027 12.2809C10.0601 12.5411 10.3406 12.7012 10.6203 12.7012H10.6601C10.9601 12.6809 11.2398 12.5012 11.3601 12.2215L12.6601 9.24194L13.9 10.9021L15.1796 9.94194L13.1202 7.18014C12.9398 6.9606 12.6601 6.8403 12.3796 6.8606L12.3796 6.8604Z" fill="#FAFAFA"/>
</svg>
